SplineFontDB: 3.2
FontName: Vilnius-Regular
FullName: Vilnius
FamilyName: Vilnius
Weight: Regular
Copyright: Copyright 2021 Aleksandr Andreev and Nikita Simmons (<https://sci.ponomar.net/>).
UComments: "2012-5-7: Created."
Version: 1.0
ItalicAngle: 0
UnderlinePosition: -100
UnderlineWidth: 50
Ascent: 800
Descent: 200
InvalidEm: 0
LayerCount: 2
Layer: 0 0 "Back" 1
Layer: 1 0 "Fore" 0
XUID: [1021 623 1685047925 1648344]
FSType: 0
OS2Version: 0
OS2_WeightWidthSlopeOnly: 0
OS2_UseTypoMetrics: 1
CreationTime: 1336434585
ModificationTime: 1630918719
PfmFamily: 17
TTFWeight: 400
TTFWidth: 5
LineGap: 90
VLineGap: 0
OS2TypoAscent: 1191
OS2TypoAOffset: 0
OS2TypoDescent: -793
OS2TypoDOffset: 0
OS2TypoLinegap: 90
OS2WinAscent: 1191
OS2WinAOffset: 0
OS2WinDescent: 793
OS2WinDOffset: 0
HheadAscent: 1191
HheadAOffset: 0
HheadDescent: -793
HheadDOffset: 0
OS2Vendor: '    '
Lookup: 4 0 0 "'ccmp' Glyph Composition/Decomposition lookup 0" { "'ccmp' Glyph Composition/Decomposition lookup 0-1"  } ['ccmp' ('DFLT' <'dflt' > 'cyrl' <'dflt' > 'latn' <'dflt' > ) ]
Lookup: 4 0 0 "'ccmp' Secondary Ligatures" { "'ccmp' Secondary Ligatures 1"  } ['ccmp' ('DFLT' <'dflt' > 'cyrl' <'dflt' > 'latn' <'dflt' > ) ]
Lookup: 3 0 0 "'salt' Stylistic Alternatives lookup 2" { "'salt' Stylistic Alternatives lookup 2-1"  } ['salt' ('DFLT' <'dflt' > 'cyrl' <'dflt' > 'latn' <'dflt' > ) ]
Lookup: 260 0 0 "'mark' Mark Positioning lookup 0" { "'mark' Mark Positioning lookup 0-1"  } ['mark' ('DFLT' <'dflt' > 'cyrl' <'dflt' > 'latn' <'dflt' > ) ]
Lookup: 262 0 0 "'mkmk' Mark to Mark lookup 1" { "'mkmk' Mark to Mark lookup 1-1"  } ['mkmk' ('DFLT' <'dflt' > 'cyrl' <'dflt' > 'latn' <'dflt' > ) ]
MarkAttachClasses: 1
DEI: 91125

StartChar: uni0000
Encoding: 0 0 0
Width: 427
Flags: W
HStem: 0 19<29 398> 748 22<29 398>
VStem: 0 22<34 733> 405 22<34 733>
DStem2: 29 748 22 733 0.465951 -0.884811<10.0105 395.419 421.078 806.952> 22 34 29 19 0.465951 0.884811<0 385.408 411.068 796.942>
LayerCount: 2
Fore
SplineSet
0 770 m 5
 427 770 l 5
 427 0 l 5
 0 0 l 5
 0 770 l 5
29 748 m 5
 213 398 l 5
 398 748 l 5
 29 748 l 5
398 19 m 5
 213 369 l 5
 29 19 l 5
 398 19 l 5
221 383 m 5
 405 34 l 5
 405 733 l 5
 221 383 l 5
22 733 m 5
 22 34 l 5
 206 383 l 5
 22 733 l 5
EndSplineSet
Validated: 1
EndChar

StartChar: uniA676
Encoding: 42614 42614 1
Width: 0
Flags: W
HStem: 722.848 51.1518<-239.431 -191.978 -157.431 -109.978>
VStem: -246 52<727.71 773.953> -237 52<723.299 771.461> -205.633 62.6326<501.282 682.689> -198 61<623 684> -164 52<727.71 773.953> -155 52<723.299 771.461>
AnchorPoint: "Stacking" -170 482 mark 0
AnchorPoint: "Stacking" -164 854 basemark 0
AnchorPoint: "Diacritic" -170 482 mark 0
LayerCount: 2
Back
SplineSet
-185 727 m 5x90
 -191.642578125 724.786132812 -201.202148438 723.4765625 -211 723.02734375 c 4
 -220.193359375 722.606445312 -229.596679688 722.942382812 -237 724 c 5
 -240.791992188 727.791992188 -246 764.0859375 -246 772 c 5
 -237 773.5 -230 774 -219 774 c 4
 -212.084960938 774 -199.4296875 773.809570312 -194 772 c 5
 -191 766 -189 757 -188 750 c 4
 -186.924804688 743.01171875 -185 734.225585938 -185 727 c 5x90
-137 500 m 1
 -146 500 -158 499 -167 499 c 0
 -179 499 -193 500 -205 500 c 1
 -205 500 -206.423323239 558.586932004 -205 596 c 24
 -203.69140625 630.403320312 -201 656 -198 684 c 1
 -182 686 -172 688 -158 688 c 0
 -152 688 -144 688 -137 687 c 1
 -142.316869814 660.415650928 -143.200438799 628.31817249 -143 595.700012207 c 0
 -142.791275794 561.733536368 -141.301784211 527.244633337 -137 500 c 1
-103 727 m 1x90
 -109.642694821 724.785768393 -119.201783055 723.476230442 -128.999999461 723.0272853 c 0
 -138.193277488 722.606057871 -147.597067816 722.942438259 -155 724 c 1
 -158.792048755 727.792048755 -164 764.085670035 -164 772 c 1
 -155 773.5 -148 774 -137 774 c 0
 -130.084960938 774 -117.429915914 773.809971971 -112 772 c 1
 -109 766 -107 757 -106 750 c 0
 -104.924846538 743.011502498 -103 734.226044335 -103 727 c 1x90
EndSplineSet
Fore
SplineSet
-185 727 m 5xa0
 -193.2525561 724.249552384 -206.322344942 722.848163292 -218.77778164 722.848163292 c 0
 -225.276216733 722.848163292 -231.607420731 723.229631533 -237 724 c 5xa0
 -240.791992188 727.791992188 -246 764.0859375 -246 772 c 5
 -237 773.5 -230 774 -219 774 c 4
 -212.084960938 774 -199.4296875 773.809570312 -194 772 c 5xc0
 -188.30330798 760.606615959 -185 742.085533964 -185 727 c 5xa0
-137 500 m 1x88
 -146 500 -158 499 -167 499 c 0
 -179 499 -193 500 -205 500 c 1
 -205 500 -205.632588106 526.038636446 -205.632588106 554.483080891 c 0x90
 -205.632588106 568.705303113 -205.47444108 583.528977335 -205 596 c 8
 -203.69140625 630.403320312 -201 656 -198 684 c 1
 -182 686 -172 688 -158 688 c 0
 -152 688 -144 688 -137 687 c 1x88
 -141.880610858 662.596945706 -143.025594657 633.548369703 -143.025594657 603.715878113 c 0
 -143.025594657 601.049266904 -143.016446372 598.376392302 -143 595.700012207 c 0x90
 -142.791275794 561.733536368 -141.301784211 527.244633337 -137 500 c 1x88
-103 727 m 1x82
 -111.252086357 724.249304548 -124.321319234 722.84806262 -136.776300569 722.84806262 c 0
 -143.275335667 722.84806262 -149.60712395 723.229589135 -155 724 c 1x82
 -158.792048755 727.792048755 -164 764.085670035 -164 772 c 1x84
 -155 773.5 -148 774 -137 774 c 0x88
 -130.084960938 774 -117.429915914 773.809971971 -112 772 c 1x84
 -106.303269546 760.606539092 -103 742.085681063 -103 727 c 1x82
EndSplineSet
Validated: 1
Comment: "Copied from Hirmos"
Colour: ffff
EndChar

StartChar: exclam
Encoding: 33 33 2
Width: 202
Flags: W
HStem: -4 126<49.768 142.231>
VStem: 32.999 138.001<198.246 322.259> 32.999 126.001<12.7694 106.238> 59.999 47.001<464.512 645.644> 72 96<312.384 417.844>
LayerCount: 2
Fore
SplineSet
32.999 59 m 0xa0
 32.999 92.6092755581 61.2841350919 122 96 122 c 0
 130.713236244 122 159 92.6136461642 159 59 c 0
 159 25.3545806023 129.64337549 -4 96 -4 c 0
 62.3549173548 -4 32.999 25.3571601479 32.999 59 c 0xa0
96 167 m 0
 56.146982954 167 32.999 192.606040354 32.999 232 c 0xc0
 32.999 284.27576564 51.6441809894 310.521497721 66 350 c 0
 70 361 72 374 72 387 c 0x88
 72 401 70 413 70 424 c 1
 66 457 l 1
 59.999 491 l 1
 59.999 503 59.999 516 59.999 531 c 0
 59.999 604.095875844 83.8533993415 669.853399342 120 706 c 0
 125.164690819 711.164690819 142.160625119 707.481875357 140 701 c 0
 127.769762872 667.80364208 107 629.353981212 107 587 c 0x90
 107 529.206787636 115.864285423 495.339286443 134 450 c 2
 150 408 l 2
 155 395 158 383 161 370 c 0
 164 358 168 345 168 332 c 0x88
 168 319 171 303 171 285 c 0xc0
 171 236.93915849 156.805988667 197.626880074 129 176 c 0
 120 170 109 167 96 167 c 0
EndSplineSet
Validated: 1
EndChar

StartChar: parenleft
Encoding: 40 40 3
Width: 319
Flags: W
VStem: 119.999 48.001<-134.275 214.621>
LayerCount: 2
Fore
SplineSet
408 -466 m 0
 414.474861845 -471.036363372 417.156314191 -477.439264222 417.156314191 -483.753163877 c 0
 417.156314191 -496.5230257 406.187817004 -508.928827592 393.450098005 -508.928827592 c 0
 389.051105834 -508.928827592 384.441102547 -507.449215431 379.999 -503.994 c 0
 264.173867783 -417.61618485 176.626615097 -288.814652258 138.499 -125.994 c 0
 126.166 -73.3271 119.999 -17.9941 119.999 40.0059 c 0
 119.999 234.951794491 182.945057492 377.246744729 273.499 484.003 c 0
 305.166 521.336 340.666 554.669 379.999 584.002 c 0
 384.59045946 587.573390217 389.305144968 589.099022778 393.769492916 589.099022778 c 0
 406.498236607 589.099022778 417.191902462 576.696644867 417.191902462 563.947530523 c 0
 417.191902462 557.543529188 414.493731869 551.052041106 408 546.001 c 0
 300.741078467 464.564663826 219.946425639 352.654103523 185 199.501 c 0
 173.667 149.834 168 96.667 168 40 c 0
 168 -137.426719849 227.66784632 -271.699176442 309.5 -371 c 0
 339.167 -407 372 -438.667 408 -466 c 0
EndSplineSet
Validated: 1
EndChar

StartChar: uni0410
Encoding: 1040 1040 4
Width: 614
Flags: W
HStem: -455 25<68 119.217 233 285 318 372 499 555> 495 24.998<297 352 468 522>
VStem: 224 25<-175 -87.6914> 352 116<286.129 495> 372 127<-430 -221.129>
LayerCount: 2
Back
SplineSet
160 -210 m 0xe8
 160 -184 179 -174 205 -174 c 0
 210 -174 216 -174 221 -175 c 1
 221 -156 223 -140 224 -120 c 1
 222 -111 218 -101 213 -90 c 2
 197 -55 l 2
 187 -31 177 -2 177 32 c 0
 177 61 187 95 201 112 c 0
 231.578667408 149.635282964 262.688854602 173.985526411 298 204 c 0
 307 212 317 222 327 234 c 1
 342 266 348 307 352 348 c 1
 352 495 l 1
 297 495 l 1
 297 519.998 l 1
 522 519.998 l 1
 522 495 l 1
 468 495 l 1xf0
 499 -430 l 1
 555 -430 l 1
 555 -455 l 1
 318 -455 l 1
 318 -430 l 1
 372 -430 l 1
 364 -70 l 1
 324 -101 291 -142 271 -190 c 1
 286 -197 308 -211 308 -232 c 0
 308 -260 287 -270 259 -270 c 0
 256 -270 252 -269 248 -269 c 1
 242 -299 236 -339 236 -371 c 1
 233 -430 l 1
 285 -430 l 1
 285 -455 l 1
 68 -455 l 1
 68 -430 l 1
 115 -430 l 1
 126 -400 139 -370 153 -340 c 2
 195 -253 l 1
 180 -245 160 -231 160 -210 c 0xe8
260 -49 m 0
 257 -76 249 -111 249 -138 c 0
 249 -154 246 -168 246 -181 c 1
 247 -181 l 1
 266 -133 296 -99 330 -64 c 0
 341 -53 352 -43 363 -35 c 1
 357 249 l 1
 355 239 352 229 348 219 c 2
 331 179 l 2
 310 131 285 83 272 24 c 0
 267 0 263 -23 260 -49 c 0
EndSplineSet
Fore
SplineSet
160 -210 m 0xe8
 160 -184 179 -174 205 -174 c 0
 210 -174 216 -174 221 -175 c 1
 221 -156 223 -140 224 -120 c 1
 222 -111 218 -101 213 -90 c 2
 197 -55 l 2
 187 -31 177 -2 177 32 c 0
 177 61 187 95 201 112 c 0
 231.578667408 149.635282964 262.688854602 173.985526411 298 204 c 0
 307 212 317 222 327 234 c 1
 342 266 348 307 352 348 c 1
 352 495 l 1
 297 495 l 1
 297 519.998 l 1
 522 519.998 l 1
 522 495 l 1
 468 495 l 1xf0
 499 -430 l 1
 555 -430 l 1
 555 -455 l 1
 318 -455 l 1
 318 -430 l 1
 372 -430 l 1
 364 -70 l 1
 324 -101 291 -142 271 -190 c 1
 286 -197 308 -211 308 -232 c 0
 308 -260 287 -270 259 -270 c 0
 256 -270 252 -269 248 -269 c 1
 242 -299 236 -339 236 -371 c 1
 233 -430 l 1
 285 -430 l 1
 285 -455 l 1
 68 -455 l 1
 68 -430 l 1
 115 -430 l 1
 126 -400 139 -370 153 -340 c 2
 195 -253 l 1
 180 -245 160 -231 160 -210 c 0xe8
260 -49 m 0
 257 -76 249 -111 249 -138 c 0
 249 -154 246 -168 246 -181 c 1
 247 -181 l 1
 266 -133 296 -99 330 -64 c 0
 341 -53 352 -43 363 -35 c 1
 357 249 l 1
 355 239 352 229 348 219 c 2
 331 179 l 2
 310 131 285 83 272 24 c 0
 267 0 263 -23 260 -49 c 0
EndSplineSet
Validated: 1
Colour: ffff
EndChar

StartChar: uni0430
Encoding: 1072 1072 5
Width: 377
Flags: W
HStem: 0 21G<53.6807 70> 423 20G<284 299.994>
VStem: 34.9693 294.031
DStem2: 150 129 184 130 0.583207 0.812324<-16.3011 68.6518>
LayerCount: 2
Back
SplineSet
60 0 m 5xd0
 47 0 34.2606485653 5.01953650783 35 19 c 4
 36.8333333333 53.6666666667 54 88 70 121 c 4
 99.1838191882 181.799623308 146.731533311 234.396227774 177.578755234 301.200012207 c 4
 186.330266733 320.152580742 193.73758009 340.248664371 199 362 c 5
 197.5 382.666666667 197.29284979 387.635509857 194 428 c 5
 219 435 268 443 300 443 c 5xe0
 299.833496094 404.5 302 306 307 233 c 4
 311 154 319 54 329 -12 c 5
 314 -14 298 -15 279 -15 c 4
 260 -15 243 -14 228 -12 c 5
 225.214210097 17.9472414526 221.7265625 46.001953125 219.252929688 74.3330078125 c 4
 216.603515625 104.682617188 214.969175518 135.349344126 212 169 c 5
 184 130 l 6
 164.423576591 102.033680844 149.820909408 75.2836376303 140 36 c 5
 113 29 80 14 60 0 c 5xd0
208.006 208 m 5xd0
 207.536824647 213.982854463 206.083007812 232.456054688 205.16796875 249.333984375 c 4
 204.266601562 265.944335938 203.906451814 280.935481861 203 290 c 5
 182 242 152 196 129 150 c 4
 124 140 122 133 122 129 c 5
 124 124 128 121 133 121 c 4
 137 121 143 124 150 129 c 5
 166.562929232 145.562929232 190.943282376 186.67160297 208.006 208 c 5xd0
EndSplineSet
Fore
SplineSet
300 443 m 5
 299.988068243 440.241069754 299.982135272 437.43890808 299.982135272 434.595503276 c 0
 299.982135272 309.088335737 311.54144434 103.226467356 329 -12 c 5
 314 -14 298 -15 279 -15 c 4
 260 -15 243 -14 228 -12 c 5
 225.214210097 17.9472414526 221.7265625 46.001953125 219.252929688 74.3330078125 c 4
 216.603515625 104.682617188 214.969175518 135.349344126 212 169 c 5
 184 130 l 6
 164.423576591 102.033680844 149.820909408 75.2836376303 140 36 c 5
 113 29 80 14 60 0 c 5
 47.3614748578 0 34.969304742 4.74427337591 34.969304742 17.8544877969 c 0
 34.969304742 52.7275136316 54.2253090328 88.4646998803 70 121 c 4
 107.478180159 199.079541996 175.332316585 264.173575212 199 362 c 5
 197.5 382.666666667 197.29284979 387.635509857 194 428 c 5
 219 435 268 443 300 443 c 5
208.006 208 m 5
 206.910178707 221.973750482 204.594480453 274.055195473 203 290 c 5
 182 242 152 196 129 150 c 4
 124 140 122 133 122 129 c 5
 124 124 128 121 133 121 c 4
 137 121 143 124 150 129 c 5
 166.562929232 145.562929232 190.943282376 186.67160297 208.006 208 c 5
EndSplineSet
Validated: 1
Colour: ffff
EndChar

StartChar: uni0411
Encoding: 1041 1041 6
Width: 613
Flags: W
HStem: -455 25<75 130 262 396 524.587 551> 495 24.998<102 156 276 404.781>
VStem: 130 132<-430 -180.962> 156 114<245.962 495> 396 130<-430 -276.998>
LayerCount: 2
Back
SplineSet
75 -455 m 1xd8
 75 -430 l 1
 130 -430 l 1xe8
 156 495 l 1
 102 495 l 1
 102 519.998 l 1
 577 519.998 l 1
 577 517.998 577 516 578 514 c 0
 578 512 578 510 578 509 c 0
 578 507 578 506 577 505 c 0
 514 437 476 377 436 294 c 1
 425 294 l 1
 422 328 419 365 415 399 c 2
 409 451 l 2
 407 467 405 482 403 495 c 1
 276 495 l 1
 272 203 l 1
 276 152 283 118 304 84 c 0
 319 59 344 30 369 9 c 2
 405 -21 l 2
 427 -40 447 -59 462 -87 c 1
 494 -202 511 -306 526 -430 c 1
 551 -430 l 1
 551 -455 l 1
 75 -455 l 1xd8
328 6 m 1
 302 41 l 2
 289 57 279 75 270 94 c 1xd8
 262 -430 l 1
 396 -430 l 1
 391 -317 374 -190 353 -89 c 0
 345 -51 337 -19 328 6 c 1
EndSplineSet
Fore
SplineSet
75 -455 m 1xd8
 75 -430 l 1
 130 -430 l 1xe8
 156 495 l 1
 102 495 l 1
 102 519.998 l 1
 577 519.998 l 1
 577 517.998 577 516 578 514 c 0
 578 512 578 510 578 509 c 0
 578 507 578 506 577 505 c 0
 514 437 476 377 436 294 c 1
 425 294 l 1
 422 328 419 365 415 399 c 2
 409 451 l 2
 407 467 405 482 403 495 c 1
 276 495 l 1
 272 203 l 1
 276 152 283 118 304 84 c 0
 319 59 344 30 369 9 c 2
 405 -21 l 2
 427 -40 447 -59 462 -87 c 1
 494 -202 511 -306 526 -430 c 1
 551 -430 l 1
 551 -455 l 1
 75 -455 l 1xd8
328 6 m 1
 302 41 l 2
 289 57 279 75 270 94 c 1xd8
 262 -430 l 1
 396 -430 l 1
 391 -317 374 -190 353 -89 c 0
 345 -51 337 -19 328 6 c 1
EndSplineSet
Validated: 1
Colour: ffff
EndChar

StartChar: uni0431
Encoding: 1073 1073 7
Width: 401
Flags: W
HStem: 0 30<154 209> 407 30<189.359 271.378>
LayerCount: 2
Back
SplineSet
54 0 m 1
 60 126 72 277 89 390 c 0
 92 411 95 426 98 437 c 1
 388 437 l 2
 392 437 394 434 394 431 c 0
 394 429 393 427 392 425 c 0
 386 417 378 408 368 397 c 0
 349 375 330 353 310 332 c 0
 302 322 295 315 290 311 c 0
 288 309 287 308 285 308 c 0
 280 308 279 324 278 333 c 0
 278 357 275 389 266 407 c 1
 193 407 l 1
 186 383 182 349 178 317 c 0
 174 276 169 228 165 186 c 1
 201 202 225 214 237 222 c 0
 241 224 246 226 249 222 c 0
 261 206 276 158 285 130 c 0
 297 92 309 43 315 0 c 1
 54 0 l 1
163 166 m 1
 159 121 156 69 154 30 c 1
 209 30 l 1
 202 67 191 113 179 145 c 0
 175 156 171 163 168 167 c 1
 167 166 165 166 163 166 c 1
EndSplineSet
Fore
SplineSet
54 0 m 1
 60 126 72 277 89 390 c 0
 92 411 95 426 98 437 c 1
 388 437 l 2
 392 437 394 434 394 431 c 0
 394 429 393 427 392 425 c 0
 386 417 378 408 368 397 c 0
 349 375 330 353 310 332 c 0
 302 322 295 315 290 311 c 0
 288 309 287 308 285 308 c 0
 280 308 279 324 278 333 c 0
 278 357 275 389 266 407 c 1
 193 407 l 1
 186 383 182 349 178 317 c 0
 174 276 169 228 165 186 c 1
 201 202 225 214 237 222 c 0
 241 224 246 226 249 222 c 0
 261 206 276 158 285 130 c 0
 297 92 309 43 315 0 c 1
 54 0 l 1
163 166 m 1
 159 121 156 69 154 30 c 1
 209 30 l 1
 202 67 191 113 179 145 c 0
 175 156 171 163 168 167 c 1
 167 166 165 166 163 166 c 1
EndSplineSet
Validated: 1
Colour: ffff
EndChar

StartChar: uni0412
Encoding: 1042 1042 8
Width: 633
Flags: W
HStem: -455.006 25.006<75 130.001 262 396.003 525.957 551> 507.995 22.005<320.735 404.369>
VStem: 130.001 131.999<-430 -184.045> 152.001 118.999<97.0455 226.06 241 423.9> 396.003 130.997<-430 -281.247> 446.005 105.995<327.087 478.913>
LayerCount: 2
Back
SplineSet
480 -155 m 1xd4
 501 -245 516 -334 527 -430 c 1
 551 -430 l 1
 551 -455.006 l 1
 75 -455.006 l 5
 75 -430 l 1
 130.001 -430 l 1xe8
 152.001 343 l 2
 155.001 426 208 489 268 514 c 0
 292 525 316 530 349 530 c 2
 396.003 530 l 1xd8
 486.003 528 552 497 552 402 c 0
 552 352 542 334 511 309 c 0
 475 280 401 287 351 271 c 0
 310 259 280 216 271 178 c 1
 271 177 l 1
 270 97 l 1
 281 33 320 -20 363 -53 c 0
 390 -73 418 -91 443 -114 c 1
 462 -133 l 2
 467 -139 473 -146 480 -155 c 1xd4
330 -56 m 2
 305 -34 284 -9 269 23 c 1
 262 -430 l 1
 396.003 -430 l 1
 393.003 -339 382 -239 368 -156 c 0
 363 -124 357 -96 350 -73 c 1
 330 -56 l 2
272 241 m 1
 286 260 315 286 341 293 c 2
 377 302 l 1
 429 313 446.005 344 446.005 402 c 0xc4
 446.005 446 431 482 404 499 c 0
 394 505 383 507.995 370 507.995 c 0
 317 507.995 276 477 275 428 c 2
 272 241 l 1
EndSplineSet
Fore
SplineSet
480 -155 m 1xd4
 501 -245 516 -334 527 -430 c 1
 551 -430 l 1
 551 -455.006 l 1
 75 -455.006 l 5
 75 -430 l 1
 130.001 -430 l 1xe8
 152.001 343 l 2
 155.001 426 208 489 268 514 c 0
 292 525 316 530 349 530 c 2
 396.003 530 l 1xd8
 486.003 528 552 497 552 402 c 0
 552 352 542 334 511 309 c 0
 475 280 401 287 351 271 c 0
 310 259 280 216 271 178 c 1
 271 177 l 1
 270 97 l 1
 281 33 320 -20 363 -53 c 0
 390 -73 418 -91 443 -114 c 1
 462 -133 l 2
 467 -139 473 -146 480 -155 c 1xd4
330 -56 m 2
 305 -34 284 -9 269 23 c 1
 262 -430 l 1
 396.003 -430 l 1
 393.003 -339 382 -239 368 -156 c 0
 363 -124 357 -96 350 -73 c 1
 330 -56 l 2
272 241 m 1
 286 260 315 286 341 293 c 2
 377 302 l 1
 429 313 446.005 344 446.005 402 c 0xc4
 446.005 446 431 482 404 499 c 0
 394 505 383 507.995 370 507.995 c 0
 317 507.995 276 477 275 428 c 2
 272 241 l 1
EndSplineSet
Validated: 1
Colour: ffff
EndChar

StartChar: uni0432
Encoding: 1074 1074 9
Width: 403
Flags: W
HStem: 0 30<143 252> 407 30<193 263>
VStem: 42 314<0 29.1708>
DStem2: 42 0 143 30 0.131475 0.99132<43.0185 278.012 308.206 423.32>
LayerCount: 2
Back
SplineSet
42 0 m 1
 50.3680225451 103.20561139 65.6579453874 212.328133378 79 313 c 4
 85 356 92 402 99 437 c 1
 320 437 l 2
 323 437 340 432 331 427 c 0
 303.454729031 408.062626209 281.567482485 382.943273356 254 351 c 24
 232.227539062 325.771484375 214.5 297.5 205 281 c 1
 212 276 l 1
 305 276 l 1
 311 268 317 253 322 231 c 0
 339 166 353 78 356 0 c 1
 42 0 l 1
194 261 m 1
 175 249 167 191 161 163 c 0
 153.059495249 120.121274344 147.651436264 76.5143626422 143 30 c 1
 252 30 l 1
 248 108 237 183 212 237 c 0
 207 251 194 261 194 261 c 1
177 293 m 1
 198 337 231 375 263 407 c 1
 193 407 l 1
 186 362 l 2
 183 342 180 319 177 293 c 1
EndSplineSet
Fore
SplineSet
42 0 m 1
 50.3680225451 103.20561139 65.6579453874 212.328133378 79 313 c 4
 85 356 92 402 99 437 c 1
 320 437 l 2
 323 437 340 432 331 427 c 0
 289.171805707 398.243116424 230.830232278 325.863035009 205 281 c 1
 212 276 l 1
 305 276 l 1
 311 268 317 253 322 231 c 0
 339 166 353 78 356 0 c 1
 42 0 l 1
194 261 m 1
 175 249 167 191 161 163 c 0
 153.059495249 120.121274344 147.651436264 76.5143626422 143 30 c 1
 252 30 l 1
 248 108 237 183 212 237 c 0
 207 251 194 261 194 261 c 1
177 293 m 1
 198 337 231 375 263 407 c 1
 193 407 l 1
 186 362 l 2
 183 342 180 319 177 293 c 1
EndSplineSet
Validated: 1
Colour: ffff
EndChar

StartChar: uni0413
Encoding: 1043 1043 10
Width: 589
Flags: W
HStem: -455 25<75 129.999 262 317> 495 24.998<102 155.999 276 404.781>
VStem: 129.999 132.001<-430 -180.962> 155.999 120.001<245.962 495>
LayerCount: 2
Back
SplineSet
75 -455 m 5xe0
 75 -430 l 5
 129.999 -430 l 5xe0
 155.999 495 l 5
 102 495 l 5
 102 519.998 l 5
 577 519.998 l 5
 577 517.998 577 516 578 514 c 4
 578 512 578 510 578 509 c 4
 578 507 578 506 577 505 c 4
 514 437 476 377 436 294 c 5
 425 294 l 5
 422 328 419 365 415 399 c 6
 409 451 l 6
 407 467 405 482 403 495 c 5
 276 495 l 5xd0
 262 -430 l 5
 317 -430 l 5
 317 -455 l 5
 75 -455 l 5xe0
EndSplineSet
Fore
SplineSet
75 -455 m 5xe0
 75 -430 l 5
 129.999 -430 l 5xe0
 155.999 495 l 5
 102 495 l 5
 102 519.998 l 5
 577 519.998 l 5
 577 517.998 577 516 578 514 c 4
 578 512 578 510 578 509 c 4
 578 507 578 506 577 505 c 4
 514 437 476 377 436 294 c 5
 425 294 l 5
 422 328 419 365 415 399 c 6
 409 451 l 6
 407 467 405 482 403 495 c 5
 276 495 l 5xd0
 262 -430 l 5
 317 -430 l 5
 317 -455 l 5
 75 -455 l 5xe0
EndSplineSet
Validated: 1
Colour: ffff
EndChar

StartChar: uni0433
Encoding: 1075 1075 11
Width: 387
Flags: W
HStem: -3 21G<92.5 108> 407.001 29.999<174.479 252.171>
VStem: 51 100<-1.94238 259.837> 258.001 12.999<284.012 297.933>
LayerCount: 2
Back
SplineSet
51 0 m 5
 51 146.290561862 64.1596847309 307.89091627 81 437 c 5
 376 437 l 6
 379 437 381 434 381 431 c 4
 381 429 380 426 379 425 c 4
 342 388 293 333 271 287 c 4
 270 285 267 284 264 284 c 4
 260 284 258.001 285 258.001 287 c 4
 257.001 292 258.001 298 258.001 305 c 4
 258.001 321 257 336 257 352 c 4
 257 376 255 398.001 242 407.001 c 5
 176 407.001 l 5
 165 316.001 158 203 154 103 c 4
 152 65 151 31 151 0 c 5
 133 -2 116 -3 100 -3 c 4
 85 -3 68 -2 51 0 c 5
EndSplineSet
Fore
SplineSet
51 0 m 5
 51 146.290561862 64.1596847309 307.89091627 81 437 c 5
 376 437 l 6
 379 437 381 434 381 431 c 4
 381 429 380 426 379 425 c 4
 342 388 293 333 271 287 c 4
 270 285 267 284 264 284 c 4
 260 284 258.001 285 258.001 287 c 4
 257.001 292 258.001 298 258.001 305 c 4
 258.001 321 257 336 257 352 c 4
 257 376 255 398.001 242 407.001 c 5
 176 407.001 l 5
 165 316.001 158 203 154 103 c 4
 152 65 151 31 151 0 c 5
 133 -2 116 -3 100 -3 c 4
 85 -3 68 -2 51 0 c 5
EndSplineSet
Validated: 1
Colour: ffff
EndChar

StartChar: uni0414
Encoding: 1044 1044 12
Width: 665
Flags: W
HStem: -455.003 25.003<47 78.7259 231.69 261.447 284 397.002> 494.998 25<322 377 493 557>
VStem: 126.002 9.998<-655 -638.349> 377 116<286.127 494.998> 397.002 126.998<-430 -221.129>
DStem2: 258 -430 284 -430 0.229793 0.97324<5.97461 471.647>
LayerCount: 2
Back
SplineSet
126.002 -655 m 1xe8
 113.002 -584 100 -512.003 74 -455.003 c 1
 47 -455.003 l 1
 47 -430 l 1
 258 -430 l 1
 282.741235333 -344.53027794 302.429892173 -255.875449278 324 -166 c 1
 343 -79 l 2
 354 -25 364 28 372 84 c 2
 384 170 l 1
 377 494.998 l 1
 322 494.998 l 1
 322 519.998 l 1
 557 519.998 l 1
 557 494.998 l 1
 493 494.998 l 1xf0
 524 -430 l 1
 698 -430 l 1
 698 -433 698 -435 699 -437 c 0
 699 -442 699 -445 698 -445 c 0
 652 -470 613 -503 582 -542 c 0
 550 -581 525 -619 507 -656 c 1
 496 -656 l 1
 496 -643 494 -630 494 -615 c 0
 494 -574 497 -533 501 -497 c 2
 506 -455.003 l 1
 244 -455.003 l 1
 190 -499.003 155 -577 136 -655 c 1
 126.002 -655 l 1xe8
348 -172 m 2
 337 -223 325 -271 314 -317 c 1
 284 -430 l 1
 397.002 -430 l 1xe8
 387 26 l 1
 382 -6 376 -38 369 -70 c 2
 348 -172 l 2
EndSplineSet
Fore
SplineSet
126.002 -655 m 1xe8
 113.002 -584 100 -512.003 74 -455.003 c 1
 47 -455.003 l 1
 47 -430 l 1
 258 -430 l 1
 282.741235333 -344.53027794 302.429892173 -255.875449278 324 -166 c 1
 343 -79 l 2
 354 -25 364 28 372 84 c 2
 384 170 l 1
 377 494.998 l 1
 322 494.998 l 1
 322 519.998 l 1
 557 519.998 l 1
 557 494.998 l 1
 493 494.998 l 1xf0
 524 -430 l 1
 698 -430 l 1
 698 -433 698 -435 699 -437 c 0
 699 -442 699 -445 698 -445 c 0
 652 -470 613 -503 582 -542 c 0
 550 -581 525 -619 507 -656 c 1
 496 -656 l 1
 496 -643 494 -630 494 -615 c 0
 494 -574 497 -533 501 -497 c 2
 506 -455.003 l 1
 244 -455.003 l 1
 190 -499.003 155 -577 136 -655 c 1
 126.002 -655 l 1xe8
348 -172 m 2
 337 -223 325 -271 314 -317 c 1
 284 -430 l 1
 397.002 -430 l 1xe8
 387 26 l 1
 382 -6 376 -38 369 -70 c 2
 348 -172 l 2
EndSplineSet
Validated: 1
Colour: ffff
EndChar

StartChar: uni0434
Encoding: 1076 1076 13
Width: 462
Flags: W
HStem: 0 30.001<100.76 139.583 167 241 337.896 356.127>
VStem: 212.999 103.666<182.982 429.248>
LayerCount: 2
Back
SplineSet
239 44 m 2
 232.239 87.9401 227.76 127.287 221.998 178 c 1
 208.883 125.533 188.895 71.9643 167 30 c 1
 241 30 l 1
 239 44 l 2
432.998 30.001 m 1
 434.418 26.4513 436.109 22.6278 436.109 18.6318 c 0
 436.109 14.2861 433.739 4.40918 428.999 -10.998 c 0
 420.999 -39.665 410.336 -64.5 397.003 -85.5 c 0
 391.513 -94.1471 386.758 -98.4706 382.737 -98.4706 c 0
 376.993 -98.4706 372.748 -89.6471 370.003 -72 c 0
 365.336 -42 358.669 -18 350.002 0 c 1
 104.002 0 l 1
 96.6689 -33.333 92.002 -55.5 90.002 -66.5 c 0
 88.002 -77.5 83.502 -83.167 76.502 -83.5 c 0
 69.502 -83.833 63.502 -76.333 58.502 -61 c 0
 50.6788 -37.3232 43.1289 -13.3731 36.002 11 c 0
 34.6689 14.333 34.002 18.5 34.002 23.5 c 0
 34.002 28.5 36.6689 30.667 42.002 30 c 2
 132.002 30 l 1
 165.051 84.296 189.169 155.661 201.5 232.5 c 0
 205.833 259.5 209.666 284.667 212.999 308 c 1
 210.652 349.08 208.999 387.168 208.999 427.001 c 1
 234.391 436.673 289.535 445.405 321.999 448.001 c 1
 318.431 410.543 316.665 367.15 316.665 324.223 c 0
 316.665 221.241 324.711 116.623 339.998 30.001 c 1
 432.998 30.001 l 1
EndSplineSet
Fore
SplineSet
239 44 m 2
 232.239 87.9401 227.76 127.287 221.998 178 c 1
 208.883 125.533 188.895 71.9643 167 30 c 1
 241 30 l 1
 239 44 l 2
432.998 30.001 m 1
 434.418 26.4513 436.109 22.6278 436.109 18.6318 c 0
 436.109 14.2861 433.739 4.40918 428.999 -10.998 c 0
 420.999 -39.665 410.336 -64.5 397.003 -85.5 c 0
 391.513 -94.1471 386.758 -98.4706 382.737 -98.4706 c 0
 376.993 -98.4706 372.748 -89.6471 370.003 -72 c 0
 365.336 -42 358.669 -18 350.002 0 c 1
 104.002 0 l 1
 96.6689 -33.333 92.002 -55.5 90.002 -66.5 c 0
 88.002 -77.5 83.502 -83.167 76.502 -83.5 c 0
 69.502 -83.833 63.502 -76.333 58.502 -61 c 0
 50.6788 -37.3232 43.1289 -13.3731 36.002 11 c 0
 34.6689 14.333 34.002 18.5 34.002 23.5 c 0
 34.002 28.5 36.6689 30.667 42.002 30 c 2
 132.002 30 l 1
 165.051 84.296 189.169 155.661 201.5 232.5 c 0
 205.833 259.5 209.666 284.667 212.999 308 c 1
 210.652 349.08 208.999 387.168 208.999 427.001 c 1
 234.391 436.673 289.535 445.405 321.999 448.001 c 1
 318.431 410.543 316.665 367.15 316.665 324.223 c 0
 316.665 221.241 324.711 116.623 339.998 30.001 c 1
 432.998 30.001 l 1
EndSplineSet
Validated: 1
Colour: ffff
EndChar

StartChar: uni0415
Encoding: 1045 1045 14
Width: 688
Flags: W
HStem: -465 24<280.359 364.88> -203 25<401 446 560.974 611> -47.0039 25.0039<401 450 565.994 611> 60.9961 57.0039<315.448 410.556> 240 25<401 446 561.249 611> 504.993 24.007<280.983 363.132>
VStem: 65 129<-185.337 247.125> 446 118<-272.763 -203 -22 24.6528 265 333.441>
LayerCount: 2
Back
SplineSet
392 118 m 4
 482.535527618 118 556.64481408 68.8414873598 568 -22 c 5
 611 -22 l 5
 611 -47.0039 l 5
 401 -47.0039 l 5
 401 -22 l 5
 450 -22 l 5
 441 12 420 39 391 53 c 4
 382 58 372 60.9961 361 60.9961 c 4
 316 60.9961 278 43 257 16 c 4
 225 -27 204 -70 194 -128 c 5
 194 -237 210 -354 263 -415 c 4
 279 -432 299 -441 323 -441 c 4
 370 -441 394 -406 409 -370 c 4
 430 -325 440 -263 446 -203 c 5
 401 -203 l 5
 401 -178 l 5
 611 -178 l 5
 611 -203 l 5
 564 -203 l 5
 543 -287 511 -352 468 -397 c 4
 425 -442 376 -465 323 -465 c 4
 286 -465 251 -454 220 -431 c 4
 149 -379 107 -284 84 -176 c 4
 71 -115 65 -45 65 32 c 4
 65 178 89 305 138 396 c 4
 161 439 189 472 220 495 c 4
 251 518 286 529 323 529 c 4
 387 529 434 497 468 460 c 4
 514 411 545 343 564 265 c 5
 611 265 l 5
 611 240 l 5
 401 239.993 l 5
 401 265 l 5
 446 265 l 5
 437 351 423 441 374 485 c 4
 360 498 343 504.993 323 504.993 c 4
 273 504.993 248 465 232 425 c 4
 191 327 191 177 191 40 c 6
 191 -47.0039 l 5
 219.927897828 19.7527872964 269.579294469 81.4723093743 341 108 c 4
 358 115 375 118 392 118 c 4
EndSplineSet
Fore
SplineSet
392 118 m 4
 482.535527618 118 556.64481408 68.8414873598 568 -22 c 5
 611 -22 l 5
 611 -47.0039 l 5
 401 -47.0039 l 5
 401 -22 l 5
 450 -22 l 5
 441 12 420 39 391 53 c 4
 382 58 372 60.9961 361 60.9961 c 4
 316 60.9961 278 43 257 16 c 4
 225 -27 204 -70 194 -128 c 5
 194 -237 210 -354 263 -415 c 4
 279 -432 299 -441 323 -441 c 4
 370 -441 394 -406 409 -370 c 4
 430 -325 440 -263 446 -203 c 5
 401 -203 l 5
 401 -178 l 5
 611 -178 l 5
 611 -203 l 5
 564 -203 l 5
 543 -287 511 -352 468 -397 c 4
 425 -442 376 -465 323 -465 c 4
 286 -465 251 -454 220 -431 c 4
 149 -379 107 -284 84 -176 c 4
 71 -115 65 -45 65 32 c 4
 65 178 89 305 138 396 c 4
 161 439 189 472 220 495 c 4
 251 518 286 529 323 529 c 4
 387 529 434 497 468 460 c 4
 514 411 545 343 564 265 c 5
 611 265 l 5
 611 240 l 5
 401 239.993 l 5
 401 265 l 5
 446 265 l 5
 437 351 423 441 374 485 c 4
 360 498 343 504.993 323 504.993 c 4
 273 504.993 248 465 232 425 c 4
 191 327 191 177 191 40 c 6
 191 -47.0039 l 5
 219.927897828 19.7527872964 269.579294469 81.4723093743 341 108 c 4
 358 115 375 118 392 118 c 4
EndSplineSet
Validated: 1
Colour: ffff
EndChar

StartChar: uni0435
Encoding: 1077 1077 15
Width: 295
Flags: W
HStem: -6 21G<100 108> 45 62<176.992 215.342> 425 20G<227 245>
VStem: 61 92<172.738 321.031>
LayerCount: 2
Back
SplineSet
220 120 m 6
 220 105 l 6
 220 88 215 54 212 45 c 5
 185.621393117 23.6458896664 148.276896911 10.4323776468 114 -4 c 4
 111 -5 109 -6 107 -6 c 4
 93 -6 86.999 20 83.999 33 c 4
 73.057156191 87.7092190452 60.999 156.078092563 60.999 236 c 4
 62.999 321 87 361 141 401 c 4
 166 418 210 440 244 445 c 5
 246 436 247 427 247 416 c 4
 247 395 244 376 240 355 c 5
 205 346 181 332 157 317 c 5
 154.476173338 308.166606683 153 287.691420038 153 274 c 4
 153 265 153 256 154 246 c 5
 180 256 208 269 230 285 c 4
 233 286 235 285 235 282 c 4
 235 274.029206496 235.349775827 261.113891849 234.25 248 c 4
 232.879752388 231.660962037 231 210.5 230 211 c 5
 209 194 186 182 160 172 c 5
 163 150 167 124 171 107 c 5
 186 110 202 116 216 123 c 4
 219 124 220 123 220 120 c 6
EndSplineSet
Fore
SplineSet
235 282 m 0
 235 273.070826329 232.047031762 210.988224366 230.047401395 210.988224366 c 0
 230.031540299 210.988224366 230.015739184 210.992130408 230 211 c 1
 209 194 186 182 160 172 c 1
 163 150 167 124 171 107 c 1
 186 110 202 116 216 123 c 0
 219 124 220 123 220 120 c 2
 220 105 l 2
 220 88 215 54 212 45 c 1
 186 24 148 10 114 -4 c 0
 111 -5 109 -6 107 -6 c 0
 93 -6 87 20 84 33 c 0
 73 88 61 156 61 236 c 0
 63 321 87 361 141 401 c 0
 166 418 210 440 244 445 c 1
 246 436 247 427 247 416 c 0
 247 395 244 376 240 355 c 1
 205 346 181 332 157 317 c 1
 154 308 153 288 153 274 c 0
 153 265 153 256 154 246 c 1
 180 256 208 269 230 285 c 0
 233 286 235 285 235 282 c 0
EndSplineSet
Validated: 1
Colour: ffff
EndChar

StartChar: uni0416
Encoding: 1046 1046 16
Width: 904
Flags: W
HStem: -454.999 24.999<61 110.233 246 289 328 383.001 515 570 605 658 792.906 843> 507 12.999G<160 191 365 575 740.5 773>
VStem: 109.002 136.998<-430 -274.671> 383.001 131.999<-430 -190.584> 409 120<391 494.999> 658 136<-430 -278.482>
LayerCount: 2
Back
SplineSet
773 519.999 m 1xd4
 722.056524055 482.723285894 678.443793814 420.442329896 658 354 c 1
 649 354 l 1
 644 387 633 430 624 459 c 1
 569 428 537 364 526 293 c 1
 526 287 l 1
 548 281 569 271 569 244 c 0
 569 217 548 207 525 202 c 1
 525 160 l 1
 534 105 553 66 582 35 c 0
 643 -32 696.703278008 -86.0331333664 740 -181 c 24
 781.220703125 -271.4140625 782 -335 794 -430 c 1
 843 -430 l 1
 843 -454.999 l 1
 605 -454.999 l 1
 605 -430 l 1
 658 -430 l 1
 658 -311.255937521 640.5 -74 607 -37 c 0
 589.383442362 -17.5429064893 574.482454933 2.27325910586 559.744706161 22 c 0
 545.822800245 40.6347206075 533.201100726 60.1689650428 523 83 c 1
 515 -430 l 1
 570 -430 l 1
 570 -454.999 l 1
 328 -454.999 l 1
 328 -430 l 1
 383.001 -430 l 1
 398 83 l 1
 383.249446435 52.4452819005 370.490204439 32.839408263 352.5 12 c 0
 339.018999875 -3.61605741375 320.64870816 -20.8017224528 307 -39 c 0
 281.5 -73 255.02366058 -222.318681988 250 -326 c 0
 248.106975218 -365.069380046 246 -400 246 -430 c 1
 289 -430 l 1
 289 -454.999 l 1
 61 -454.999 l 1
 61 -430 l 1
 109.002 -430 l 1
 122.416746315 -327.153611588 126.298642669 -246.601698905 161.5 -177 c 4
 190.081193508 -120.487985244 246.138978734 -71.5355245025 290 -21 c 1
 338 31 385 81 400 169 c 1
 401 203 l 1
 380 209 357 219 357 244 c 0
 357 272 381.006 281 404.006 287 c 1
 404.006 291 l 1
 396.006 349 380 397 346 434 c 0
 340 440 318 458 309 461 c 1
 300 432 289 387 284 354 c 1
 275 354 l 1
 260 404 230 449 199 484 c 0
 187 498 174 509.999 160 519.999 c 1xd8
 165 527 l 1xb8
 217 521 275 505 316 490 c 0
 330 485 354 466 364 456 c 0
 383 437 397 416 406 391 c 1
 409 494.999 l 1
 365 494.999 l 1
 365 519.999 l 1
 575 519.999 l 1
 575 494.999 l 1
 529 494.999 l 1xd4
 529 390 l 1
 544 423 566 453 596 474 c 1
 617 490 l 1
 659 509 713 520 768 527 c 1xb4
 773 519.999 l 1xd4
EndSplineSet
Fore
SplineSet
773 519.999 m 1xec
 722.056524055 482.723285894 678.443793814 420.442329896 658 354 c 1
 649 354 l 1
 644 387 633 430 624 459 c 1
 569 428 537 364 526 293 c 1
 526 287 l 1
 548 281 569 271 569 244 c 0
 569 217 548 207 525 202 c 1
 525 160 l 1
 534 105 553 66 582 35 c 0
 643 -32 696.703278008 -86.0331333664 740 -181 c 24
 781.220703125 -271.4140625 782 -335 794 -430 c 1
 843 -430 l 1
 843 -454.999 l 1
 605 -454.999 l 1
 605 -430 l 1
 658 -430 l 1
 658 -311.255937521 640.5 -74 607 -37 c 0
 589.383442362 -17.5429064893 574.482454933 2.27325910586 559.744706161 22 c 0
 545.822800245 40.6347206075 533.201100726 60.1689650428 523 83 c 1
 515 -430 l 1
 570 -430 l 1
 570 -454.999 l 1
 328 -454.999 l 1
 328 -430 l 1
 383.001 -430 l 1xf4
 398 83 l 1
 383.249446435 52.4452819005 370.490204439 32.839408263 352.5 12 c 0
 339.018999875 -3.61605741375 320.64870816 -20.8017224528 307 -39 c 0
 281.5 -73 255.02366058 -222.318681988 250 -326 c 0
 248.106975218 -365.069380046 246 -400 246 -430 c 1
 289 -430 l 1
 289 -454.999 l 1
 61 -454.999 l 1
 61 -430 l 1
 109.002 -430 l 1
 122.416746315 -327.153611588 126.298642669 -246.601698905 161.5 -177 c 4
 190.081193508 -120.487985244 246.138978734 -71.5355245025 290 -21 c 1
 338 31 385 81 400 169 c 1
 401 203 l 1
 380 209 357 219 357 244 c 0
 357 272 381.006 281 404.006 287 c 1
 404.006 291 l 1
 396.006 349 380 397 346 434 c 0
 340 440 318 458 309 461 c 1
 300 432 289 387 284 354 c 1
 275 354 l 1
 260 404 230 449 199 484 c 0
 187 498 174 509.999 160 519.999 c 1
 165 527 l 1
 217 521 275 505 316 490 c 0
 330 485 354 466 364 456 c 0
 383 437 397 416 406 391 c 1
 409 494.999 l 1
 365 494.999 l 1
 365 519.999 l 1
 575 519.999 l 1
 575 494.999 l 1
 529 494.999 l 1
 529 390 l 1
 544 423 566 453 596 474 c 1
 617 490 l 1
 659 509 713 520 768 527 c 1
 773 519.999 l 1xec
EndSplineSet
Validated: 1
Colour: ffff
EndChar

StartChar: uni0436
Encoding: 1078 1078 17
Width: 730
Flags: W
HStem: -4 21G<67 87.5 346.5 363.77 659.067 669.032> 415 20G<248 280.725 422 440>
VStem: 29 105<0.2351 72.9298> 135.184 100.093<255.658 387.875> 304 101.786<-2.69583 245.554> 589 113<-2.35659 66.8261>
LayerCount: 2
Back
SplineSet
304 32 m 2xf8
 304 103.414987109 307.831834073 228.057004438 316.989 283 c 1
 259.989 238 218 190 177 130 c 0
 155 98 137 62 134 16 c 0
 134 11 134 5 133 -0 c 1
 116 -3 98 -4 77 -4 c 0
 57 -4 41 -3 30 -0 c 1
 29 2 29 5 29 7 c 0
 29 37.6249625032 44.3809157716 62.714225808 58 85 c 0
 73 111 94 137 116 157 c 0
 148 187 181 216 214 244 c 1
 201 244 187 244 174 244 c 0
 166 244 153 245 136 247 c 1
 134.434195693 276.594149394 135.243164062 327.821289062 137.077148438 364.400390625 c 0
 138.3671875 390.116210938 140.164255432 403.535534051 142 419 c 1
 185 426 225 431 271 435 c 1
 290.45075642 424.579951918 309.880608694 415.471634784 329 404 c 1
 332 422 l 1
 362 432 403 441 441 444 c 1
 439 434 437 423 435 412 c 2
 429 377 l 1
 444 387 460 396 476 404 c 0
 498.820566448 415.663845074 520.292867923 427.783247127 544.833374023 434.899993896 c 0
 594.833374023 449.399993896 621.859752592 447 670 447 c 0
 678 447 677 435 672 432 c 0
 664 427 655 420 646 411 c 2
 618 384 l 2
 602 368 585 347 571 333 c 1
 564 341 555 350 546 361 c 2
 521 392 l 1
 488 382 451 356 423 337 c 1
 481.653869981 291.380323348 539.801038516 249.601795755 602 181 c 16
 632.193006881 147.699246744 662.432617188 107.0703125 681.725585938 66.8330078125 c 0
 692.6953125 43.9560546875 700.127197766 21.2049616976 702 0 c 1
 688.772103715 -3.60760807763 665.314954357 -3 647 -3 c 0
 628 -3 604 -3 589 -0 c 1
 583 39 568 72 548 98 c 0
 516 138 484 180 447 215 c 1
 413 249 l 1
 409.333374023 208 406 128.192569681 406 104 c 0
 406 69.6657473427 405.096653857 32.3568844259 407 -0 c 1
 391.361212364 -3.60895099295 373.539095555 -4 354 -4 c 0
 339 -4 323 -3 304 -0 c 1
 304 32 l 2xf8
239 263 m 1
 251 272 264 282 277 291 c 2
 322 323 l 1
 323 335 l 1
 323 335 302.209960938 353.506835938 288 365 c 24
 275.686523438 374.958984375 255 390 255 390 c 1
 241 388 l 1
 237.598632812 378.587890625 236.090441105 352.128587812 235.833374023 332.399993896 c 0
 235.47317127 304.756260546 237.443912265 283.657376328 239 263 c 1
EndSplineSet
Fore
SplineSet
304 32 m 2
 304 103.414987109 307.831834073 228.057004438 316.989 283 c 1
 259.989 238 218 190 177 130 c 0
 155 98 137 62 134 16 c 0
 134 11 134 5 133 -0 c 1
 116 -3 98 -4 77 -4 c 0
 57 -4 41 -3 30 -0 c 1
 29 2 29 5 29 7 c 0
 29 37.6249625032 44.3809157716 62.714225808 58 85 c 0
 73 111 94 137 116 157 c 0
 148 187 181 216 214 244 c 1
 201 244 187 244 174 244 c 0
 166 244 153 245 136 247 c 1
 135.43957087 257.592270896 135.184001564 270.106110191 135.184001564 283.61991375 c 0
 135.184001564 329.142280132 138.084035974 386.01159116 142 419 c 1
 185 426 225 431 271 435 c 1
 290.45075642 424.579951918 309.880608694 415.471634784 329 404 c 1
 332 422 l 1
 362 432 403 441 441 444 c 1
 439 434 437 423 435 412 c 2
 429 377 l 1
 444 387 460 396 476 404 c 0
 498.820566448 415.663845074 520.292867923 427.783247127 544.833374023 434.899993896 c 0
 582.398164624 445.79378317 606.995600352 447.148448678 637.32166318 447.148448678 c 0
 647.360610171 447.148448678 658.027318859 447 670 447 c 0
 678 447 677 435 672 432 c 0
 664 427 655 420 646 411 c 2
 618 384 l 2
 602 368 585 347 571 333 c 1
 564 341 555 350 546 361 c 2
 521 392 l 1
 488 382 451 356 423 337 c 1
 508.462718885 270.528996422 627.105603336 180.748129455 681.725585938 66.8330078125 c 0
 692.6953125 43.9560546875 700.127197766 21.2049616976 702 0 c 1
 692.105161792 -2.69859223835 676.486585457 -3.03857693674 661.578085433 -3.03857693674 c 0
 656.556184581 -3.03857693674 651.614853734 -3 647 -3 c 0
 628 -3 604 -3 589 -0 c 1
 583 39 568 72 548 98 c 0
 516 138 484 180 447 215 c 1
 413 249 l 1
 409.333374023 208 406 128.192569681 406 104 c 0
 406 87.2801113496 405.785777167 69.8548126606 405.785777167 52.6394886831 c 0
 405.785777167 34.5031847053 406.023533958 16.5999227097 407 -0 c 1
 391.361212364 -3.60895099295 373.539095555 -4 354 -4 c 0
 339 -4 323 -3 304 -0 c 1
 304 32 l 2
239 263 m 1
 251 272 264 282 277 291 c 2
 322 323 l 1
 323 335 l 1
 319.923612261 339.01962191 261.862584291 386.596071237 255 390 c 1
 241 388 l 1
 236.669569484 376.017028624 235.276786382 356.769810713 235.276786382 336.316210004 c 0
 235.276786382 309.345140214 237.698597608 280.276377398 239 263 c 1
EndSplineSet
Validated: 1
Colour: ffff
EndChar

StartChar: uni0404
Encoding: 1028 1028 18
Width: 688
Flags: W
HStem: -465 24<280.359 364.88> -203 25<401 446 560.974 611> -47.0039 25.0039<401 450 565.994 611> 60.9961 57.0039<315.448 410.556> 240 25<401 446 561.249 611> 504.993 24.007<280.983 363.132>
VStem: 65 129<-185.337 247.125> 450 118<-22 21.1081 265 324.871>
LayerCount: 2
Back
SplineSet
392 118 m 0
 482.535527618 118 556.64481408 68.8414873598 568 -22 c 1
 611 -22 l 1
 611 -47.0039 l 1
 401 -47.0039 l 1
 401 -22 l 1
 450 -22 l 1
 441 12 420 39 391 53 c 0
 382 58 372 60.9961 361 60.9961 c 0
 316 60.9961 278 43 257 16 c 0
 225 -27 204 -70 194 -128 c 1
 194 -237 210 -354 263 -415 c 0
 279 -432 299 -441 323 -441 c 0
 370 -441 394 -406 409 -370 c 0
 430 -325 446 -263 446 -203 c 1
 401 -203 l 1
 401 -178 l 1
 611 -178 l 1
 611 -203 l 1
 564 -203 l 1
 543 -287 511 -352 468 -397 c 0
 425 -442 376 -465 323 -465 c 0
 286 -465 251 -454 220 -431 c 0
 149 -379 107 -284 84 -176 c 0
 71 -115 65 -45 65 32 c 0
 65 178 89 305 138 396 c 0
 161 439 189 472 220 495 c 0
 251 518 286 529 323 529 c 0
 387 529 434 497 468 460 c 0
 514 411 545 343 564 265 c 1
 611 265 l 1
 611 240 l 1
 401 240 l 1
 401 265 l 1
 446 265 l 1
 437 351 423 441 374 485 c 0
 360 498 343 504.993 323 504.993 c 0
 273 504.993 248 465 232 425 c 0
 191 327 191 177 191 40 c 2
 191 -47.0039 l 1
 219.927897828 19.7527872964 269.579294469 81.4723093743 341 108 c 0
 358 115 375 118 392 118 c 0
EndSplineSet
Fore
SplineSet
392 118 m 0
 482.535527618 118 556.64481408 68.8414873598 568 -22 c 1
 611 -22 l 1
 611 -47.0039 l 1
 401 -47.0039 l 1
 401 -22 l 1
 450 -22 l 1
 441 12 420 39 391 53 c 0
 382 58 372 60.9961 361 60.9961 c 0
 316 60.9961 278 43 257 16 c 0
 225 -27 204 -70 194 -128 c 1
 194 -237 210 -354 263 -415 c 0
 279 -432 299 -441 323 -441 c 0
 370 -441 394 -406 409 -370 c 0
 430 -325 446 -263 446 -203 c 1
 401 -203 l 1
 401 -178 l 1
 611 -178 l 1
 611 -203 l 1
 564 -203 l 1
 543 -287 511 -352 468 -397 c 0
 425 -442 376 -465 323 -465 c 0
 286 -465 251 -454 220 -431 c 0
 149 -379 107 -284 84 -176 c 0
 71 -115 65 -45 65 32 c 0
 65 178 89 305 138 396 c 0
 161 439 189 472 220 495 c 0
 251 518 286 529 323 529 c 0
 387 529 434 497 468 460 c 0
 514 411 545 343 564 265 c 1
 611 265 l 1
 611 240 l 1
 401 240 l 1
 401 265 l 1
 446 265 l 1
 437 351 423 441 374 485 c 0
 360 498 343 504.993 323 504.993 c 0
 273 504.993 248 465 232 425 c 0
 191 327 191 177 191 40 c 2
 191 -47.0039 l 1
 219.927897828 19.7527872964 269.579294469 81.4723093743 341 108 c 0
 358 115 375 118 392 118 c 0
EndSplineSet
Validated: 1
Colour: ffff
EndChar

StartChar: uni0454
Encoding: 1108 1108 19
Width: 514
Flags: W
HStem: 400.996 42.004<224.141 288.688>
VStem: 63.0049 100.995<124.247 289.775>
LayerCount: 2
Back
SplineSet
183 92 m 1
 204 23 242 -57 278 -104 c 1
 293 -98 l 1
 334 -78 356 -65 386 -35 c 1
 396 -35 407 -46 407 -57 c 1
 374 -90 350 -104 304 -125 c 1
 270 -142 237 -147 192 -153 c 1
 138 -93 95 -15 74 78 c 0
 67 109 63.0049 142 63.0049 175 c 0
 63.0049 287 112 358 180 408 c 0
 217 434 253 443 311 443 c 2
 334 443 l 2
 342 443 350 443 359 442 c 1
 376 428 394 415.996 411 400.996 c 1
 428 384 l 1
 454 394 l 1
 459 391 465 382 465 373 c 0
 465 371 465 368 464 366 c 1
 343 322 l 2
 340 321 339 320 338 320 c 0
 320 349 299 378 269 393 c 0
 259 398 248 400.996 236 400.996 c 0
 231 400.996 227 401.996 224 400.996 c 1
 191 374.996 176 315 169 264 c 0
 166 245 164 226 164 209 c 0
 164 178 168 150 174 123 c 1
 219 153 283 190 334 214 c 1
 371 207 405 184 433 166 c 1
 455 176 l 1
 464 172 469 166 469 157 c 0
 469 155 469 152 468 149 c 1
 343 90 l 1
 327 106 304 125 282 135 c 0
 274 138 267 140 260 140 c 1
 234 124 209 108 183 92 c 1
EndSplineSet
Fore
SplineSet
183 92 m 1
 204 23 242 -57 278 -104 c 1
 293 -98 l 1
 334 -78 356 -65 386 -35 c 1
 396 -35 407 -46 407 -57 c 1
 374 -90 350 -104 304 -125 c 1
 270 -142 237 -147 192 -153 c 1
 138 -93 95 -15 74 78 c 0
 67 109 63.0049 142 63.0049 175 c 0
 63.0049 287 112 358 180 408 c 0
 217 434 253 443 311 443 c 2
 334 443 l 2
 342 443 350 443 359 442 c 1
 376 428 394 415.996 411 400.996 c 1
 428 384 l 1
 454 394 l 1
 459 391 465 382 465 373 c 0
 465 371 465 368 464 366 c 1
 343 322 l 2
 340 321 339 320 338 320 c 0
 320 349 299 378 269 393 c 0
 259 398 248 400.996 236 400.996 c 0
 231 400.996 227 401.996 224 400.996 c 1
 191 374.996 176 315 169 264 c 0
 166 245 164 226 164 209 c 0
 164 178 168 150 174 123 c 1
 219 153 283 190 334 214 c 1
 371 207 405 184 433 166 c 1
 455 176 l 1
 464 172 469 166 469 157 c 0
 469 155 469 152 468 149 c 1
 343 90 l 1
 327 106 304 125 282 135 c 0
 274 138 267 140 260 140 c 1
 234 124 209 108 183 92 c 1
EndSplineSet
Validated: 1
Colour: ffff
EndChar

StartChar: uni0405
Encoding: 1029 1029 20
Width: 829
Flags: W
HStem: -465.007 23.007<408.888 518.861> -383.007 59.007<157.5 268.454> 24.9961 44.999<296.249 367.829> 69.9951 44.0049<417.252 532.138> 506.999 24.001<321.429 444.359>
VStem: 67.998 120.002<-466.486 -414.35> 102.997 141.003<137.91 372.445> 576.996 146.004<-294.226 -29.1092> 585 36<236.406 376.062> 595.997 25.003<232.062 262 501.072 530.769>
DStem2: 315 -51 337 -61 0.49346 0.869768<-2.83405 110.145 137.999 152.256 175.438 287.784>
LayerCount: 2
Back
SplineSet
369 45 m 1xdd
 344 36 320 24.9961 285 24.9961 c 0
 282 23.9961 277 23.9961 271 24.9961 c 0xed
 218 30.9961 198 41.9951 169 69.9951 c 0
 127 111.995 102.997 177 102.997 260 c 2
 102.997 279 l 2
 102.997 350 144 421 184 459 c 0
 226 499 286 531 363 531 c 0
 415 531 451 524 483 505 c 2
 518 484 l 2
 525 479 532 477 540 477 c 0
 566 477 593 504 597 527 c 1
 602 529 607 531 611 531 c 0
 614 531 617 530 621 527 c 1
 621 236 l 1
 614 229 604.997 229 595.997 236 c 1xda40
 592 262 l 2
 590 276 585 294 585 316 c 0
 585 338 576 359 565 380 c 0
 541 423 514 454 484 475 c 0
 454 496 417 506.999 374 506.999 c 0
 334 506.999 301 487 280 466 c 1
 247 430 244 354 244 286 c 2
 244 268 l 2
 244 229 251 155 262 127 c 0
 268 111 281 94 296 84 c 0
 301 81 326 69.9951 343 69.9951 c 0xea80
 352 70.9951 361 72 370 74 c 0
 381 77 386 78 387 78 c 2
 453 194 l 1
 466 196 473 193 476 184 c 1
 422 90 l 1
 456 101 472 106 516 113 c 0
 520 114 524 114 527 114 c 0
 582 114 618 87 648 58 c 0
 700 5 723 -72 723 -176 c 0
 723 -275 686 -347 634 -395 c 0
 594 -432 535 -465.007 467 -465.007 c 0
 413 -465.007 387 -454 351 -429 c 0
 333 -416 317 -406 302 -397 c 0
 288 -388 273 -383.007 258 -383.007 c 0
 207.564571267 -383.007 192.942018222 -417.521836005 188 -462 c 1
 180 -464 105 -479 77 -479 c 2
 67.998 -479 l 1
 60.998 -458 60 -442 60 -413 c 0
 60 -372 92 -346 122 -333 c 0
 135 -327 150 -324 165 -324 c 0
 219 -324 249 -334 280 -352 c 0
 323.758992359 -378.255395416 362.985013701 -410.993443494 411 -432 c 0
 427 -439 446 -442 467 -442 c 0
 518 -442 558 -414 566 -371 c 0
 569 -356 572 -333 572 -303 c 0
 572 -285 576.996 -182 576.996 -144 c 2
 576.996 -40 l 2
 576.996 -5 550 36 528 52 c 0
 510 64 489 69.9951 461 69.9951 c 0
 438 69.9951 422 64 404 58 c 1
 337 -61 l 1
 324 -61 320 -59 315 -51 c 1
 369 45 l 1xdd
EndSplineSet
Fore
SplineSet
369 45 m 1xdd
 344 36 320 24.9961 285 24.9961 c 0
 282 23.9961 277 23.9961 271 24.9961 c 0xed
 218 30.9961 198 41.9951 169 69.9951 c 0
 127 111.995 102.997 177 102.997 260 c 2
 102.997 279 l 2
 102.997 350 144 421 184 459 c 0
 226 499 286 531 363 531 c 0
 415 531 451 524 483 505 c 2
 518 484 l 2
 525 479 532 477 540 477 c 0
 566 477 593 504 597 527 c 1
 602 529 607 531 611 531 c 0
 614 531 617 530 621 527 c 1
 621 236 l 1
 614 229 604.997 229 595.997 236 c 1xda40
 592 262 l 2
 590 276 585 294 585 316 c 0
 585 338 576 359 565 380 c 0
 541 423 514 454 484 475 c 0
 454 496 417 506.999 374 506.999 c 0
 334 506.999 301 487 280 466 c 1
 247 430 244 354 244 286 c 2
 244 268 l 2
 244 229 251 155 262 127 c 0
 268 111 281 94 296 84 c 0
 301 81 326 69.9951 343 69.9951 c 0xea80
 352 70.9951 361 72 370 74 c 0
 381 77 386 78 387 78 c 2
 453 194 l 1
 466 196 473 193 476 184 c 1
 422 90 l 1
 456 101 472 106 516 113 c 0
 520 114 524 114 527 114 c 0
 582 114 618 87 648 58 c 0
 700 5 723 -72 723 -176 c 0
 723 -275 686 -347 634 -395 c 0
 594 -432 535 -465.007 467 -465.007 c 0
 413 -465.007 387 -454 351 -429 c 0
 333 -416 317 -406 302 -397 c 0
 288 -388 273 -383.007 258 -383.007 c 0
 207.564571267 -383.007 192.942018222 -417.521836005 188 -462 c 1
 180 -464 105 -479 77 -479 c 2
 67.998 -479 l 1
 60.998 -458 60 -442 60 -413 c 0
 60 -372 92 -346 122 -333 c 0
 135 -327 150 -324 165 -324 c 0
 219 -324 249 -334 280 -352 c 0
 323.758992359 -378.255395416 362.985013701 -410.993443494 411 -432 c 0
 427 -439 446 -442 467 -442 c 0
 518 -442 558 -414 566 -371 c 0
 569 -356 572 -333 572 -303 c 0
 572 -285 576.996 -182 576.996 -144 c 2
 576.996 -40 l 2
 576.996 -5 550 36 528 52 c 0
 510 64 489 69.9951 461 69.9951 c 0
 438 69.9951 422 64 404 58 c 1
 337 -61 l 1
 324 -61 320 -59 315 -51 c 1
 369 45 l 1xdd
EndSplineSet
Validated: 1
Colour: ffff
EndChar

StartChar: uni0455
Encoding: 1109 1109 21
Width: 591
Flags: W
HStem: -7 106<287.513 401.797> 17.9971 81.0029<171.043 372.891> 250.997 49.003<338.953 408.49> 401.997 41.003<184.871 263.103>
VStem: 54.998 100.002<243.381 323.408>
DStem2: 305 263 263 210 0.909474 0.41576<-101.289 64.2627>
LayerCount: 2
Back
SplineSet
284 340 m 1x78
 277 343 279 346 276 352 c 1
 276 372 267 381 259 392 c 0
 254 399 244 401.997 229 401.997 c 0
 181 401.997 155 349 155 301 c 0
 155 267 165 252 184 237 c 0
 189 233 198 232 207 232 c 0
 224 232 244 236 253 239 c 1
 272 248 290 256 305 263 c 2
 358 287 l 2
 374 294 402 300 424 300 c 0
 480 300 508 271 529 233 c 0
 541 213 552 186 552 156 c 0
 552 119 540 102 526 79 c 1
 468 34 l 1
 452 20 433 8 414 -3 c 0
 409 -6 404 -7 398 -7 c 0xb8
 383 -7 365 -2 355 0 c 2
 326 8 l 1
 306 12 288 14.9971 266 17.9971 c 1
 192 17.9971 137 10 71 -4 c 0
 69 -5 66 -5 63 -5 c 0
 54 -5 45 -1 39 0 c 1
 36 4 32 9.9971 32 17.9971 c 0
 32 19.9971 32 23 33 25 c 1
 127 62 l 2
 162 75 199 87 239 96 c 0
 249 98 259 99 268 99 c 0
 304 99 341 91 370 84 c 2
 425 72 l 1
 432 75 445 91 449 96 c 1
 446 150 433 200 406 233 c 0
 397 244 382 250.997 363 250.997 c 0
 358 251.997 352 251 347 248 c 0
 332 242 318 236 305 230 c 2
 263 210 l 2
 224 191 162 159 110 156 c 1
 80 172 54.998 202 54.998 245 c 2
 55 250.997 l 2
 55 303.997 95 358 127 386 c 0
 159 415 206 443 260 443 c 0
 275 443 288 442 298 441 c 2
 335 436 l 1
 346 436 356 434 366 434 c 0
 378 434 389 435 399 440 c 0
 404 443 408 445 411 446 c 1
 420 442 425 435 427 425 c 1
 402 413 374 396 350 381 c 0
 329 367 306 354 284 340 c 1x78
EndSplineSet
Fore
SplineSet
284 340 m 1x78
 277 343 279 346 276 352 c 1
 276 372 267 381 259 392 c 0
 254 399 244 401.997 229 401.997 c 0
 181 401.997 155 349 155 301 c 0
 155 267 165 252 184 237 c 0
 189 233 198 232 207 232 c 0
 224 232 244 236 253 239 c 1
 272 248 290 256 305 263 c 2
 358 287 l 2
 374 294 402 300 424 300 c 0
 480 300 508 271 529 233 c 0
 541 213 552 186 552 156 c 0
 552 119 540 102 526 79 c 1
 468 34 l 1
 452 20 433 8 414 -3 c 0
 409 -6 404 -7 398 -7 c 0xb8
 383 -7 365 -2 355 0 c 2
 326 8 l 1
 306 12 288 14.9971 266 17.9971 c 1
 192 17.9971 137 10 71 -4 c 0
 69 -5 66 -5 63 -5 c 0
 54 -5 45 -1 39 0 c 1
 36 4 32 9.9971 32 17.9971 c 0
 32 19.9971 32 23 33 25 c 1
 127 62 l 2
 162 75 199 87 239 96 c 0
 249 98 259 99 268 99 c 0
 304 99 341 91 370 84 c 2
 425 72 l 1
 432 75 445 91 449 96 c 1
 446 150 433 200 406 233 c 0
 397 244 382 250.997 363 250.997 c 0
 358 251.997 352 251 347 248 c 0
 332 242 318 236 305 230 c 2
 263 210 l 2
 224 191 162 159 110 156 c 1
 80 172 54.998 202 54.998 245 c 2
 55 250.997 l 2
 55 303.997 95 358 127 386 c 0
 159 415 206 443 260 443 c 0
 275 443 288 442 298 441 c 2
 335 436 l 1
 346 436 356 434 366 434 c 0
 378 434 389 435 399 440 c 0
 404 443 408 445 411 446 c 1
 420 442 425 435 427 425 c 1
 402 413 374 396 350 381 c 0
 329 367 306 354 284 340 c 1x78
EndSplineSet
Validated: 1
Colour: ffff
EndChar

StartChar: uni0417
Encoding: 1047 1047 22
Width: 817
Flags: W
HStem: -486 25<19 59.8198 201.863 240> -464 21G<476.813 511.5> 502.043 28.957<411.24 549.386>
VStem: 649.014 108.986<-285.472 -195.306> 653.008 123.992<238.631 398.384>
LayerCount: 2
Back
SplineSet
173 -385 m 0x70
 161.0390625 -414.680664062 198 -447 217 -461 c 1
 240 -461 l 1
 240 -486 l 1
 19 -486 l 1
 19 -461 l 1
 51 -461 l 1
 76.9680966237 -428.299433881 110.895039563 -383.728274922 163 -343 c 0
 208.680220562 -307.293676342 271.108841325 -273 317 -273 c 0
 338 -273 358 -278 374 -285 c 0
 388 -291 405 -299 425 -309 c 0
 465 -330 505 -351 545 -372 c 0
 564 -381 579 -388 592 -393 c 1
 617 -377 634.014 -364 649.014 -339 c 1xb0
 649.014 -245.978212284 625.201278144 -158.777643234 579 -100 c 0
 551.249996714 -64.6962192733 515 -26 482 0 c 1
 457 -16 439.865234375 -42 406 -42 c 24
 378.072265625 -42 359 -24 348 0 c 0
 339.518639892 16.962720216 337.679149486 33.0089207229 340.456875229 47.9999946989 c 0
 347.455379379 85.7701358619 383.763620928 116.842413952 417 139 c 0
 433.649788296 150.892705926 456.080374421 170.983925116 481 166 c 0
 522.973282901 152.0089057 549.571252057 125.428747943 577 98 c 1
 581 101 584 105 588 109 c 1
 613 160 653.008 205 653.008 281 c 0
 653.008 375 621 448 559 483 c 0
 537 496 509 502.043 475 502.043 c 0
 363 502.043 312 445 297 350 c 0
 292 321 286 291 286 259 c 1
 255 256 239 253 212 253 c 0
 187 253 172 256 147 259 c 1
 151.914263499 314.039751193 159.16796875 344.302734375 179 372 c 0
 213.823242188 420.633789062 258.267506828 458.154245602 317.999940399 485.867880273 c 0
 380.621549271 514.92198517 456.74909792 531 546 531 c 0
 619 531 676 499 714 461 c 0
 746 429 777 380 777 323 c 0xa8
 777 264.843726709 747.636838559 216.103410938 709.639352537 175 c 0
 673.986709495 136.43310015 630.732517359 104.589633785 597 78 c 1
 635.189767274 38.2189924231 678.980293865 -12.7093289452 711.241485361 -69.999994 c 0
 738.839284504 -119.009227496 758 -172.674377871 758 -228 c 0
 758 -247 758 -275 747 -286 c 0
 685.687917943 -350.782577268 628.874950161 -414.649613858 544 -455 c 0
 532 -461 519 -464 504 -464 c 0
 449.626609927 -464 399.973786412 -435.969337774 351 -406.183245468 c 0
 308.695011941 -380.453148376 266.896722002 -353.41314772 223 -342 c 1
 206.383537943 -350.615943289 182 -362.666992188 173 -385 c 0x70
EndSplineSet
Fore
SplineSet
777 323 m 0xa8
 777 208.042900799 663.328254012 130.283200955 597 78 c 1
 635.189767274 38.2189924231 678.980293865 -12.7093289452 711.241485361 -69.999994 c 0
 738.839284504 -119.009227496 758 -172.674377871 758 -228 c 0
 758 -247 758 -275 747 -286 c 0
 685.687917943 -350.782577268 628.874950161 -414.649613858 544 -455 c 0
 532 -461 519 -464 504 -464 c 0x70
 449.626609927 -464 399.973786412 -435.969337774 351 -406.183245468 c 0
 308.695011941 -380.453148376 266.896722002 -353.41314772 223 -342 c 1
 206.383537943 -350.615943289 182 -362.666992188 173 -385 c 0
 171.389624035 -388.996093788 170.666051188 -393.04001858 170.666051188 -397.080625492 c 0
 170.666051188 -423.051300282 200.558089058 -448.884907727 217 -461 c 1
 240 -461 l 1
 240 -486 l 1
 19 -486 l 1
 19 -461 l 1
 51 -461 l 1
 76.9680966237 -428.299433881 110.895039563 -383.728274922 163 -343 c 0
 208.680220562 -307.293676342 271.108841325 -273 317 -273 c 0
 338 -273 358 -278 374 -285 c 0
 388 -291 405 -299 425 -309 c 0
 465 -330 505 -351 545 -372 c 0
 564 -381 579 -388 592 -393 c 1
 617 -377 634.014 -364 649.014 -339 c 1xb0
 649.014 -245.978212284 625.201278144 -158.777643234 579 -100 c 0
 551.249996714 -64.6962192733 515 -26 482 0 c 1
 457 -16 439.865234375 -42 406 -42 c 16
 370.073671894 -42 339.224809389 -5.00415584317 339.224809389 34.4931670664 c 0
 339.224809389 38.9800178875 339.622904729 43.4991495435 340.456875229 47.9999946989 c 0
 347.455379379 85.7701358619 383.763620928 116.842413952 417 139 c 0
 431.868727453 149.620519609 451.347635636 166.779345693 473.09237048 166.779345693 c 0
 475.697078644 166.779345693 478.334298277 166.533140345 481 166 c 0
 522.973282901 152.0089057 549.571252057 125.428747943 577 98 c 1
 581 101 584 105 588 109 c 1
 613 160 653.008 205 653.008 281 c 0
 653.008 375 621 448 559 483 c 0
 537 496 509 502.043 475 502.043 c 0
 363 502.043 312 445 297 350 c 0
 292 321 286 291 286 259 c 1
 255 256 239 253 212 253 c 0
 187 253 172 256 147 259 c 1
 151.914263499 314.039751193 159.16796875 344.302734375 179 372 c 0
 250.426441975 471.753448967 374.083058794 531 546 531 c 0
 619 531 676 499 714 461 c 0
 746 429 777 380 777 323 c 0xa8
EndSplineSet
Validated: 1
Colour: ffff
EndChar

StartChar: uni0437
Encoding: 1079 1079 23
Width: 556
Flags: W
HStem: -181.992 48.992<202.177 299.194> -106 30<11 41> 416.001 28.999<224.965 351.161>
VStem: 357.997 96.2908<-66.9439 45.1365> 427.998 99.002<252.425 357.51>
DStem2: 11 -76 13 -106 0.990911 0.134518<-6.93935 74.9904>
LayerCount: 2
Back
SplineSet
351 179 m 1xe0
 392 202 427.998 232 427.998 291 c 0
 427.998 351 384 390 339 407 c 0
 322 413 305 416.001 288 416.001 c 0
 242 416.001 205 395 181 371 c 0
 165 355 155.516648189 334.549944568 148 312 c 0
 145 303 142.01953125 294.036132812 130.928710938 288.299804688 c 24
 117.65234375 281.432617188 101 282 90 282 c 0
 77.7939048795 282 66.986328125 281.483398438 56 289 c 24
 48.486328125 294.141601562 50 305 52 312 c 0
 75 387 154 421 237 436 c 0
 269.495953885 442.499190777 300.517289779 445 335 445 c 0
 384 445 423 445 459 428 c 0
 491 414 527 376 527 331 c 0xd0
 527 298.842963268 521.99652118 274.478207737 506.428588867 253 c 4
 474.832434758 209.408548803 415.094625605 182.385903114 373 159 c 1
 406.138306265 124.757083527 458.460627684 54.1941406969 454.022826582 -10.9999976494 c 0
 449.704896171 -74.4331588089 389.154353242 -111.308404728 338.928590826 -140.180966423 c 0
 297.235175291 -164.148660578 251.993578175 -181.992 219 -181.992 c 0
 185.353974891 -181.992 173.726124197 -169.346272144 154 -155 c 0
 128 -136 99 -114 72 -97 c 1
 55 -99 29 -103 13 -106 c 1
 8 -102 6 -96 6 -91 c 0
 6 -86 8 -81 11 -76 c 1
 28 -73 44 -72 61 -68 c 0
 91 -60 114 -50 142 -38 c 1
 155.928588867 -50.5 177.850978528 -69.4490904341 194 -85 c 0
 210.780342126 -101.780342126 238.774061334 -133 269 -133 c 0
 309.114195677 -129.833089815 333.449036207 -114.045484354 346.301789985 -86.5000103505 c 0
 354.465689208 -69.0034895521 357.997 -46.7631127841 357.997 -20 c 0
 357.997 37.6067127212 307.787844976 83.6928179513 276 110 c 1
 265 105 253 100 242 96 c 2
 211 85 l 1
 181 88 141 115.725437663 141 145 c 0
 141 153.402224253 155.487448183 164.753971029 164.928588867 173.5 c 0
 193.584858156 200.046428 245.559216814 222.304118259 267 224 c 0
 274.049052092 224.557552335 280 223 285 221 c 0
 309 210 331 196 351 179 c 1xe0
EndSplineSet
Fore
SplineSet
269 -133 m 0xf0
 334.384783119 -127.838043438 357.997 -89.2216580489 357.997 -20 c 0xf0
 357.997 37.6067127212 307.787844976 83.6928179513 276 110 c 1
 265 105 253 100 242 96 c 2
 211 85 l 1
 181 88 141 115.725437663 141 145 c 0
 141 153.402224253 155.487448183 164.753971029 164.928588867 173.5 c 0
 193.584858156 200.046428 245.559216814 222.304118259 267 224 c 0
 274.049052092 224.557552335 280 223 285 221 c 0
 309 210 331 196 351 179 c 1
 392 202 427.998 232 427.998 291 c 0
 427.998 351 384 390 339 407 c 0
 322 413 305 416.001 288 416.001 c 0
 242 416.001 205 395 181 371 c 0
 165 355 155.516648189 334.549944568 148 312 c 0
 145 303 142.01953125 294.036132812 130.928710938 288.299804688 c 16
 119.535079735 282.406460472 105.655081562 281.988589714 94.9950304252 281.988589714 c 0
 93.233514582 281.988589714 91.5599218929 282 90 282 c 0
 88.5249516131 282 87.0703265869 281.992455773 85.6333414004 281.992455773 c 0
 75.1792062481 281.992455773 65.6586827627 282.391743892 56 289 c 8
 48.486328125 294.141601562 50 305 52 312 c 0
 75 387 154 421 237 436 c 0
 269.495953885 442.499190777 300.517289779 445 335 445 c 0
 384 445 423 445 459 428 c 0
 491 414 527 376 527 331 c 0xe8
 527 298.842963268 521.99652118 274.478207737 506.428588867 253 c 4
 474.832434758 209.408548803 415.094625605 182.385903114 373 159 c 1
 404.807066922 126.132697515 454.28777933 59.8048673583 454.28777933 -3.1197278121 c 0
 454.28777933 -5.75334684292 454.201102906 -8.38100435408 454.022826582 -10.9999976494 c 0
 449.704896171 -74.4331588089 389.154353242 -111.308404728 338.928590826 -140.180966423 c 0
 297.235175291 -164.148660578 251.993578175 -181.992 219 -181.992 c 0
 185.353974891 -181.992 173.726124197 -169.346272144 154 -155 c 0
 128 -136 99 -114 72 -97 c 1
 55 -99 29 -103 13 -106 c 1
 8 -102 6 -96 6 -91 c 0
 6 -86 8 -81 11 -76 c 1
 28 -73 44 -72 61 -68 c 0
 91 -60 114 -50 142 -38 c 1
 155.928588867 -50.5 177.850978528 -69.4490904341 194 -85 c 0
 210.780342126 -101.780342126 238.774061334 -133 269 -133 c 0xf0
EndSplineSet
Validated: 1
Colour: ffff
EndChar

StartChar: uniA640
Encoding: 42560 42560 24
Width: 664
Flags: W
HStem: -42 70<159.169 326.78> -42 60<159.084 300.961> 483 32<230.264 249>
VStem: 40 118<18 97.5888> 500 104<-366.076 -188.25>
DStem2: 233 515 359 493 0.995331 0.096517<123.288 229.855>
LayerCount: 2
Back
SplineSet
184 -42 m 0
 135 -42 90 -57 48 -62 c 1
 40 -59 l 1
 40 36.8799036253 60.4765794387 114.115793528 91.990218713 178.5 c 0
 140.610382179 277.833834978 215.502301971 346.576525165 282 406 c 1
 249 483 l 1
 237 483 l 1
 233 488 230 495 230 503 c 0
 230 507 231 511 233 515 c 1
 563 547 l 1
 567 543 568 538 568 532 c 1
 507.281760447 495.569056268 451.621571512 461.005528682 400.5 421.936179172 c 0
 339.498393072 375.3160728 284.95924417 322.28020534 236 252 c 0
 191.754717452 187.96077526 158 95.5 158 18 c 1
 184 25 260 28 303 28 c 0
 474.973953206 28 604 -53.2604663756 604 -227 c 0
 604 -341.976001732 562.352699697 -438.878423032 506.529096633 -514.999981411 c 4
 462.053668341 -575.647068402 408.57979374 -623.103446759 360 -656 c 0
 358.829008068 -656.792955166 357 -658 354 -658 c 0
 346 -658 337 -650 342 -645 c 0
 376.060354481 -608.936095255 406.978723302 -575.107773576 432.251653316 -537 c 0
 473.728545628 -474.459090815 500 -400.391895991 500 -286 c 0
 500 -200 459 -142 407 -104 c 0
 353 -65 275 -42 184 -42 c 0
401 474 m 1
 422 484 444 494 465 504 c 1
 359 493 l 1
 374 458 l 1
 401 474 l 1
EndSplineSet
Fore
SplineSet
184 -42 m 0xb8
 135 -42 90 -57 48 -62 c 1
 40 -59 l 1
 40 36.8799036253 60.4765794387 114.115793528 91.990218713 178.5 c 0
 140.610382179 277.833834978 215.502301971 346.576525165 282 406 c 1
 249 483 l 1
 237 483 l 1
 233 488 230 495 230 503 c 0
 230 507 231 511 233 515 c 1
 563 547 l 1
 567 543 568 538 568 532 c 1
 433.688761104 451.413256662 325.50077271 380.476915663 236 252 c 0
 191.754717452 187.96077526 158 95.5 158 18 c 1x78
 184 25 260 28 303 28 c 0
 474.973953206 28 604 -53.2604663756 604 -227 c 0
 604 -425.428840876 478.601939967 -575.686875299 360 -656 c 0
 358.829008068 -656.792955166 357 -658 354 -658 c 0
 346 -658 337 -650 342 -645 c 0
 430.19893594 -551.612891357 500 -471.547462111 500 -286 c 0
 500 -200 459 -142 407 -104 c 0
 353 -65 275 -42 184 -42 c 0xb8
401 474 m 1
 422 484 444 494 465 504 c 1
 359 493 l 1
 374 458 l 1
 401 474 l 1
EndSplineSet
Validated: 1
Colour: ffff
EndChar

StartChar: uniA641
Encoding: 42561 42561 25
Width: 600
Flags: W
HStem: -7 55<152.977 297.657> 398 29<218.212 236> 442 14<515.913 524.706>
VStem: 46 107<48.0007 122.661> 464 94<-306.117 -134.09>
DStem2: 221 427 336 407 0.99536 0.0962182<112.542 209.059>
LayerCount: 2
Back
SplineSet
177 -7 m 0
 132 -7 91 -20 53 -25 c 1
 45.998 -22 l 1
 45.998 35.3995266714 45.8547611485 58.5642834455 65 116 c 0
 83 170 130 218 172 253 c 0
 193 270 214 287 236 302 c 1
 236 398 l 1
 225 398 l 1
 221 402 218 408 218 416 c 0
 218 420 219 424 221 427 c 1
 521 456 l 1
 524 452 526 447 526 442 c 1
 453.416272367 398.130714068 407.879526595 373.135008319 336 316 c 0
 286 277 248 242 222 211 c 0
 185.997458639 169.54252813 153 118.004734206 153 50 c 0
 152 49 152 48 153 48 c 0
 177 54 246 57 285 57 c 0
 405 57 492 13 534 -68 c 0
 550 -97 558 -133 558 -175 c 0
 558 -276.671502101 525.766693085 -358.037540295 482.100276525 -422.00000204 c 4
 438.242119024 -486.243325454 382.850224973 -532.929897287 337 -565 c 0
 335.167671463 -566.281628703 334 -567 332 -567 c 0
 324 -567 315 -560 320 -555 c 0
 401.787006363 -469.255557846 463.999 -394.762464007 463.999 -229 c 0
 463.999 -150 427 -97 379 -63 c 0
 330 -28 259 -7 177 -7 c 0
336 366 m 1
 353 375 369 384 385 393 c 2
 432 417 l 1
 336 407 l 1
 336 366 l 1
EndSplineSet
Fore
SplineSet
177 -7 m 0
 132 -7 91 -20 53 -25 c 1
 46 -22 l 1
 46 35 46 59 65 116 c 0
 83 170 130 218 172 253 c 0
 193 270 214 287 236 302 c 1
 236 398 l 1
 225 398 l 1
 221 402 218 408 218 416 c 0
 218 420 219 424 221 427 c 1
 521 456 l 1
 524 452 526 447 526 442 c 1
 453 398 408 373 336 316 c 0
 286 277 248 242 222 211 c 0
 186 170 153 118 153 50 c 0
 152 49 152 48 153 48 c 0
 177 54 246 57 285 57 c 0
 405 57 492 13 534 -68 c 0
 550 -97 558 -133 558 -175 c 0
 558 -364 443 -491 337 -565 c 0
 335 -566 334 -567 332 -567 c 0
 324 -567 315 -560 320 -555 c 0
 402 -469 464 -395 464 -229 c 0
 464 -150 427 -97 379 -63 c 0
 330 -28 259 -7 177 -7 c 0
336 366 m 1
 353 375 369 384 385 393 c 2
 432 417 l 1
 336 407 l 1
 336 366 l 1
EndSplineSet
Validated: 1
AlternateSubs2: "'salt' Stylistic Alternatives lookup 2-1" uniA641.salt
Colour: ffff
EndChar

StartChar: uni0418
Encoding: 1048 1048 26
Width: 712
Flags: W
HStem: -455 25<58 113 245 300 417 472 598 654> 495 24.998<85 139 259 315 410 465 580 635>
VStem: 113 132<-430 -180.962> 139 114<245.962 495> 467 113<135.278 179 208 495> 472 126<-430 -70.2778>
DStem2: 253 97 253 68 0.887692 0.460438<0 227.722>
LayerCount: 2
Back
SplineSet
259 495 m 5xd0
 253 97 l 5
 467 208 l 5
 465 495 l 5
 410 495 l 5
 410 519.998 l 5
 635 519.998 l 5
 635 495 l 5
 580 495 l 5xd8
 598 -430 l 5
 654 -430 l 5
 654 -455 l 5
 417 -455 l 5
 417 -430 l 5
 472 -430 l 5xc4
 467 179 l 5
 253 68 l 5xd8
 245 -430 l 5
 300 -430 l 5
 300 -455 l 5
 58 -455 l 5
 58 -430 l 5
 113 -430 l 5xe0
 139 495 l 5
 85 495 l 5
 85 519.998 l 5
 315 519.998 l 5
 315 495 l 5
 259 495 l 5xd0
EndSplineSet
Fore
SplineSet
259 495 m 5xd0
 253 97 l 5
 467 208 l 5
 465 495 l 5
 410 495 l 5
 410 519.998 l 5
 635 519.998 l 5
 635 495 l 5
 580 495 l 5xd8
 598 -430 l 5
 654 -430 l 5
 654 -455 l 5
 417 -455 l 5
 417 -430 l 5
 472 -430 l 5xc4
 467 179 l 5
 253 68 l 5xd8
 245 -430 l 5
 300 -430 l 5
 300 -455 l 5
 58 -455 l 5
 58 -430 l 5
 113 -430 l 5xe0
 139 495 l 5
 85 495 l 5
 85 519.998 l 5
 315 519.998 l 5
 315 495 l 5
 259 495 l 5xd0
EndSplineSet
Validated: 1
Colour: ffff
EndChar

StartChar: uni0438
Encoding: 1080 1080 27
Width: 460
Flags: W
HStem: -4 21G<86.5 102 331.5 352.5> 423 20G<204 210 422 439>
VStem: 46 100<-2.42538 205.9> 291.998 107.002<-2.42538 107.347> 291.998 100.002<1.05304 248.475>
DStem2: 173 241 168 209 0.952255 0.305303<0 123.037>
LayerCount: 2
Back
SplineSet
392 109 m 4xe8
 392 74 396 22 399 -0 c 5
 377 -3 359 -4 346 -4 c 6
 340 -4 l 6
 323 -4 306.998 -3 291.998 -0 c 5xf0
 291.998 38 291.998 76 291.998 114 c 4
 291.998 151 294 197 299 251 c 5
 168 209 l 5
 159 143 149 68 146 -0 c 5
 122 -3 106 -4 98 -4 c 6
 93 -4 l 6
 80 -4 64 -3 47 -0 c 5
 46 9 46 18 46 28 c 4
 46 63 53 123 56 148 c 4
 60 189 78 292 84 314 c 6
 101 382 l 6
 106 401 111 416 116 428 c 5
 144 437 186 443 222 443 c 5
 198 394 185 310 173 241 c 5
 302 283 l 5
 308 335 316 388 332 428 c 5
 359 435 406 443 438 443 c 4
 440 443 445 441 445 438 c 4
 445 437 445 437 444 436 c 4
 432 421 423 401 418 378 c 4
 402 294 392 210 392 109 c 4xe8
EndSplineSet
Fore
SplineSet
392 109 m 4xe8
 392 74 396 22 399 -0 c 5
 377 -3 359 -4 346 -4 c 6
 340 -4 l 6
 323 -4 306.998 -3 291.998 -0 c 5xf0
 291.998 38 291.998 76 291.998 114 c 4
 291.998 151 294 197 299 251 c 5
 168 209 l 5
 159 143 149 68 146 -0 c 5
 122 -3 106 -4 98 -4 c 6
 93 -4 l 6
 80 -4 64 -3 47 -0 c 5
 46 9 46 18 46 28 c 4
 46 63 53 123 56 148 c 4
 60 189 78 292 84 314 c 6
 101 382 l 6
 106 401 111 416 116 428 c 5
 144 437 186 443 222 443 c 5
 198 394 185 310 173 241 c 5
 302 283 l 5
 308 335 316 388 332 428 c 5
 359 435 406 443 438 443 c 4
 440 443 445 441 445 438 c 4
 445 437 445 437 444 436 c 4
 432 421 423 401 418 378 c 4
 402 294 392 210 392 109 c 4xe8
EndSplineSet
Validated: 1
Colour: ffff
EndChar

StartChar: uni0406
Encoding: 1030 1030 28
Width: 358
Flags: W
HStem: -455 25<58 113 245 300> 495 24.998<85 139 259 315>
VStem: 113 132<-430 -180.962> 139 120<245.962 495>
LayerCount: 2
Back
SplineSet
58 -455 m 1xe0
 58 -430 l 1
 113 -430 l 1xe0
 139 495 l 1
 85 495 l 1
 85 519.998 l 1
 315 519.998 l 1
 315 495 l 1
 259 495 l 1xd0
 245 -430 l 1
 300 -430 l 1
 300 -455 l 1
 58 -455 l 1xe0
EndSplineSet
Fore
SplineSet
58 -455 m 1xe0
 58 -430 l 1
 113 -430 l 1xe0
 139 495 l 1
 85 495 l 1
 85 519.998 l 1
 315 519.998 l 1
 315 495 l 1
 259 495 l 1xd0
 245 -430 l 1
 300 -430 l 1
 300 -455 l 1
 58 -455 l 1xe0
EndSplineSet
Validated: 1
Colour: ffff
EndChar

StartChar: uni0456
Encoding: 1110 1110 29
Width: 260
Flags: W
HStem: -2 21G<107.325 129.36> 425 20G<212 230>
VStem: 62.999 110.001<0 249.075>
LayerCount: 2
Back
SplineSet
81 220 m 28
 90.9140625 301.596679688 102.172516325 363.862581623 115 428 c 5
 144 436 195 442 229 445 c 5
 230 438 l 5
 212 402 202 360 195 325 c 4
 185 267 173 167 173 97 c 4
 173 66 174 33 176 -0 c 5
 176 -0 138.719726562 -2 120 -2 c 28
 94.6494140625 -2 62.999 -0 62.999 -0 c 5
 62.999 69.5160013949 70.6171875 134.541992188 81 220 c 28
EndSplineSet
Fore
SplineSet
62.999 -0 m 5
 62.999 129.536183573 92.5186279071 315.593139532 115 428 c 5
 144 436 195 442 229 445 c 5
 230 438 l 5
 212 402 202 360 195 325 c 4
 185 267 173 167 173 97 c 4
 173 66 174 33 176 -0 c 5
 176 -0 138.719726562 -2 120 -2 c 28
 94.6494140625 -2 62.999 -0 62.999 -0 c 5
EndSplineSet
Validated: 1
Colour: ffff
EndChar

StartChar: uni0419
Encoding: 1049 1049 30
Width: 712
Flags: W
HStem: -455 25<58 113 245 300 417 472 598 654> 495 24.998<85 139 259 315 410 465 580 635> 623.122 76.8777<355.946 439.148>
VStem: 113 132<-430 -180.962> 139 114<245.962 495> 298.961 117.039<669.868 729.983> 467 113<135.278 179 208 495> 472 126<-430 -70.2778>
DStem2: 253 97 253 68 0.887692 0.460438<0 227.722>
LayerCount: 2
Back
SplineSet
416 717 m 4xf8
 416 706.684570312 422.615234375 700 434 700 c 4
 447 700 464 707 472 710 c 4xf2
 487 716 506 726 521 730 c 4
 527 732 533 727 533 721 c 4
 533 719 533 717 531 715 c 4
 504 681 486 668 448 647 c 4
 416.516601562 628.544921875 349.146484375 606 312.06640625 643.080078125 c 4
 282.06640625 673.080078125 307.896484375 728.416992188 346 753 c 4
 377 774 431.56640625 802 466 802 c 4
 471 802 480 793 474 789 c 4
 457 776 441 763 429 747 c 4
 424 741 416 728 416 717 c 4xf8
259 495 m 1xec
 253 97 l 1
 467 208 l 1
 465 495 l 1
 410 495 l 1
 410 519.998 l 1
 635 519.998 l 1
 635 495 l 1
 580 495 l 1xee
 598 -430 l 1
 654 -430 l 1
 654 -455 l 1
 417 -455 l 1
 417 -430 l 1
 472 -430 l 1xe5
 467 179 l 1
 253 68 l 1xee
 245 -430 l 1
 300 -430 l 1
 300 -455 l 1
 58 -455 l 1
 58 -430 l 1
 113 -430 l 1xf4
 139 495 l 1
 85 495 l 1
 85 519.998 l 1
 315 519.998 l 1
 315 495 l 1
 259 495 l 1xec
EndSplineSet
Fore
SplineSet
416 717 m 4xe5
 416 706.684570312 422.615234375 700 434 700 c 4
 447 700 464 707 472 710 c 4
 487 716 506 726 521 730 c 4
 527 732 533 727 533 721 c 4
 533 719 533 717 531 715 c 4
 504 681 486 668 448 647 c 4
 428.914867203 635.812592215 396.642281791 623.122271304 365.923898238 623.122271304 c 0
 345.968329502 623.122271304 326.668662722 628.477821653 312.06640625 643.080078125 c 4
 302.917989635 652.22849474 298.961368716 663.733062121 298.961368716 676.003162501 c 0
 298.961368716 703.969862315 319.516045556 735.913512091 346 753 c 4
 377 774 431.56640625 802 466 802 c 4
 471 802 480 793 474 789 c 4
 457 776 441 763 429 747 c 4
 424 741 416 728 416 717 c 4xe5
259 495 m 1
 253 97 l 1
 467 208 l 1
 465 495 l 1
 410 495 l 1
 410 519.998 l 1
 635 519.998 l 1
 635 495 l 1
 580 495 l 1xee
 598 -430 l 1
 654 -430 l 1
 654 -455 l 1
 417 -455 l 1
 417 -430 l 1
 472 -430 l 1xe5
 467 179 l 1
 253 68 l 1xee
 245 -430 l 1
 300 -430 l 1
 300 -455 l 1
 58 -455 l 1
 58 -430 l 1
 113 -430 l 1xf4
 139 495 l 1xec
 85 495 l 1
 85 519.998 l 1
 315 519.998 l 1
 315 495 l 1
 259 495 l 1
EndSplineSet
Validated: 1
LCarets2: 1 0
Ligature2: "'ccmp' Glyph Composition/Decomposition lookup 0-1" uni0418 uni0306
Colour: ffff
EndChar

StartChar: uni0439
Encoding: 1081 1081 31
Width: 460
Flags: W
HStem: -4 21G<86.5 102 331.5 352.5> 423 20G<204 210 422 439> 643.122 76.8779<275.947 359.148>
VStem: 46 100<-2.42538 205.9> 218.962 117.038<689.868 749.983> 291.998 107.002<-2.42538 107.347> 291.998 100.002<1.05304 248.475>
DStem2: 173 241 168 209 0.952255 0.305303<0 123.037>
LayerCount: 2
Back
SplineSet
392 109 m 0xe8
 392 74 396 22 399 -0 c 1
 377 -3 359 -4 346 -4 c 2
 340 -4 l 2
 323 -4 306.998 -3 291.998 -0 c 1xf0
 291.998 38 291.998 76 291.998 114 c 0
 291.998 151 294 197 299 251 c 1
 168 209 l 1
 159 143 149 68 146 -0 c 1
 122 -3 106 -4 98 -4 c 2
 93 -4 l 2
 80 -4 64 -3 47 -0 c 1
 46 9 46 18 46 28 c 0
 46 63 53 123 56 148 c 0
 60 189 78 292 84 314 c 2
 101 382 l 2
 106 401 111 416 116 428 c 1
 144 437 186 443 222 443 c 1
 198 394 185 310 173 241 c 1
 302 283 l 1
 308 335 316 388 332 428 c 1
 359 435 406 443 438 443 c 0
 440 443 445 441 445 438 c 0
 445 437 445 437 444 436 c 0
 432 421 423 401 418 378 c 0
 402 294 392 210 392 109 c 0xe8
336 737 m 4xf8
 336 726.684286444 342.615641774 720 354 720 c 4
 367 720 384 727 392 730 c 4xf2
 407 736 426 746 441 750 c 4
 447 752 453 747 453 741 c 4
 453 739 453 737 451 735 c 4
 424 701 406 688 368 667 c 4
 336.516980647 648.544436931 269.146669599 626 232.066651038 663.080018561 c 4
 202.066650391 693.080019209 227.896851852 748.417323776 266 773 c 4
 297 794 351.566650391 822 386 822 c 4
 391 822 400 813 394 809 c 4
 377 796 361 783 349 767 c 4
 344 761 336 748 336 737 c 4xf8
EndSplineSet
Fore
SplineSet
392 109 m 0xf2
 392 74 396 22 399 -0 c 1
 377 -3 359 -4 346 -4 c 2
 340 -4 l 2
 323 -4 306.998 -3 291.998 -0 c 1xf4
 291.998 38 291.998 76 291.998 114 c 0
 291.998 151 294 197 299 251 c 1
 168 209 l 1
 159 143 149 68 146 -0 c 1
 122 -3 106 -4 98 -4 c 2
 93 -4 l 2
 80 -4 64 -3 47 -0 c 1
 46 9 46 18 46 28 c 0
 46 63 53 123 56 148 c 0
 60 189 78 292 84 314 c 2
 101 382 l 2
 106 401 111 416 116 428 c 1
 144 437 186 443 222 443 c 1
 198 394 185 310 173 241 c 1
 302 283 l 1
 308 335 316 388 332 428 c 1
 359 435 406 443 438 443 c 0
 440 443 445 441 445 438 c 0
 445 437 445 437 444 436 c 0
 432 421 423 401 418 378 c 0
 402 294 392 210 392 109 c 0xf2
336 737 m 4xf8
 336 726.684286444 342.615641774 720 354 720 c 4
 367 720 384 727 392 730 c 4xf2
 407 736 426 746 441 750 c 4
 447 752 453 747 453 741 c 4
 453 739 453 737 451 735 c 4
 424 701 406 688 368 667 c 4
 348.915158285 655.812334167 316.642738103 643.122121267 285.924436003 643.122121267 c 0
 265.968757468 643.122121267 246.668956229 648.47771337 232.066651038 663.080018561 c 4
 222.918240501 672.228429099 218.961630067 683.733023425 218.961630067 696.003155512 c 0
 218.961630067 723.969955191 239.516293002 755.913737421 266 773 c 4
 297 794 351.566650391 822 386 822 c 4
 391 822 400 813 394 809 c 4
 377 796 361 783 349 767 c 4
 344 761 336 748 336 737 c 4xf8
EndSplineSet
Validated: 1
LCarets2: 1 0
Ligature2: "'ccmp' Glyph Composition/Decomposition lookup 0-1" uni0438 uni0306
Colour: ffff
EndChar

StartChar: uni0407
Encoding: 1031 1031 32
Width: 358
Flags: W
HStem: -455 25<58 113 245 300> 495 24.998<85 139 259 315> 650 130<71 118 241 288>
VStem: 113 132<-430 -180.962> 139 120<245.962 495>
LayerCount: 2
Back
SplineSet
171 650 m 1xe0
 71 650 l 1
 18 771 l 1
 18 780 l 1
 118 780 l 1
 171 659 l 1
 171 650 l 1xe0
341 650 m 1
 241 650 l 1
 188 771 l 1
 188 780 l 1
 288 780 l 1
 341 659 l 1
 341 650 l 1
58 -455 m 1
 58 -430 l 1
 113 -430 l 1xf0
 139 495 l 1
 85 495 l 1
 85 519.998 l 1
 315 519.998 l 1
 315 495 l 1
 259 495 l 1xe8
 245 -430 l 1xf0
 300 -430 l 1
 300 -455 l 1
 58 -455 l 1
EndSplineSet
Fore
SplineSet
171 650 m 1xe0
 71 650 l 1
 18 771 l 1
 18 780 l 1
 118 780 l 1
 171 659 l 1
 171 650 l 1xe0
341 650 m 1
 241 650 l 1
 188 771 l 1
 188 780 l 1
 288 780 l 1
 341 659 l 1
 341 650 l 1
58 -455 m 1
 58 -430 l 1
 113 -430 l 1xf0
 139 495 l 1
 85 495 l 1
 85 519.998 l 1
 315 519.998 l 1
 315 495 l 1
 259 495 l 1xe8
 245 -430 l 1xf0
 300 -430 l 1
 300 -455 l 1
 58 -455 l 1
EndSplineSet
Validated: 1
LCarets2: 1 0
Ligature2: "'ccmp' Glyph Composition/Decomposition lookup 0-1" uni0406 dieresis
Colour: ffff
EndChar

StartChar: uni0457
Encoding: 1111 1111 33
Width: 260
Flags: W
HStem: -2 21G<107.325 129.36> 425 20G<212 230> 580 130<61 108 231 278>
VStem: 62.999 110.001<0 249.075>
LayerCount: 2
Back
SplineSet
81 220 m 24
 90.9140625 301.596679688 102.172516325 363.862581623 115 428 c 1
 144 436 195 442 229 445 c 1
 230 438 l 1
 212 402 202 360 195 325 c 0
 185 267 173 167 173 97 c 0
 173 66 174 33 176 -0 c 1
 176 -0 138.719726562 -2 120 -2 c 24
 94.6494140625 -2 62.999 -0 62.999 -0 c 1
 62.999 69.5160013949 70.6171875 134.541992188 81 220 c 24
161 580 m 1
 61 580 l 1
 8 701 l 1
 8 710 l 1
 108 710 l 1
 161 589 l 1
 161 580 l 1
331 580 m 1
 231 580 l 1
 178 701 l 1
 178 710 l 1
 278 710 l 1
 331 589 l 1
 331 580 l 1
EndSplineSet
Fore
SplineSet
62.999 -0 m 1
 62.999 129.536183573 92.5186279071 315.593139532 115 428 c 1
 144 436 195 442 229 445 c 1
 230 438 l 1
 212 402 202 360 195 325 c 0
 185 267 173 167 173 97 c 0
 173 66 174 33 176 -0 c 1
 176 -0 138.719726562 -2 120 -2 c 24
 94.6494140625 -2 62.999 -0 62.999 -0 c 1
161 580 m 1
 61 580 l 1
 8 701 l 1
 8 710 l 1
 108 710 l 1
 161 589 l 1
 161 580 l 1
331 580 m 1
 231 580 l 1
 178 701 l 1
 178 710 l 1
 278 710 l 1
 331 589 l 1
 331 580 l 1
EndSplineSet
Validated: 1
Ligature2: "'ccmp' Glyph Composition/Decomposition lookup 0-1" uni0456 dieresis
Colour: ffff
EndChar

StartChar: uni041A
Encoding: 1050 1050 34
Width: 663
Flags: W
HStem: -455 25<75 129.997 262 317 395 447 582 630> 494.999 24.999<102 156 276 332 374 424 555.746 603>
VStem: 129.997 132.003<-430 -180.991> 156 114<245.99 494.999> 424 133<391.449 494.999> 447 135<-430 -275.012>
LayerCount: 2
Back
SplineSet
75 -455 m 1xe0
 75 -430 l 1
 129.997 -430 l 1xe0
 156 494.999 l 1
 102 494.999 l 1
 102 519.998 l 1
 332 519.998 l 1
 332 494.999 l 1
 276 494.999 l 1
 270 93 l 1
 328 137 362 198 391 272 c 0
 415 334 420 413.999 424 494.999 c 1
 374 494.999 l 1
 374 519.998 l 1
 603 519.998 l 1
 603 494.999 l 1
 557 494.999 l 1xd8
 544 401.999 519 321 471 251 c 0
 426 183 357 116 290 75 c 1
 345 61 397 32 431 -5 c 0
 484 -64 521 -131 545 -217 c 0
 563.684326718 -280.239259662 582 -352.54110361 582 -430 c 1
 630 -430 l 1
 630 -455 l 1
 395 -455 l 1
 395 -430 l 1
 447 -430 l 1
 447 -410 447 -390 447 -371 c 0
 447 -352 444 -330 441 -305 c 0
 425 -177 400 -48 326 19 c 0
 310 33 291 44 270 51 c 1xd4
 262 -430 l 1
 317 -430 l 1
 317 -455 l 1
 75 -455 l 1xe0
EndSplineSet
Fore
SplineSet
75 -455 m 1xe0
 75 -430 l 1
 129.997 -430 l 1xe0
 156 494.999 l 1
 102 494.999 l 1
 102 519.998 l 1
 332 519.998 l 1
 332 494.999 l 1
 276 494.999 l 1
 270 93 l 1
 328 137 362 198 391 272 c 0
 415 334 420 413.999 424 494.999 c 1
 374 494.999 l 1
 374 519.998 l 1
 603 519.998 l 1
 603 494.999 l 1
 557 494.999 l 1xd8
 544 401.999 519 321 471 251 c 0
 426 183 357 116 290 75 c 1
 345 61 397 32 431 -5 c 0
 484 -64 521 -131 545 -217 c 0
 563.684326718 -280.239259662 582 -352.54110361 582 -430 c 1
 630 -430 l 1
 630 -455 l 1
 395 -455 l 1
 395 -430 l 1
 447 -430 l 1
 447 -410 447 -390 447 -371 c 0
 447 -352 444 -330 441 -305 c 0
 425 -177 400 -48 326 19 c 0
 310 33 291 44 270 51 c 1xd4
 262 -430 l 1
 317 -430 l 1
 317 -455 l 1
 75 -455 l 1xe0
EndSplineSet
Validated: 1
Colour: ffff
EndChar

StartChar: uni041B
Encoding: 1051 1051 35
Width: 644
Flags: W
HStem: -454.999 24.999<52 104.826 237 289 348 401.999 529 585> 495.001 24.997<327 382 498 552>
VStem: 104 133<-430 -302.112> 388.999 109.001<286.13 495.001> 401.999 127.001<-430 -221.129>
LayerCount: 2
Back
SplineSet
52 -454.999 m 1xf0
 52 -430 l 1
 104 -430 l 1
 112 -321 146 -215 192 -131 c 0
 209 -99 226 -69 242 -42 c 2
 289 37 l 2
 336.502801001 118.214466228 381.005781595 204.10172393 388.999 324 c 1
 382 495.001 l 1
 327 495.001 l 1
 327 519.998 l 1
 552 519.998 l 1
 552 495.001 l 1
 498 495.001 l 1xf0
 529 -430 l 1
 585 -430 l 1
 585 -454.999 l 1
 348 -454.999 l 1
 348 -430 l 1
 401.999 -430 l 1xe8
 388.999 169 l 1
 387.999 162 386 156 385 150 c 2
 381 134 l 2
 369 89 355 43 340 -4 c 2
 293 -147 l 1
 265 -236 244 -330 237 -430 c 1
 289 -430 l 1
 289 -454.999 l 1
 52 -454.999 l 1xf0
EndSplineSet
Fore
SplineSet
52 -454.999 m 1xf0
 52 -430 l 1
 104 -430 l 1
 112 -321 146 -215 192 -131 c 0
 209 -99 226 -69 242 -42 c 2
 289 37 l 2
 336.502801001 118.214466228 381.005781595 204.10172393 388.999 324 c 1
 382 495.001 l 1
 327 495.001 l 1
 327 519.998 l 1
 552 519.998 l 1
 552 495.001 l 1
 498 495.001 l 1xf0
 529 -430 l 1
 585 -430 l 1
 585 -454.999 l 1
 348 -454.999 l 1
 348 -430 l 1
 401.999 -430 l 1xe8
 388.999 169 l 1
 387.999 162 386 156 385 150 c 2
 381 134 l 2
 369 89 355 43 340 -4 c 2
 293 -147 l 1
 265 -236 244 -330 237 -430 c 1
 289 -430 l 1
 289 -454.999 l 1
 52 -454.999 l 1xf0
EndSplineSet
Validated: 1
Colour: ffff
EndChar

StartChar: uni043A
Encoding: 1082 1082 36
Width: 514
Flags: W
HStem: -4 21G<100 123 359.5 376.5> 425 20G<179.5 191.5 489 502>
VStem: 59.9945 99.0055<-2.45752 348.862> 314.999 105.001<-1.94238 106.94>
LayerCount: 2
Back
SplineSet
159 117 m 4
 159 84 160 30 163 -0 c 5
 147 -3 131 -4 115 -4 c 6
 109 -4 l 6
 91 -4 76 -2 63 0 c 5
 59.7251569162 28.3830394228 60.0002 62.7731592469 60.0002 97 c 4
 60.0002 192 70 284 83 364 c 4
 87 389 91 409 95 426 c 5
 126 437 159 445 200 445 c 5
 183 378 171 294 164 215 c 4
 160 182 159 149 159 117 c 4
501 445 m 4
 503 445 504 443 504 441 c 4
 504 440 504 439 503 438 c 6
 454 377 l 6
 441 360 428 346 416 335 c 4
 412 331 400 347 396 350 c 4
 383 362 368 374 352 382 c 5
 315 353 282 304 265 256 c 5
 278 256 290 257 303 257 c 4
 316 257 326 256 332 255 c 5
 368 207 394 137 409 69 c 4
 415 44 420 21 420 0 c 5
 403 -2 385 -3 368 -3 c 4
 351 -3 332.999 -2 314.999 0 c 5
 305.999 76 286 148 250 210 c 5
 239 228 l 6
 233.069670641 238.378076378 227.226747047 244.686455918 231 255 c 28
 245.694335938 295.163085938 263.030141171 321.75978886 284.000061035 351 c 4
 304.039507107 378.942769361 327.445569073 402.616163204 354 421 c 5
 368 428 397 432 418 435 c 4
 443 439 477 445 501 445 c 4
EndSplineSet
Fore
SplineSet
159 117 m 4
 159 84 160 30 163 -0 c 5
 147 -3 131 -4 115 -4 c 6
 109 -4 l 6
 91 -4 76 -2 63 0 c 5
 60.196131871 24.3011031686 59.9945112694 53.005702501 59.9945112694 82.2411169312 c 0
 59.9945112694 87.1518856827 60.0002 92.0776313962 60.0002 97 c 4
 60.0002 192 70 284 83 364 c 4
 87 389 91 409 95 426 c 5
 126 437 159 445 200 445 c 5
 183 378 171 294 164 215 c 4
 160 182 159 149 159 117 c 4
501 445 m 4
 503 445 504 443 504 441 c 4
 504 440 504 439 503 438 c 6
 454 377 l 6
 441 360 428 346 416 335 c 4
 412 331 400 347 396 350 c 4
 383 362 368 374 352 382 c 5
 315 353 282 304 265 256 c 5
 278 256 290 257 303 257 c 4
 316 257 326 256 332 255 c 5
 368 207 394 137 409 69 c 4
 415 44 420 21 420 0 c 5
 403 -2 385 -3 368 -3 c 4
 351 -3 332.999 -2 314.999 0 c 5
 305.999 76 286 148 250 210 c 5
 239 228 l 6
 233.069670641 238.378076378 227.226747047 244.686455918 231 255 c 28
 245.694335938 295.163085938 263.030141171 321.75978886 284.000061035 351 c 4
 304.039507107 378.942769361 327.445569073 402.616163204 354 421 c 5
 368 428 397 432 418 435 c 4
 443 439 477 445 501 445 c 4
EndSplineSet
Validated: 1
Colour: ffff
EndChar

StartChar: uni043B
Encoding: 1083 1083 37
Width: 433
Flags: W
HStem: -5 21G<49 66 311.5 332.5>
VStem: 49 97<3.99906 69.841> 220 105<293.358 432.516> 266 113<-3.09409 80.6668>
LayerCount: 2
Back
SplineSet
325 351 m 0xe0
 325 240 350 87 379 0 c 1
 362 -3 343 -5 322 -5 c 0
 301 -5 283 -3 266 0 c 1xd0
 258 36 253 80 247 123 c 0
 241 179 234 234 228 290 c 5
 226.700012207 279.5 219.700195312 261 213.700195312 248 c 0
 203.78059423 226.301136789 193.677449233 205.235365706 184.406465372 183.5 c 0
 162.981020786 133.269098893 146 79.4620126656 146 6 c 1
 120 -3 83 -6 49 -6 c 1
 49 26 56 42 70 71 c 0
 104.542823068 143.539928442 156.871657375 201.018626067 190.985724859 275.700012207 c 0
 203.94176309 304.062941796 214.270553448 334.907139867 220 370 c 1
 220 389 217 406 217 425 c 1
 243 436 297 443 332 447 c 1
 328 416 325 386 325 351 c 0xe0
EndSplineSet
Fore
SplineSet
325 351 m 0xe0
 325 240 350 87 379 0 c 1
 362 -3 343 -5 322 -5 c 0
 301 -5 283 -3 266 0 c 1xd0
 258 36 253 80 247 123 c 0
 241 179 234 234 228 290 c 5
 226.700012207 279.5 219.700195312 261 213.700195312 248 c 0
 180.994131649 176.456356688 146 111.333938037 146 6 c 1
 120 -3 83 -6 49 -6 c 1
 49 26 56 42 70 71 c 0
 117.631462775 171.026071826 199.131648651 242.18134798 220 370 c 1
 220 389 217 406 217 425 c 1
 243 436 297 443 332 447 c 1
 328 416 325 386 325 351 c 0xe0
EndSplineSet
Validated: 1
Colour: ffff
EndChar

StartChar: uni041C
Encoding: 1052 1052 38
Width: 1070
Flags: W
HStem: -455 25<50 114.678 243 292 840 889 1017.48 1082> 495 24.998<264 315 435 494 638 698.003 816 868>
VStem: 377.001 30.999<-13.7213 172> 722.998 31.002<-21.8641 172>
DStem2: 300 405 435 495 0.176737 0.984258<-343.363 -215.723 -159.333 91.2343> 874 185 754 172 0.218818 -0.975766<-13.5732 603.378>
LayerCount: 2
Back
SplineSet
435 495 m 1
 431 470 l 1
 417.655926583 376.591486084 408 259.964255191 408 198 c 2
 408 168 l 2
 408 95 416 11 431 -83 c 1
 452 -187 483 -294 521 -382 c 0
 535 -413 550 -441 566 -464 c 1
 632 -364 670.558629543 -237.675071513 701 -83 c 0
 719.5 11 722.998 95 722.998 168 c 2
 722.998 237 l 2
 722.998 277 717 346 704 444 c 0
 700.194910793 472.538169051 699.615901406 472.40061621 696 495 c 1
 638 495 l 1
 638 519.998 l 1
 868 519.998 l 1
 868 495 l 1
 816 495 l 1
 831.272025597 391.913827218 853.446259666 285.02820296 874 185 c 0
 918.291505474 -20.63913256 966.107206477 -235.985943319 1020 -430 c 1
 1082 -430 l 1
 1082 -455 l 1
 840 -455 l 1
 840 -430 l 1
 889 -430 l 1
 836 -209 l 1
 814 -112 788 5 766 113 c 2
 754 172 l 1
 754 44 736 -60 714 -173 c 0
 683 -335 637 -504 585 -632 c 0
 582 -640 575 -649 572 -658 c 1
 560 -658 l 1
 527 -593 505 -523 478 -430 c 0
 442 -304 409 -146 390 -0 c 0
 383 55 377.001 113 377.001 172 c 1
 336.127902056 -32.3654897197 290.319751594 -232.004197277 243 -430 c 1
 292 -430 l 1
 292 -455 l 1
 50 -455 l 1
 50 -430 l 1
 112 -430 l 1
 131 -358 151 -282 170 -202 c 2
 231 63 l 1
 255.470848714 176.717473435 277.967856657 289.33124745 300 405 c 4
 306 438 311 468 315 495 c 1
 264 495 l 1
 264 519.998 l 1
 494 519.998 l 1
 494 495 l 1
 435 495 l 1
EndSplineSet
Fore
SplineSet
435 495 m 1
 431 470 l 1
 417.655926583 376.591486084 408 259.964255191 408 198 c 2
 408 168 l 2
 408 95 416 11 431 -83 c 1
 452 -187 483 -294 521 -382 c 0
 535 -413 550 -441 566 -464 c 1
 632 -364 670.558629543 -237.675071513 701 -83 c 0
 719.5 11 722.998 95 722.998 168 c 2
 722.998 237 l 2
 722.998 277 717 346 704 444 c 0
 700.194910793 472.538169051 699.615901406 472.40061621 696 495 c 1
 638 495 l 1
 638 519.998 l 1
 868 519.998 l 1
 868 495 l 1
 816 495 l 1
 831.272025597 391.913827218 853.446259666 285.02820296 874 185 c 0
 918.291505474 -20.63913256 966.107206477 -235.985943319 1020 -430 c 1
 1082 -430 l 1
 1082 -455 l 1
 840 -455 l 1
 840 -430 l 1
 889 -430 l 1
 836 -209 l 1
 814 -112 788 5 766 113 c 2
 754 172 l 1
 754 44 736 -60 714 -173 c 0
 683 -335 637 -504 585 -632 c 0
 582 -640 575 -649 572 -658 c 1
 560 -658 l 1
 527 -593 505 -523 478 -430 c 0
 442 -304 409 -146 390 -0 c 0
 383 55 377.001 113 377.001 172 c 1
 336.127902056 -32.3654897197 290.319751594 -232.004197277 243 -430 c 1
 292 -430 l 1
 292 -455 l 1
 50 -455 l 1
 50 -430 l 1
 112 -430 l 1
 131 -358 151 -282 170 -202 c 2
 231 63 l 1
 255.470848714 176.717473435 277.967856657 289.33124745 300 405 c 4
 306 438 311 468 315 495 c 1
 264 495 l 1
 264 519.998 l 1
 494 519.998 l 1
 494 495 l 1
 435 495 l 1
EndSplineSet
Validated: 1
Colour: ffff
EndChar

StartChar: uni043C
Encoding: 1084 1084 39
Width: 702
Flags: W
HStem: -3 21G<87.5 108 322 342 593 611> 423 20G<323.5 344 567 589>
VStem: 47.002 104.998<0.700237 80.3199> 238.002 105.998<325.693 428.992>
DStem2: 370 84 380 23 0.351794 0.936078<0 269.801> 610 207 506 232 0.178139 -0.984005<-136.476 199.132>
LayerCount: 2
Back
SplineSet
653 0 m 1
 639 -3 620 -3 602 -3 c 0
 584 -3 564 -3 548 0 c 1
 536 61 l 2
 531 85 526 112 521 141 c 2
 506 232 l 2
 501 264 497 295 493 326 c 1
 380 23 l 1
 381 16 382 9 385 0 c 1
 370 -2 352 -3 332 -3 c 0
 312 -3 295 -2 282 0 c 1
 267.902962426 98.6792630184 255.71210846 213.808847607 246 317 c 1
 242 306 237 295 232 285 c 2
 215 247 l 2
 197 209 180 168 166 129 c 0
 156 103 152 78 152 44 c 0
 152 26 153 15 156 0 c 1
 141 -3 117 -3 99 -3 c 0
 98 -3 97 -3 96 -3 c 0
 79 -3 60.002 -3 47.002 0 c 1
 48.002 4 47.002 8 47.002 12 c 0
 47.002 35 56 58 65 74 c 0
 78 99 101 134 118 158 c 0
 168 225 213.002 295 238.002 387 c 1
 238.002 401 238.002 414 238.002 427 c 1
 269.002 438 303 443 344 443 c 1
 344 355 352 259 360 175 c 0
 362 142 366 112 370 84 c 1
 485 390 l 1
 485 402 482 413 482 424 c 1
 508 435 549 441 585 443 c 1
 593 370 598 284 610 207 c 0
 622 137 637 60 653 0 c 1
EndSplineSet
Fore
SplineSet
653 0 m 1
 639 -3 620 -3 602 -3 c 0
 584 -3 564 -3 548 0 c 1
 536 61 l 2
 531 85 526 112 521 141 c 2
 506 232 l 2
 501 264 497 295 493 326 c 1
 380 23 l 1
 381 16 382 9 385 0 c 1
 370 -2 352 -3 332 -3 c 0
 312 -3 295 -2 282 0 c 1
 267.902962426 98.6792630184 255.71210846 213.808847607 246 317 c 1
 242 306 237 295 232 285 c 2
 215 247 l 2
 197 209 180 168 166 129 c 0
 156 103 152 78 152 44 c 0
 152 26 153 15 156 0 c 1
 141 -3 117 -3 99 -3 c 0
 98 -3 97 -3 96 -3 c 0
 79 -3 60.002 -3 47.002 0 c 1
 48.002 4 47.002 8 47.002 12 c 0
 47.002 35 56 58 65 74 c 0
 78 99 101 134 118 158 c 0
 168 225 213.002 295 238.002 387 c 1
 238.002 401 238.002 414 238.002 427 c 1
 269.002 438 303 443 344 443 c 1
 344 355 352 259 360 175 c 0
 362 142 366 112 370 84 c 1
 485 390 l 1
 485 402 482 413 482 424 c 1
 508 435 549 441 585 443 c 1
 593 370 598 284 610 207 c 0
 622 137 637 60 653 0 c 1
EndSplineSet
Validated: 1
Colour: ffff
EndChar

StartChar: uni041D
Encoding: 1053 1053 40
Width: 712
Flags: W
HStem: -455 25<58 113 245 300 417 472 598 654> 495 24.998<85 139 259 315 410 467 580 635>
VStem: 113 132<-430 -180.962> 139 120<245.962 495> 467 113<162 495> 472 126<-430 -70.2778>
DStem2: 259 241 255 213 0.937054 -0.349185<6.02897 222.493>
LayerCount: 2
Back
SplineSet
259 495 m 1xd0
 259 241 l 1
 467 162 l 1
 467 495 l 1
 410 495 l 1
 410 519.998 l 1
 635 519.998 l 1
 635 495 l 1
 580 495 l 1xd8
 598 -430 l 1
 654 -430 l 1
 654 -455 l 1
 417 -455 l 1
 417 -430 l 1
 472 -430 l 1xc4
 467 134 l 1
 255 213 l 1
 245 -430 l 1
 300 -430 l 1
 300 -455 l 1
 58 -455 l 1
 58 -430 l 1
 113 -430 l 1xe8
 139 495 l 1
 85 495 l 1
 85 519.998 l 1
 315 519.998 l 1
 315 495 l 1
 259 495 l 1xd0
EndSplineSet
Fore
SplineSet
259 495 m 1xd0
 259 241 l 1
 467 162 l 1
 467 495 l 1
 410 495 l 1
 410 519.998 l 1
 635 519.998 l 1
 635 495 l 1
 580 495 l 1xd8
 598 -430 l 1
 654 -430 l 1
 654 -455 l 1
 417 -455 l 1
 417 -430 l 1
 472 -430 l 1xc4
 467 134 l 1
 255 213 l 1
 245 -430 l 1
 300 -430 l 1
 300 -455 l 1
 58 -455 l 1
 58 -430 l 1
 113 -430 l 1xe8
 139 495 l 1
 85 495 l 1
 85 519.998 l 1
 315 519.998 l 1
 315 495 l 1
 259 495 l 1xd0
EndSplineSet
Validated: 1
Colour: ffff
EndChar

StartChar: uni043D
Encoding: 1085 1085 41
Width: 458
Flags: W
HStem: -4 20G<92.5 107.5 341 351> 425 20G<180.5 202 406 430>
VStem: 49.999 101.001<-2.6597 265.275> 290.998 100.002<3.46805 258>
DStem2: 173 332 169 302 0.940689 -0.33927<6.41536 125.588>
LayerCount: 2
Back
SplineSet
430 441 m 1
 397.886784094 396.041497731 391 325.164689568 391 249 c 2
 391 213 l 2
 391 148 401 49 412 0 c 1
 395 -3 376 -4 356 -4 c 0
 354 -5 352 -5 350 -5 c 0
 332 -5 316 -3 302 0 c 1
 295 74 290.998 147 290.998 228 c 2
 290.998 258 l 1
 169 302 l 1
 156 205 151 100 151 -0 c 1
 132 -3 115 -4 100 -4 c 0
 85 -4 67.999 -3 49.999 0 c 1
 49.999 18 49.999 36 49.999 54 c 0
 49.999 150 64 278 77 365 c 0
 81 388 85 408 90 425 c 1
 129 437 164 445 197 445 c 1
 202 441 l 1
 190 429 186 418 182 390 c 0
 179 370 176 351 173 332 c 1
 290.998 289 l 1
 293.998 337 299 382 306 423 c 1
 336 437 385 445 427 445 c 1
 430 441 l 1
EndSplineSet
Fore
SplineSet
430 441 m 1
 397.886784094 396.041497731 391 325.164689568 391 249 c 2
 391 213 l 2
 391 148 401 49 412 0 c 1
 395 -3 376 -4 356 -4 c 0
 354 -5 352 -5 350 -5 c 0
 332 -5 316 -3 302 0 c 1
 295 74 290.998 147 290.998 228 c 2
 290.998 258 l 1
 169 302 l 1
 156 205 151 100 151 -0 c 1
 132 -3 115 -4 100 -4 c 0
 85 -4 67.999 -3 49.999 0 c 1
 49.999 18 49.999 36 49.999 54 c 0
 49.999 150 64 278 77 365 c 0
 81 388 85 408 90 425 c 1
 129 437 164 445 197 445 c 1
 202 441 l 1
 190 429 186 418 182 390 c 0
 179 370 176 351 173 332 c 1
 290.998 289 l 1
 293.998 337 299 382 306 423 c 1
 336 437 385 445 427 445 c 1
 430 441 l 1
EndSplineSet
Validated: 1
Colour: ffff
EndChar

StartChar: uni041E
Encoding: 1054 1054 42
Width: 684
Flags: W
HStem: -465 24<281.956 365.017> 505 23.998<280.983 365.256>
VStem: 65.001 125.999<-181.053 247.25> 455.001 125.999<-183.125 245.053>
LayerCount: 2
Back
SplineSet
323 505 m 0
 273 505 248 465 232 426 c 0
 191 327 191 177 191 40 c 2
 191 32 l 2
 191 -74 194 -186 209 -277 c 0
 219 -335 237 -388 269 -419 c 0
 284 -434 302 -441 323 -441 c 0
 373 -441 398 -401 414 -361 c 0
 455 -263 455.001 -113 455.001 24 c 2
 455.001 32 l 2
 455.001 138 452 250 437 341 c 0
 427 399 409 452 377 484 c 0
 362 498 344 505 323 505 c 0
323 -465 m 0
 286 -465 251 -454 220 -431 c 0
 149 -379 107 -284 85 -176 c 0
 72 -115 65.001 -45 65.001 32 c 0
 65.001 178 89 305 139 396 c 0
 162 439 189 472 220 495 c 0
 251 518 286 528.998 323 528.998 c 0
 360 528.998 395 518 426 495 c 0
 497 443 539 348 561 240 c 0
 574 179 581 109 581 32 c 0
 581 -114 557 -241 507 -332 c 0
 484 -376 457 -408 426 -431 c 0
 395 -454 360 -465 323 -465 c 0
EndSplineSet
Fore
SplineSet
323 505 m 0
 273 505 248 465 232 426 c 0
 191 327 191 177 191 40 c 2
 191 32 l 2
 191 -74 194 -186 209 -277 c 0
 219 -335 237 -388 269 -419 c 0
 284 -434 302 -441 323 -441 c 0
 373 -441 398 -401 414 -361 c 0
 455 -263 455.001 -113 455.001 24 c 2
 455.001 32 l 2
 455.001 138 452 250 437 341 c 0
 427 399 409 452 377 484 c 0
 362 498 344 505 323 505 c 0
323 -465 m 0
 286 -465 251 -454 220 -431 c 0
 149 -379 107 -284 85 -176 c 0
 72 -115 65.001 -45 65.001 32 c 0
 65.001 178 89 305 139 396 c 0
 162 439 189 472 220 495 c 0
 251 518 286 528.998 323 528.998 c 0
 360 528.998 395 518 426 495 c 0
 497 443 539 348 561 240 c 0
 574 179 581 109 581 32 c 0
 581 -114 557 -241 507 -332 c 0
 484 -376 457 -408 426 -431 c 0
 395 -454 360 -465 323 -465 c 0
EndSplineSet
Validated: 1
Colour: ffff
EndChar

StartChar: uni043E
Encoding: 1086 1086 43
Width: 489
Flags: W
HStem: -10.001 64.001<226.253 286.989> 371 78.999<212.879 305.5>
VStem: 46.001 94.999<170.287 281.359> 350.001 92.999<149.291 261.734>
LayerCount: 2
Back
SplineSet
217 371 m 0
 185 371 159 341 144 315 c 1
 142 300 141 286 141 275 c 0
 141 225 155 177 182 131 c 0
 213 80 245 54 278 54 c 0
 285 54 291 55 297 57 c 0
 310 61 325 75 342 100 c 1
 347 121 350.001 142 350.001 162 c 0
 350.001 224 327 274 304 302 c 0
 283 328 267 346 255 355 c 0
 242 366 229 371 217 371 c 0
294 449.999 m 0
 317 449.999 347 425 384 374 c 0
 423 321 443 274 443 235 c 0
 443 230 443 225 442 220 c 0
 430 124 356 39 287 12 c 0
 250 -3 220 -10.001 197 -10.001 c 0
 190 -10.001 185 -11.001 180 -10.001 c 0
 153 -2.001 122 29 89 80 c 0
 60 124 46.001 162 46.001 194 c 2
 46.001 196 l 2
 46.001 236 59 273 84 308 c 0
 112 346 144 379 180 407 c 0
 217 436 255 449.999 294 449.999 c 0
EndSplineSet
Fore
SplineSet
217 371 m 0
 185 371 159 341 144 315 c 1
 142 300 141 286 141 275 c 0
 141 225 155 177 182 131 c 0
 213 80 245 54 278 54 c 0
 285 54 291 55 297 57 c 0
 310 61 325 75 342 100 c 1
 347 121 350.001 142 350.001 162 c 0
 350.001 224 327 274 304 302 c 0
 283 328 267 346 255 355 c 0
 242 366 229 371 217 371 c 0
294 449.999 m 0
 317 449.999 347 425 384 374 c 0
 423 321 443 274 443 235 c 0
 443 230 443 225 442 220 c 0
 430 124 356 39 287 12 c 0
 250 -3 220 -10.001 197 -10.001 c 0
 190 -10.001 185 -11.001 180 -10.001 c 0
 153 -2.001 122 29 89 80 c 0
 60 124 46.001 162 46.001 194 c 2
 46.001 196 l 2
 46.001 236 59 273 84 308 c 0
 112 346 144 379 180 407 c 0
 217 436 255 449.999 294 449.999 c 0
EndSplineSet
Validated: 1
Colour: ffff
EndChar

StartChar: uni041F
Encoding: 1055 1055 44
Width: 712
Flags: W
HStem: -455 25<58 113 245 300 417 472 598 654> 495 25<85 139 259 465 580 635>
VStem: 113 132<-430 -180.962> 139 120<245.962 495> 465 115<135.278 495> 472 126<-430 -70.2778>
LayerCount: 2
Back
SplineSet
58 -455 m 1xe0
 58 -430 l 1
 113 -430 l 1xe0
 139 495 l 1
 85 495 l 1
 85 520 l 1
 635 520 l 1
 635 495 l 1
 580 495 l 1xd8
 598 -430 l 1
 654 -430 l 1
 654 -455 l 1
 417 -455 l 1
 417 -430 l 1
 472 -430 l 1xc4
 465 495 l 1
 259 495 l 1xd8
 245 -430 l 1
 300 -430 l 1
 300 -455 l 1
 58 -455 l 1xe0
EndSplineSet
Fore
SplineSet
58 -455 m 1xe0
 58 -430 l 1
 113 -430 l 1xe0
 139 495 l 1
 85 495 l 1
 85 520 l 1
 635 520 l 1
 635 495 l 1
 580 495 l 1xd8
 598 -430 l 1
 654 -430 l 1
 654 -455 l 1
 417 -455 l 1
 417 -430 l 1
 472 -430 l 1xc4
 465 495 l 1
 259 495 l 1xd8
 245 -430 l 1
 300 -430 l 1
 300 -455 l 1
 58 -455 l 1xe0
EndSplineSet
Validated: 1
Colour: ffff
EndChar

StartChar: uni043F
Encoding: 1087 1087 45
Width: 460
Flags: W
HStem: -4 21G<89 107 336.5 355.5> 407.001 29.997<184.128 312>
VStem: 46 107<-2.22454 271.035> 291 103.92<-2.99826 310.766>
LayerCount: 2
Back
SplineSet
291 45 m 0
 291 166 302 299.001 312 407.001 c 1
 188 407.001 l 1
 179 377.001 175 334 171 294 c 0
 161 202 153 98 153 0 c 1
 134 -2 116 -4 98 -4 c 0
 80 -4 63 -2 46 0 c 1
 46 110 61 233 75 336 c 0
 80 375 86 407.998 92 436.998 c 1
 420 436.998 l 1
 420 433.998 422 435 422 432 c 0
 406 348 396 253 396 149 c 0
 396 97.219259415 393 59.4000015259 397 0 c 5
 382 -3 365 -5 346 -5 c 0
 327 -5 309 -3 292 0 c 1
 292 14 291 29 291 45 c 0
EndSplineSet
Fore
SplineSet
291 45 m 0
 291 166 302 299.001 312 407.001 c 1
 188 407.001 l 1
 179 377.001 175 334 171 294 c 0
 161 202 153 98 153 0 c 1
 134 -2 116 -4 98 -4 c 0
 80 -4 63 -2 46 0 c 1
 46 110 61 233 75 336 c 0
 80 375 86 407.998 92 436.998 c 1
 420 436.998 l 1
 420 433.998 422 435 422 432 c 0
 406 348 396 253 396 149 c 0
 396 117.931555649 394.92 91.8892450685 394.92 63.1959473707 c 0
 394.92 44.0670822388 395.4 23.7600006104 397 0 c 5
 382 -3 365 -5 346 -5 c 0
 327 -5 309 -3 292 0 c 1
 292 14 291 29 291 45 c 0
EndSplineSet
Validated: 1
Colour: ffff
EndChar

StartChar: uni047A
Encoding: 1146 1146 46
Width: 1262
Flags: W
HStem: -522.004 170.004<544.86 664.92> 420.993 172.007<549.625 672.896>
VStem: 59.998 142.002<-130.923 143.223> 1016 142<-88.5114 171.653>
LayerCount: 2
Back
SplineSet
1158 10 m 0
 1158 -22 1148 -62 1128 -110 c 0
 1080 -226 989 -324 883 -385 c 0
 826 -418 766 -441 701 -456 c 1
 688 -500 651 -522.00390625 603 -522.00390625 c 0
 558 -522.00390625 534 -503 519 -466 c 1
 386 -452 273 -390 198 -315 c 0
 129 -246 59.998 -132 59.998 -8 c 0
 59.998 225.528579316 187.395495057 359.333134713 335 446 c 0
 392 479 453 503 518 517 c 1
 529 562 560 593 612 593 c 0
 659 593 689 567 703 526 c 1
 766 519 825 500 881 470 c 0
 1055.48288106 377.47119944 1158 235.095581055 1158 10 c 0
612 420.993164062 m 0
 569 420.993164062 530 449 521 484 c 1
 428 445 343 370 288 288 c 0
 244 221 202 125 202 17 c 0
 202 -111 243 -201 299 -274 c 0
 351 -343 431 -398 518 -429 c 1
 518 -381.081054688 561.217773438 -352 611 -352 c 0
 648.301757812 -352 692.620117188 -387.928710938 698 -422 c 1
 791 -383 876 -308 930 -226 c 0
 973 -160 1016 -63 1016 44 c 0
 1016 167 974 262 919 334 c 0
 867 403 790 458 703 489 c 1
 696 451 656 420.993164062 612 420.993164062 c 0
EndSplineSet
Fore
SplineSet
1158 10 m 0
 1158 -22 1148 -62 1128 -110 c 0
 1080 -226 989 -324 883 -385 c 0
 826 -418 766 -441 701 -456 c 1
 688 -500 651 -522.00390625 603 -522.00390625 c 0
 558 -522.00390625 534 -503 519 -466 c 1
 386 -452 273 -390 198 -315 c 0
 129 -246 59.998 -132 59.998 -8 c 0
 59.998 225.528579316 187.395495057 359.333134713 335 446 c 0
 392 479 453 503 518 517 c 1
 529 562 560 593 612 593 c 0
 659 593 689 567 703 526 c 1
 766 519 825 500 881 470 c 0
 1055.48288106 377.47119944 1158 235.095581055 1158 10 c 0
612 420.993164062 m 0
 569 420.993164062 530 449 521 484 c 1
 428 445 343 370 288 288 c 0
 244 221 202 125 202 17 c 0
 202 -111 243 -201 299 -274 c 0
 351 -343 431 -398 518 -429 c 1
 518 -381.081054688 561.217773438 -352 611 -352 c 0
 648.301757812 -352 692.620117188 -387.928710938 698 -422 c 1
 791 -383 876 -308 930 -226 c 0
 973 -160 1016 -63 1016 44 c 0
 1016 167 974 262 919 334 c 0
 867 403 790 458 703 489 c 1
 696 451 656 420.993164062 612 420.993164062 c 0
EndSplineSet
Validated: 1
Colour: ffff
EndChar

StartChar: uni047B
Encoding: 1147 1147 47
Width: 686
Flags: W
HStem: -12.001 28.001<268.379 401.472> 420.999 28.001<284.935 417.022>
VStem: 62 114<116.929 311.309> 510.001 113.999<124.825 318.917>
LayerCount: 2
Back
SplineSet
624 218 m 0
 624 136 582 80 532 45 c 0
 482 12 412 -12.001 333 -12.001 c 0
 213 -12.001 126 36 84 116 c 0
 70 145 62 179 62 218 c 0
 62 301 104 355 154 391 c 0
 203 425 274 449 353 449 c 0
 472 449 560 399 602 320 c 0
 616 290 624 257 624 218 c 0
354 420.999 m 0
 266 420.999 213 366 190 299 c 0
 180 274 176 247 176 218 c 0
 176 129 206 61 265 31 c 0
 284 21 307 16 333 16 c 0
 421 16 474 71 497 137 c 0
 506 162 510.001 189 510.001 218 c 0
 510.001 307 480 374 422 405 c 0
 403 416 380 420.999 354 420.999 c 0
EndSplineSet
Fore
SplineSet
624 218 m 0
 624 136 582 80 532 45 c 0
 482 12 412 -12.001 333 -12.001 c 0
 213 -12.001 126 36 84 116 c 0
 70 145 62 179 62 218 c 0
 62 301 104 355 154 391 c 0
 203 425 274 449 353 449 c 0
 472 449 560 399 602 320 c 0
 616 290 624 257 624 218 c 0
354 420.999 m 0
 266 420.999 213 366 190 299 c 0
 180 274 176 247 176 218 c 0
 176 129 206 61 265 31 c 0
 284 21 307 16 333 16 c 0
 421 16 474 71 497 137 c 0
 506 162 510.001 189 510.001 218 c 0
 510.001 307 480 374 422 405 c 0
 403 416 380 420.999 354 420.999 c 0
EndSplineSet
Validated: 1
Colour: ffff
EndChar

StartChar: uni0420
Encoding: 1056 1056 48
Width: 682
Flags: W
HStem: -455 25<75 129.998 262 321> 507.989 22.011<337.761 445.19>
VStem: 129.998 132.002<-430 -184.045> 151.998 120.002<97.0455 217.475 231 422.587> 495.999 106.001<317.167 463.927>
LayerCount: 2
Back
SplineSet
75 -455 m 1xe8
 75 -430 l 1
 129.998 -430 l 1xe8
 151.998 343 l 1xd8
 151.998 407 189 452 227 481 c 0
 278 520 327 530 410 530 c 0
 461 530 507 513 542 494 c 0
 569 480 585 466 595 434 c 0
 600 419 602 405 602 392 c 0
 602 342 589 318 558 294 c 0
 528 270 463 269 418 261 c 0
 388 257 348 254 327 241 c 0
 301 225 280 212 271 181 c 1
 262 -430 l 1
 321 -430 l 1
 321 -455 l 1
 75 -455 l 1xe8
495.999 392 m 0
 495.999 461 466 507.989 395 507.989 c 0
 343 507.989 301 485 283 450 c 0
 278 439 275 429 275 418 c 2
 272 231 l 1xd8
 289 248 309 263 336 270 c 0
 376 281 427 282 455 300 c 0
 484 319 495.999 346 495.999 392 c 0
EndSplineSet
Fore
SplineSet
75 -455 m 1xe8
 75 -430 l 1
 129.998 -430 l 1xe8
 151.998 343 l 1xd8
 151.998 407 189 452 227 481 c 0
 278 520 327 530 410 530 c 0
 461 530 507 513 542 494 c 0
 569 480 585 466 595 434 c 0
 600 419 602 405 602 392 c 0
 602 342 589 318 558 294 c 0
 528 270 463 269 418 261 c 0
 388 257 348 254 327 241 c 0
 301 225 280 212 271 181 c 1
 262 -430 l 1
 321 -430 l 1
 321 -455 l 1
 75 -455 l 1xe8
495.999 392 m 0
 495.999 461 466 507.989 395 507.989 c 0
 343 507.989 301 485 283 450 c 0
 278 439 275 429 275 418 c 2
 272 231 l 1xd8
 289 248 309 263 336 270 c 0
 376 281 427 282 455 300 c 0
 484 319 495.999 346 495.999 392 c 0
EndSplineSet
Validated: 1
Colour: ffff
EndChar

StartChar: uni0440
Encoding: 1088 1088 49
Width: 340
Flags: W
HStem: -4.69315 111.693<136.174 195.794> 277 174<184 246>
VStem: 43 66<-498.019 -477.463> 54.0039 81.9961<-290.981 0 108.373 197.876> 216 68<125.309 336>
LayerCount: 2
Back
SplineSet
65 -318 m 2
 65 -220 54.0039 -144 54.0039 -46 c 0
 54.0039 96 64 231 113 324 c 0
 139 375 177 426 232 449 c 0
 235 450 239 451 244 451 c 0
 248 451 251 450 252 448 c 0
 277 409 284 366 284 306 c 0
 284 189 256 78 221 12 c 4
 205.96271752 -16.3560183905 136 0 136 0 c 1
 136 -41 l 2
 136 -76 138 -112 138 -147 c 0
 138 -261 135 -374 109 -459 c 0
 101 -484 87 -503 67 -516 c 0
 65 -518 62 -518 60 -518 c 0
 51 -518 41 -508 43 -501 c 2
 54.0039 -464 l 1
 64.9963 -419.031 65 -373.063 65 -318.114 c 2
 65 -318 l 2
159 254 m 0
 145 216 136 168 136 119 c 1
 143 112 157 107 170 107 c 0
 179 107 188 109 194 115 c 1
 206 148 216 202 216 245 c 0
 216 254 215 262 213 267 c 1
 205 274 197 277 188 277 c 0
 180 277 172 274 165 268 c 0
 163 265 161 261 159 254 c 0
EndSplineSet
Fore
SplineSet
65 -318 m 2xd8
 65 -220 54.0039 -144 54.0039 -46 c 0
 54.0039 96 64 231 113 324 c 0
 139 375 177 426 232 449 c 0
 235 450 239 451 244 451 c 0
 248 451 251 450 252 448 c 0
 277 409 284 366 284 306 c 0
 284 189 256 78 221 12 c 4
 214.017667628 -1.16668390215 195.193041615 -4.69315160185 177.029136077 -4.69315160185 c 0
 156.074912608 -4.69315160185 136 -8.881784197e-16 136 0 c 1
 136 -41 l 2xd8
 136 -76 138 -112 138 -147 c 0
 138 -261 135 -374 109 -459 c 0
 101 -484 87 -503 67 -516 c 0
 65 -518 62 -518 60 -518 c 0
 51 -518 41 -508 43 -501 c 2xe8
 54.0039 -464 l 1
 64.9963 -419.031 65 -373.063 65 -318.114 c 2
 65 -318 l 2xd8
159 254 m 0
 145 216 136 168 136 119 c 1
 143 112 157 107 170 107 c 0
 179 107 188 109 194 115 c 1
 206 148 216 202 216 245 c 0
 216 254 215 262 213 267 c 1
 205 274 197 277 188 277 c 0
 180 277 172 274 165 268 c 0
 163 265 161 261 159 254 c 0
EndSplineSet
Validated: 1
AlternateSubs2: "'salt' Stylistic Alternatives lookup 2-1" uni0440.salt
Colour: ffff
EndChar

StartChar: uni0421
Encoding: 1057 1057 50
Width: 692
Flags: W
HStem: -464.999 23.999<280.744 364.102> -50 25<413 455 576 623> 109.998 25.002<413 455 574.01 623> 504.998 24.002<280.983 364.957>
VStem: 65 126<-181.053 247.125> 455 121<-211.585 -50 135 262.801>
LayerCount: 2
Back
SplineSet
576 -50 m 1
 576 -171 542 -278 494 -355 c 0
 458 -412 405 -464.999 323 -464.999 c 0
 286 -464.999 251 -454 220 -431 c 0
 149 -379 107 -284 85 -176 c 0
 72 -115 65 -45 65 32 c 0
 65 178 89 305 139 396 c 0
 162 439 189 472 220 495 c 0
 251 518 286 529 323 529 c 0
 402 529 455 479 490 424 c 0
 537 352 565 250 575 135 c 1
 623 135 l 1
 623 109.998 l 1
 413 109.998 l 1
 413 135 l 1
 455 135 l 1
 451 261 443 399 388 472 c 0
 371 494 350 504.998 323 504.998 c 0
 273 504.998 248 465 232 425 c 0
 191 327 191 177 191 40 c 2
 191 32 l 2
 191 -74 194 -186 209 -277 c 0
 219 -335 237 -388 269 -420 c 0
 284 -434 302 -441 323 -441 c 0
 350 -441 373 -429 390 -406 c 0
 446 -327 451 -181 455 -50 c 1
 413 -50 l 1
 413 -25 l 1
 623 -25 l 1
 623 -50 l 1
 576 -50 l 1
EndSplineSet
Fore
SplineSet
576 -50 m 1
 576 -171 542 -278 494 -355 c 0
 458 -412 405 -464.999 323 -464.999 c 0
 286 -464.999 251 -454 220 -431 c 0
 149 -379 107 -284 85 -176 c 0
 72 -115 65 -45 65 32 c 0
 65 178 89 305 139 396 c 0
 162 439 189 472 220 495 c 0
 251 518 286 529 323 529 c 0
 402 529 455 479 490 424 c 0
 537 352 565 250 575 135 c 1
 623 135 l 1
 623 109.998 l 1
 413 109.998 l 1
 413 135 l 1
 455 135 l 1
 451 261 443 399 388 472 c 0
 371 494 350 504.998 323 504.998 c 0
 273 504.998 248 465 232 425 c 0
 191 327 191 177 191 40 c 2
 191 32 l 2
 191 -74 194 -186 209 -277 c 0
 219 -335 237 -388 269 -420 c 0
 284 -434 302 -441 323 -441 c 0
 350 -441 373 -429 390 -406 c 0
 446 -327 451 -181 455 -50 c 1
 413 -50 l 1
 413 -25 l 1
 623 -25 l 1
 623 -50 l 1
 576 -50 l 1
EndSplineSet
Validated: 1
Colour: ffff
EndChar

StartChar: uni0441
Encoding: 1089 1089 51
Width: 285
Flags: W
HStem: 425 20G<203.5 233>
VStem: 55 99<133.962 296.274>
LayerCount: 2
Back
SplineSet
130 0 m 0
 125 -2 110 -11 101 -11 c 0
 98 -11 95 -10 94 -7 c 0
 84 10 79 46 73 73 c 0
 64 118 55 171 55 224 c 0
 55 289 75 337 102 376 c 0
 128 413 174 445 233 445 c 1
 233 435 234 425 234 416 c 0
 234 392 231 363 229 344 c 1
 205 333 174 308 158 288 c 1
 156 278 154 257 154 240 c 0
 154 205.411636256 157.507611061 160.461944694 163 133 c 1
 185 140 198 148 216 160 c 0
 219 163 222.124756572 156.996105157 222 155 c 0
 219 107 215 81 205 45 c 1
 183 28 156 12 130 0 c 0
EndSplineSet
Fore
SplineSet
130 0 m 0
 125 -2 110 -11 101 -11 c 0
 98 -11 95 -10 94 -7 c 0
 84 10 79 46 73 73 c 0
 64 118 55 171 55 224 c 0
 55 289 75 337 102 376 c 0
 128 413 174 445 233 445 c 1
 233 435 234 425 234 416 c 0
 234 392 231 363 229 344 c 1
 205 333 174 308 158 288 c 1
 156 278 154 257 154 240 c 0
 154 205.411636256 157.507611061 160.461944694 163 133 c 1
 185 140 198 148 216 160 c 0
 219 163 222.124756572 156.996105157 222 155 c 0
 219 107 215 81 205 45 c 1
 183 28 156 12 130 0 c 0
EndSplineSet
Validated: 1
Colour: ffff
EndChar

StartChar: uni0422
Encoding: 1058 1058 52
Width: 718
Flags: W
HStem: -455 25<217 272 404 459> 495 25<191.219 298 418 526.781>
VStem: 272 132<-430 -180.962> 298 120<245.962 495>
LayerCount: 2
Back
SplineSet
217 -455 m 1xe0
 217 -430 l 1
 272 -430 l 1xe0
 298 495 l 1
 193 495 l 1
 191 482 189 467 187 451 c 2
 181 399 l 2
 177 365 174 328 171 294 c 1
 160 294 l 1
 120 377 82 437 19 505 c 0
 17 507 16 509 16 511 c 0
 16 512 17 513 17 514 c 0
 17 516 18 518 19 520 c 1
 699 520 l 1
 699 518 699 516 700 514 c 0
 700 512 700 510 700 509 c 0
 700 507 700 506 699 505 c 0
 636 437 598 377 558 294 c 1
 547 294 l 1
 544 328 541 365 537 399 c 2
 531 451 l 2
 529 467 527 482 525 495 c 1
 418 495 l 1xd0
 404 -430 l 1
 459 -430 l 1
 459 -455 l 1
 217 -455 l 1xe0
EndSplineSet
Fore
SplineSet
217 -455 m 1xe0
 217 -430 l 1
 272 -430 l 1xe0
 298 495 l 1
 193 495 l 1
 191 482 189 467 187 451 c 2
 181 399 l 2
 177 365 174 328 171 294 c 1
 160 294 l 1
 120 377 82 437 19 505 c 0
 17 507 16 509 16 511 c 0
 16 512 17 513 17 514 c 0
 17 516 18 518 19 520 c 1
 699 520 l 1
 699 518 699 516 700 514 c 0
 700 512 700 510 700 509 c 0
 700 507 700 506 699 505 c 0
 636 437 598 377 558 294 c 1
 547 294 l 1
 544 328 541 365 537 399 c 2
 531 451 l 2
 529 467 527 482 525 495 c 1
 418 495 l 1xd0
 404 -430 l 1
 459 -430 l 1
 459 -455 l 1
 217 -455 l 1xe0
EndSplineSet
Validated: 1
Colour: ffff
EndChar

StartChar: uni0442
Encoding: 1090 1090 53
Width: 598
Flags: W
HStem: -3 21G<292 308> 406.995 30.003<53.0015 68 172.815 276 374.479 457.171>
VStem: 60 107<191.508 291.415> 68 97.125<200.452 406.188> 250.001 100.999<-1.94238 266.096>
LayerCount: 2
Back
SplineSet
250.001 -0 m 1xe8
 250.001 135.934020542 261.727952344 283.303920319 276 406.995 c 1
 176 406.995 l 5
 170.125 390.5 165.125 328 165.125 293 c 0xd8
 165.125 259.106445312 165.125 230 167 199 c 1
 139 188 101 178 67 175 c 1
 60 178 l 1xe8
 63 246 68 315 68 385 c 0
 68 393 68 399.995 68 406.995 c 1xd8
 60 406.995 l 1
 55 409.995 53 415 53 422 c 0
 53 428 55 432.998 60 436.998 c 1
 587 436.998 l 2
 590 436.998 592 434 592 431 c 0
 592 429 591 426 590 425 c 2
 557 391 l 2
 528 361 494 326 476 287 c 0
 475 285 472 284 469 284 c 0
 465 284 463 285 463 287 c 0
 462 292 462 298 462 305 c 0
 462 320 462 336 462 351 c 0
 462 376 460 397.995 447 406.995 c 1
 376 406.995 l 1
 365 315.995 358 203 354 103 c 0
 352 65 351 31 351 -0 c 1
 333 -2 316 -3 300 -3 c 0
 284 -3 267.001 -2 250.001 -0 c 1xe8
EndSplineSet
Fore
SplineSet
250.001 -0 m 1xe8
 250.001 135.934020542 261.727952344 283.303920319 276 406.995 c 1
 176 406.995 l 5
 170.125 390.5 165.125 328 165.125 293 c 0xd8
 165.125 259.106445312 165.125 230 167 199 c 1
 139 188 101 178 67 175 c 1
 60 178 l 1xe8
 63 246 68 315 68 385 c 0
 68 393 68 399.995 68 406.995 c 1xd8
 60 406.995 l 1
 55 409.995 53 415 53 422 c 0
 53 428 55 432.998 60 436.998 c 1
 587 436.998 l 2
 590 436.998 592 434 592 431 c 0
 592 429 591 426 590 425 c 2
 557 391 l 2
 528 361 494 326 476 287 c 0
 475 285 472 284 469 284 c 0
 465 284 463 285 463 287 c 0
 462 292 462 298 462 305 c 0
 462 320 462 336 462 351 c 0
 462 376 460 397.995 447 406.995 c 1
 376 406.995 l 1
 365 315.995 358 203 354 103 c 0
 352 65 351 31 351 -0 c 1
 333 -2 316 -3 300 -3 c 0
 284 -3 267.001 -2 250.001 -0 c 1xe8
EndSplineSet
Validated: 1
Colour: ffff
EndChar

StartChar: uni0423
Encoding: 1059 1059 54
Width: 667
Flags: W
HStem: -460 25<236 310.188 366.027 428> 440 75<501.439 545.251>
VStem: 327.002 23.998<-417.019 -205.623>
DStem2: 37 445 47 423 0.908448 0.417998<-3.49066 73.4759>
LayerCount: 2
Back
SplineSet
351 -394 m 5
 357 -415 369 -435 394 -435 c 6
 428 -435 l 5
 428 -460 l 5
 236 -460 l 5
 236 -435 l 5
 275 -435 l 6
 300 -435 318.002 -422 327.002 -396 c 5
 329.002 -317 330 -238 335 -156 c 5
 335 -156 318 -76 306 -25 c 4
 277 87 235 200 192 300 c 4
 168 354 141 412 112 453 c 5
 47 423 l 5
 41 426 36 435 37 445 c 5
 200 520 l 5
 213 520 l 5
 244 482 274 418 298 366 c 4
 323 309 352 237 371 180 c 5
 385.222249349 246.291666667 401 305 423 368 c 4
 435.931109914 405.79862898 449.501884225 442.511728254 472.888916016 469.793592019 c 4
 496.324394877 497.13197114 529.616842798 515 582 515 c 4
 609 515 642 525 657 540 c 5
 666 533 667 524 667 508 c 4
 667 495 663 486 655 480 c 4
 647 475 636 468 623 461 c 4
 609 453 598.60248147 446.60841542 594 431 c 28
 588.6640625 412.904296875 600 400 600 383 c 4
 600 378 599 372 598 367 c 5
 590 362 l 5
 580.829218373 372.699245232 564.292606469 398.369457224 546.38891691 417.35419303 c 4
 534.265257149 430.209893906 521.51473013 440 510 440 c 12
 499.1640625 440 490.865964528 435.681764472 486 426 c 20
 462.695632331 379.630573386 441.494800874 332.133575707 423.888916016 278.5 c 4
 393.515624854 185.972517054 373.241752959 81.1098002981 367 -25 c 5
 358 -149 354 -275 351 -394 c 5
EndSplineSet
Fore
SplineSet
351 -394 m 5
 357 -415 369 -435 394 -435 c 6
 428 -435 l 5
 428 -460 l 5
 236 -460 l 5
 236 -435 l 5
 275 -435 l 6
 300 -435 318.002 -422 327.002 -396 c 5
 329.002 -317 330 -238 335 -156 c 5
 335 -156 318 -76 306 -25 c 4
 277 87 235 200 192 300 c 4
 168 354 141 412 112 453 c 5
 47 423 l 5
 41 426 36 435 37 445 c 5
 200 520 l 5
 213 520 l 5
 244 482 274 418 298 366 c 4
 323 309 352 237 371 180 c 5
 385.222249349 246.291666667 401 305 423 368 c 4
 449.284917067 444.832834505 478.159029888 515 582 515 c 4
 609 515 642 525 657 540 c 5
 666 533 667 524 667 508 c 4
 667 495 663 486 655 480 c 4
 647 475 636 468 623 461 c 4
 609 453 598.60248147 446.60841542 594 431 c 20
 592.983418323 427.552478317 592.571965042 424.29338579 592.571965042 421.158501695 c 0
 592.571965042 407.838686701 600 396.761227336 600 383 c 4
 600 378 599 372 598 367 c 5
 590 362 l 5
 580.829218373 372.699245232 564.292606469 398.369457224 546.38891691 417.35419303 c 4
 534.265257149 430.209893906 521.51473013 440 510 440 c 12
 499.1640625 440 490.865964528 435.681764472 486 426 c 20
 462.695632331 379.630573386 441.494800874 332.133575707 423.888916016 278.5 c 4
 393.515624854 185.972517054 373.241752959 81.1098002981 367 -25 c 5
 358 -149 354 -275 351 -394 c 5
EndSplineSet
Validated: 1
Colour: ffff
EndChar

StartChar: uni0443
Encoding: 1091 1091 55
Width: 461
Flags: W
HStem: -502.998 21.998<124.516 140.329> -6 21G<135.607 173.5> 381.001 58.999<375.489 450.612>
DStem2: 170 442 81 366 0.182517 -0.983203<3.3811 408.642> 174.056 -370 297.667 -20 0.145153 0.989409<134.983 374.782 413.95 750.828>
LayerCount: 2
Back
SplineSet
234 0 m 5
 208 -6 188 -6 159 -6 c 4
 153 -6 148 -6 142 -6 c 5
 136 45 128.772458381 97.3056636433 118 163 c 28
 104.977539062 242.4140625 93.5162094824 305.504987502 81 366 c 4
 80 374 76 383 71 394 c 5
 57 418 l 5
 58 425 l 5
 95 436 126 439 170 442 c 5
 183 371 198 301 210 229 c 4
 219.92578125 169.446289062 231.234431324 97.6349285221 238 39 c 5
 255 140 264.731705793 232.219503702 283 334 c 4
 290 373 317 412 352 424 c 4
 380 434 414 439 449 440 c 5
 451 432 452 425 452 419 c 4
 452 406 449 395.001 447 381.001 c 5
 410 376.001 382 371 361 347 c 4
 351 335 345.295356525 317.86496486 343.5 306 c 4
 332 230 313.538085938 90.4267578125 297.666992188 -20 c 4
 282.743164062 -123.833984375 254.564264201 -324.445131995 203.310504141 -431.999997331 c 4
 184.988637924 -470.44802244 163.973731832 -497.004613917 140 -502.998046875 c 5
 127.99995931 -502.998046875 114.99995931 -481 126 -481 c 5
 137.666625977 -481 142.326038346 -466.847710336 149 -452 c 4
 157.03946854 -434.114416244 165.544044753 -405.580383129 174.056002844 -370.000003648 c 4
 196.954215183 -274.284414386 219.905848406 -127.576103678 234 0 c 5
EndSplineSet
Fore
SplineSet
234 0 m 5
 208 -6 188 -6 159 -6 c 4
 153 -6 148 -6 142 -6 c 5
 129.213558719 102.684750887 101.205129168 268.341875687 81 366 c 4
 80 374 76 383 71 394 c 5
 57 418 l 5
 58 425 l 5
 95 436 126 439 170 442 c 5
 193.836285784 311.817208413 222.079364252 176.978843138 238 39 c 5
 255 140 264.731705793 232.219503702 283 334 c 4
 290 373 317 412 352 424 c 4
 380 434 414 439 449 440 c 5
 451 432 452 425 452 419 c 4
 452 406 449 395.001 447 381.001 c 5
 410 376.001 382 371 361 347 c 4
 351 335 345.295356525 317.86496486 343.5 306 c 4
 332 230 313.538085938 90.4267578125 297.666992188 -20 c 4
 282.743164062 -123.833984375 254.564264201 -324.445131995 203.310504141 -431.999997331 c 4
 184.988637924 -470.44802244 163.973731832 -497.004613917 140 -502.998046875 c 5
 131.192287965 -502.998046875 121.84588073 -491.147322428 121.84588073 -484.842109269 c 0
 121.84588073 -482.556803783 123.073697831 -481 126 -481 c 4
 137.666625977 -481 142.326038346 -466.847710336 149 -452 c 4
 157.03946854 -434.114416244 165.544044753 -405.580383129 174.056002844 -370.000003648 c 4
 196.954215183 -274.284414386 219.905848406 -127.576103678 234 0 c 5
EndSplineSet
Validated: 1
AlternateSubs2: "'salt' Stylistic Alternatives lookup 2-1" uni0443.salt
Colour: ffff
EndChar

StartChar: uni0478
Encoding: 1144 1144 56
Width: 1078
Flags: W
HStem: -502.998 21.998<737.516 753.329> -465.002 24.002<280.744 365.017> -6 21G<748.607 786.5> 381.001 58.999<988.489 1063.61> 504.998 24.002<280.983 364.044>
VStem: 65 126<-181.053 247.125> 455.008 125.992<-183.25 250.086>
DStem2: 783 442 694 366 0.182518 -0.983202<3.3809 408.642> 787.056 -370 910.667 -20 0.145153 0.989409<134.983 374.783 413.95 750.828>
LayerCount: 2
Back
SplineSet
847 0 m 5
 821 -6 801 -6 772 -6 c 4
 766 -6 761 -6 755 -6 c 5
 749 45 741.772460938 97.3056640625 731 163 c 28
 717.977539062 242.4140625 706.516601562 305.504882812 694 366 c 4
 693 374 689 383 684 394 c 5
 670 418 l 5
 671 425 l 5
 708 436 739 439 783 442 c 5
 796 371 811 301 823 229 c 4
 832.92578125 169.446289062 844.234375 97.634765625 851 39 c 5
 868 140 877.731445312 232.219726562 896 334 c 4
 903 373 930 412 965 424 c 4
 993 434 1027 439 1062 440 c 5
 1064 432 1065 425 1065 419 c 4
 1065 406 1062 395.000976562 1060 381.000976562 c 5
 1023 376.000976562 995 371 974 347 c 4
 964 335 958.294921875 317.865234375 956.5 306 c 4
 945 230 926.538085938 90.4267578125 910.666992188 -20 c 4
 895.743164062 -123.833984375 867.564453125 -324.4453125 816.310546875 -432 c 4
 797.98828125 -470.448242188 776.973632812 -497.004882812 753 -502.998046875 c 5
 741 -502.998046875 728 -481 739 -481 c 5
 750.666992188 -481 755.326171875 -466.84765625 762 -452 c 4
 770.0390625 -434.114257812 778.543945312 -405.580078125 787.055664062 -370 c 4
 809.954101562 -274.284179688 832.90625 -127.576171875 847 0 c 5
323 504.998 m 0
 273 504.998 248 465 232 425 c 0
 191 327 191 177 191 40 c 2
 191 32 l 2
 191 -74 194 -186 209 -277 c 0
 219 -335 237 -388 269 -420 c 0
 284 -434 302 -441 323 -441 c 0
 373 -441 398 -401 414 -362 c 0
 455 -263 455.008 -113 455.008 24 c 2
 455.008 32 l 2
 455.008 138 452 250 437 341 c 0
 427 399 409 452 377 483 c 0
 362 498 344 504.998 323 504.998 c 0
323 -465.002 m 0
 286 -465.002 251 -454 220 -431 c 0
 149 -379 107 -284 85 -176 c 0
 72 -115 65 -45 65 32 c 0
 65 178 89 305 139 396 c 0
 162 439 189 472 220 495 c 0
 251 518 286 529 323 529 c 0
 360 529 395 518 426 495 c 0
 497 443 539 348 562 240 c 0
 575 179 581 109 581 32 c 0
 581 -114 557 -241 508 -333 c 0
 485 -376 457 -408 426 -431 c 0
 395 -454 360 -465.002 323 -465.002 c 0
EndSplineSet
Fore
SplineSet
847 0 m 5
 821 -6 801 -6 772 -6 c 4
 766 -6 761 -6 755 -6 c 5
 742.213555956 102.684774378 714.20572755 268.341873715 694 366 c 4
 693 374 689 383 684 394 c 5
 670 418 l 5
 671 425 l 5
 708 436 739 439 783 442 c 5
 806.836276366 311.817259845 835.079202078 176.978716629 851 39 c 5
 868 140 877.731445312 232.219726562 896 334 c 4
 903 373 930 412 965 424 c 4
 993 434 1027 439 1062 440 c 5
 1064 432 1065 425 1065 419 c 4
 1065 406 1062 395.000976562 1060 381.000976562 c 5
 1023 376.000976562 995 371 974 347 c 4
 964 335 958.294921875 317.865234375 956.5 306 c 4
 945 230 926.538085938 90.4267578125 910.666992188 -20 c 4
 895.743164062 -123.833984375 867.564453125 -324.4453125 816.310546875 -432 c 4
 797.98828125 -470.448242188 776.973632812 -497.004882812 753 -502.998046875 c 5
 744.192311245 -502.998046875 734.845904565 -491.147304708 734.845904565 -484.842095127 c 0
 734.845904565 -482.55679736 736.073714692 -481 739 -481 c 4
 750.666992188 -481 755.326171875 -466.84765625 762 -452 c 4
 770.0390625 -434.114257812 778.543945312 -405.580078125 787.055664062 -370 c 4
 809.954101562 -274.284179688 832.90625 -127.576171875 847 0 c 5
323 504.998 m 0
 273 504.998 248 465 232 425 c 0
 191 327 191 177 191 40 c 2
 191 32 l 2
 191 -74 194 -186 209 -277 c 0
 219 -335 237 -388 269 -420 c 0
 284 -434 302 -441 323 -441 c 0
 373 -441 398 -401 414 -362 c 0
 455 -263 455.008 -113 455.008 24 c 2
 455.008 32 l 2
 455.008 138 452 250 437 341 c 0
 427 399 409 452 377 483 c 0
 362 498 344 504.998 323 504.998 c 0
323 -465.002 m 0
 286 -465.002 251 -454 220 -431 c 0
 149 -379 107 -284 85 -176 c 0
 72 -115 65 -45 65 32 c 0
 65 178 89 305 139 396 c 0
 162 439 189 472 220 495 c 0
 251 518 286 529 323 529 c 0
 360 529 395 518 426 495 c 0
 497 443 539 348 562 240 c 0
 575 179 581 109 581 32 c 0
 581 -114 557 -241 508 -333 c 0
 485 -376 457 -408 426 -431 c 0
 395 -454 360 -465.002 323 -465.002 c 0
EndSplineSet
Validated: 1
LCarets2: 1 0
AlternateSubs2: "'salt' Stylistic Alternatives lookup 2-1" uni0478.salt
Ligature2: "'ccmp' Glyph Composition/Decomposition lookup 0-1" uni041E uni0443
Colour: ffff
EndChar

StartChar: uni0479
Encoding: 1145 1145 57
Width: 722
Flags: W
HStem: -502.998 21.998<385.516 401.329> -6 21G<396.607 434.5> 381.001 58.999<636.489 711.612>
VStem: 58 53<158.282 274.049> 178 60<155.133 270.718>
DStem2: 431 442 342 366 0.182518 -0.983202<3.3809 408.642> 435.056 -370 558.667 -20 0.145153 0.989409<134.983 374.783 413.95 750.828>
LayerCount: 2
Back
SplineSet
495 0 m 5
 469 -6 449 -6 420 -6 c 4
 414 -6 409 -6 403 -6 c 5
 397 45 389.772460938 97.3056640625 379 163 c 28
 365.977539062 242.4140625 354.516601562 305.504882812 342 366 c 4
 341 374 337 383 332 394 c 5
 318 418 l 5
 319 425 l 5
 356 436 387 439 431 442 c 5
 444 371 459 301 471 229 c 4
 480.92578125 169.446289062 492.234375 97.634765625 499 39 c 5
 516 140 525.731445312 232.219726562 544 334 c 4
 551 373 578 412 613 424 c 4
 641 434 675 439 710 440 c 5
 712 432 713 425 713 419 c 4
 713 406 710 395.000976562 708 381.000976562 c 5
 671 376.000976562 643 371 622 347 c 4
 612 335 606.294921875 317.865234375 604.5 306 c 4
 593 230 574.538085938 90.4267578125 558.666992188 -20 c 4
 543.743164062 -123.833984375 515.564453125 -324.4453125 464.310546875 -432 c 4
 445.98828125 -470.448242188 424.973632812 -497.004882812 401 -502.998046875 c 5
 389 -502.998046875 376 -481 387 -481 c 5
 398.666992188 -481 403.326171875 -466.84765625 410 -452 c 4
 418.0390625 -434.114257812 426.543945312 -405.580078125 435.055664062 -370 c 4
 457.954101562 -274.284179688 480.90625 -127.576171875 495 0 c 5
191 447 m 0
 224 410 238 345 238 275 c 0
 238 148 192 47 121 -9 c 0
 118 -11 114 -13 110 -13 c 0
 107 -13 104 -12 103 -9 c 0
 76 42 58 102 58 178 c 0
 58 279 86 359 134 413 c 0
 146 427 159 438 174 447 c 0
 177 449 180 450 183 450 c 0
 186 450 189 449 191 447 c 0
161 154 m 1
 170 178 178 213 178 244 c 0
 178 246 178 248 178 250 c 0
 178 258 177 265 176 271 c 1
 166 277 159 280 150 280 c 0
 144 280 137 278 128 275 c 1
 116 255 112 217 112 186 c 0
 111 184 111 182 111 179 c 0
 111 171 112 164 113 158 c 1
 122 152 130 149 139 149 c 0
 146 149 153 150 161 154 c 1
EndSplineSet
Fore
SplineSet
495 0 m 5
 469 -6 449 -6 420 -6 c 4
 414 -6 409 -6 403 -6 c 5
 390.213555956 102.684774378 362.20572755 268.341873715 342 366 c 4
 341 374 337 383 332 394 c 5
 318 418 l 5
 319 425 l 5
 356 436 387 439 431 442 c 5
 454.836276366 311.817259845 483.079202078 176.978716629 499 39 c 5
 516 140 525.731445312 232.219726562 544 334 c 4
 551 373 578 412 613 424 c 4
 641 434 675 439 710 440 c 5
 712 432 713 425 713 419 c 4
 713 406 710 395.000976562 708 381.000976562 c 5
 671 376.000976562 643 371 622 347 c 4
 612 335 606.294921875 317.865234375 604.5 306 c 4
 593 230 574.538085938 90.4267578125 558.666992188 -20 c 4
 543.743164062 -123.833984375 515.564453125 -324.4453125 464.310546875 -432 c 4
 445.98828125 -470.448242188 424.973632812 -497.004882812 401 -502.998046875 c 5
 392.192311245 -502.998046875 382.845904565 -491.147304708 382.845904565 -484.842095127 c 0
 382.845904565 -482.55679736 384.073714692 -481 387 -481 c 4
 398.666992188 -481 403.326171875 -466.84765625 410 -452 c 4
 418.0390625 -434.114257812 426.543945312 -405.580078125 435.055664062 -370 c 4
 457.954101562 -274.284179688 480.90625 -127.576171875 495 0 c 5
191 447 m 0
 224 410 238 345 238 275 c 0
 238 148 192 47 121 -9 c 0
 118 -11 114 -13 110 -13 c 0
 107 -13 104 -12 103 -9 c 0
 76 42 58 102 58 178 c 0
 58 279 86 359 134 413 c 0
 146 427 159 438 174 447 c 0
 177 449 180 450 183 450 c 0
 186 450 189 449 191 447 c 0
161 154 m 1
 170 178 178 213 178 244 c 0
 178 246 178 248 178 250 c 0
 178 258 177 265 176 271 c 1
 166 277 159 280 150 280 c 0
 144 280 137 278 128 275 c 1
 116 255 112 217 112 186 c 0
 111 184 111 182 111 179 c 0
 111 171 112 164 113 158 c 1
 122 152 130 149 139 149 c 0
 146 149 153 150 161 154 c 1
EndSplineSet
Validated: 1
Ligature2: "'ccmp' Glyph Composition/Decomposition lookup 0-1" uni043E uni0443
Ligature2: "'ccmp' Glyph Composition/Decomposition lookup 0-1" uni1C82 uni0443
Colour: ffff
EndChar

StartChar: uniA64A
Encoding: 42570 42570 58
Width: 641
Flags: W
HStem: -463.997 59.997<300.22 342.824> 446.077 73.9234<465.358 509.823>
VStem: 93.001 97.999<-265.181 -134.5> 412 100<-308.5 -182.26>
DStem2: 38 450 48 428 0.906325 0.422581<-3.16444 72.1414>
LayerCount: 2
Back
SplineSet
331 20 m 1
 337 21 344 22 351 22 c 0
 360 22 370 18 381 11 c 0
 422 -16 457 -61 482 -106 c 0
 496 -132 512 -165 512 -199 c 0
 512 -269 477 -331 440 -373 c 0
 395 -423 328 -463.997 237 -463.997 c 1
 196 -448.997 161 -406 138 -370 c 0
 116 -337 93.001 -290 93.001 -243 c 0
 93.001 -183 127 -132 158 -96 c 0
 192 -55 240 -15 290 7 c 1
 259 132 212 265 160 372 c 0
 143 407 127 436 112 458 c 1
 48 428 l 1
 42 431 38 440 38 450 c 1
 201 526 l 1
 214 526 l 1
 214 525 l 1
 267.541213164 447.365240912 312.113094723 344.203126351 348 250 c 1
 348 251 349 254 350 258 c 0
 368.428956908 329.668165752 384.168560105 414.687119989 428.315835595 467.999998091 c 0
 454.444244746 499.553036791 490.523357089 520 543 520 c 0
 570 520 603 530 618 545 c 1
 627 538 628 529 628 513 c 0
 628 500 624 491 616 486 c 0
 589.737872571 466.303404428 575.497206238 460.062034338 568.133715328 445 c 0
 562.681994693 433.848495313 561 417.861940653 561 388 c 0
 561 383 560 377 559 372 c 1
 551 367 l 1
 534 387 l 2
 517 408 503.257752071 453.646709816 471 445 c 16
 426.799834186 433.152002142 401.5992925 351.837029706 379.888916016 263 c 0
 356.971880356 169.225422709 338.587072996 66.8409042516 331 20 c 1
406 -366 m 5
 410 -344 412 -321 412 -296 c 0
 412 -201 375 -133 321 -86 c 0
 302 -70 275 -49 246 -49 c 1
 228 -59 206 -82 196 -99 c 1
 193 -112 191 -127 191 -142 c 0
 191 -245 230 -321 285 -370 c 0
 301 -384 325 -404 349 -404 c 1
 369.169927381 -392.939072082 391.608369605 -382.447577594 406 -366 c 5
EndSplineSet
Fore
SplineSet
331 20 m 1
 337 21 344 22 351 22 c 0
 360 22 370 18 381 11 c 0
 422 -16 457 -61 482 -106 c 0
 496 -132 512 -165 512 -199 c 0
 512 -269 477 -331 440 -373 c 0
 395 -423 328 -463.997 237 -463.997 c 1
 196 -448.997 161 -406 138 -370 c 0
 116 -337 93.001 -290 93.001 -243 c 0
 93.001 -183 127 -132 158 -96 c 0
 192 -55 240 -15 290 7 c 1
 259 132 212 265 160 372 c 0
 143 407 127 436 112 458 c 1
 48 428 l 1
 42 431 38 440 38 450 c 1
 201 526 l 1
 214 526 l 1
 214 525 l 1
 267.541213164 447.365240912 312.113094723 344.203126351 348 250 c 1
 348 251 349 254 350 258 c 0
 378.661026358 369.459546947 400.215803147 520 543 520 c 0
 570 520 603 530 618 545 c 1
 627 538 628 529 628 513 c 0
 628 500 624 491 616 486 c 0
 570.799945779 452.099959334 561 458.94587119 561 388 c 0
 561 383 560 377 559 372 c 1
 551 367 l 1
 534 387 l 2
 518.442708554 406.21783061 505.613692226 446.076582834 478.825938866 446.076582834 c 0
 476.341771165 446.076582834 473.737560873 445.733804836 471 445 c 0
 426.799834186 433.152002142 401.5992925 351.837029706 379.888916016 263 c 0
 356.971880356 169.225422709 338.587072996 66.8409042516 331 20 c 1
406 -366 m 5
 410 -344 412 -321 412 -296 c 0
 412 -201 375 -133 321 -86 c 0
 302 -70 275 -49 246 -49 c 1
 228 -59 206 -82 196 -99 c 1
 193 -112 191 -127 191 -142 c 0
 191 -245 230 -321 285 -370 c 0
 301 -384 325 -404 349 -404 c 1
 369.169927381 -392.939072082 391.608369605 -382.447577594 406 -366 c 5
EndSplineSet
Validated: 1
Colour: ffff
EndChar

StartChar: uniA64B
Encoding: 42571 42571 59
Width: 460
Flags: W
HStem: -8 30<182.481 266.726>
VStem: 52.9961 101.004<489.893 596.519> 66.9971 88.0029<41.6364 155.418> 289.995 109.005<47.3125 199.196> 514.409 94.5913<740.749 821.359>
DStem2: 269 351 289.995 323 0.689326 0.724451<-202.682 -94.8768 0 145.5>
LayerCount: 2
Back
SplineSet
609 812 m 4xd8
 609 779 590 744 576 721 c 4
 535.227453232 651.10420554 498.172565991 584.056423664 455.664733887 521.5 c 4
 407.555441957 450.700217956 353.09282838 385.372565985 289.995 323 c 5
 330 274 l 6
 363.762421767 233.48509388 399 182.689962812 399 113 c 4
 399 59 366 27 328 10 c 4
 296 -6 253 -8 207 -8 c 4
 140 -8 97 19 74 64 c 4
 69 74 66.9971 85 66.9971 96 c 4xb8
 66.9971 132 92 162 112 186 c 4
 140.020838816 218.331737095 177.339689542 253.948541666 209 285 c 5
 173.095577404 331.675749375 141.998046875 364 99 420 c 4
 68.4757874606 459.754268541 52.9961 482.17594701 52.9961 540 c 4
 52.9961 573 73 597 92 615 c 4
 110.734897738 631.058483775 146.815134738 659 177 659 c 4
 185 659 190 654 190 647 c 4
 190 639.396944402 178.42178454 628.281189693 175 626 c 5
 161.845315889 611.200980375 154 596.333394887 154 568 c 4
 154 546 157 529 163 515 c 4
 187.972298322 457.920460978 232.813657406 399.248456792 269 351 c 5
 315.949549963 406.389918496 357.333488913 463.449520295 395.941005453 523.5 c 4
 430.519898043 577.28432165 462.871566264 633.467902195 495 693 c 4
 498.947276261 700.287279251 533.32352265 779 500 779 c 4
 494 779 486 776 475 771 c 4
 466.185180041 766.592590021 455 773.215992631 455 780 c 4
 455 798.253351786 514.541592617 825.788427362 528 832 c 4
 543.402554331 838.301044954 564.511705395 849 583 849 c 4
 594 849 604 845 607 831 c 4
 608 825 609 819 609 812 c 4xd8
227 260 m 5
 190.456201814 219.975840082 155 179.296411366 155 110 c 4
 155 66 175 22 219 22 c 4
 276 22 289.995 58 289.995 114 c 4
 289.995 145 284 171 272 193 c 4
 260 214 245 237 227 260 c 5
EndSplineSet
Fore
SplineSet
609 812 m 4xd8
 609 779 590 744 576 721 c 4
 535.227453232 651.10420554 498.172565991 584.056423664 455.664733887 521.5 c 4
 407.555441957 450.700217956 353.09282838 385.372565985 289.995 323 c 5
 330 274 l 6
 363.762421767 233.48509388 399 182.689962812 399 113 c 4
 399 59 366 27 328 10 c 4
 296 -6 253 -8 207 -8 c 4
 140 -8 97 19 74 64 c 4
 69 74 66.9971 85 66.9971 96 c 4xb8
 66.9971 132 92 162 112 186 c 4
 140.020838816 218.331737095 177.339689542 253.948541666 209 285 c 5
 173.095577404 331.675749375 141.998046875 364 99 420 c 4
 68.4757874606 459.754268541 52.9961 482.17594701 52.9961 540 c 4
 52.9961 573 73 597 92 615 c 4
 110.734897738 631.058483775 146.815134738 659 177 659 c 4
 185 659 190 654 190 647 c 4
 190 639.396944402 178.42178454 628.281189693 175 626 c 5
 161.845315889 611.200980375 154 596.333394887 154 568 c 4
 154 546 157 529 163 515 c 4
 187.972298322 457.920460978 232.813657406 399.248456792 269 351 c 5
 358.079712487 456.094042823 427.078867023 567.146135955 495 693 c 4
 497.681750606 697.950924195 514.408735341 735.870004868 514.408735341 759.675373569 c 0
 514.408735341 770.909194029 510.683765221 779 500 779 c 4
 494 779 486 776 475 771 c 4
 466.185180041 766.592590021 455 773.215992631 455 780 c 4
 455 798.253351786 514.541592617 825.788427362 528 832 c 4
 543.402554331 838.301044954 564.511705395 849 583 849 c 4
 594 849 604 845 607 831 c 4
 608 825 609 819 609 812 c 4xd8
227 260 m 5
 190.456201814 219.975840082 155 179.296411366 155 110 c 4
 155 66 175 22 219 22 c 4
 276 22 289.995 58 289.995 114 c 4
 289.995 145 284 171 272 193 c 4
 260 214 245 237 227 260 c 5
EndSplineSet
Validated: 1
AlternateSubs2: "'salt' Stylistic Alternatives lookup 2-1" uniA64B.salt uniA64B.salt2 uniA64B.salt3
Colour: ffff
EndChar

StartChar: uni0424
Encoding: 1060 1060 60
Width: 859
Flags: W
HStem: -455 25<279 335 466 521> -170 27<471 505.649> 246 30<312.638 353 477 517.664> 495 25<306 360 480 536>
VStem: 57 125<-37.1341 131.592> 335 131<-430 -170> 342 128<-430 -167.671 -141 23.7143> 353 124<-0.272727 246 273.103 495> 360 120<276 495> 640 125<-25.1634 140.944>
LayerCount: 2
Back
SplineSet
279 -455 m 1xfc80
 279 -430 l 1
 335 -430 l 5
 342 -170 l 1xfc80
 233 -158 135 -120 84 -48 c 0
 66 -22 57 10 57 48 c 0
 57 128 106 178 158 211 c 0
 209 244 281 267 353 276 c 1xfa80
 360 495 l 1
 306 495 l 1
 306 520 l 1
 536 520 l 1
 536 495 l 1
 480 495 l 1xf980
 477 275 l 1xfa80
 587 261 686 223 738 150 c 0
 756 124 765 93 765 58 c 0
 765 -25 717 -76 662 -108 c 0
 610 -140 539 -161 470 -170 c 1
 466 -430 l 1
 521 -430 l 1
 521 -455 l 1
 279 -455 l 1xfc80
182 50 m 0
 182 -30 229 -84 280 -115 c 0
 300 -126 320 -135 342 -141 c 1xfc80
 353 246 l 1xfa80
 280 227 223 181 195 117 c 0
 186 96 182 74 182 50 c 0
640 60 m 0
 640 112 618 150 592 179 c 0
 564 210 522 234 477 246 c 1xfa80
 471 -143 l 1
 542 -124 600 -75 626 -10 c 0
 635 12 640 35 640 60 c 0
EndSplineSet
Fore
SplineSet
279 -455 m 1xfc40
 279 -430 l 1
 335 -430 l 5xfc40
 342 -170 l 1xfa40
 233 -158 135 -120 84 -48 c 0
 66 -22 57 10 57 48 c 0
 57 128 106 178 158 211 c 0
 209 244 281 267 353 276 c 1xf940
 360 495 l 1
 306 495 l 1
 306 520 l 1
 536 520 l 1
 536 495 l 1
 480 495 l 1xf8c0
 477 275 l 1xf940
 587 261 686 223 738 150 c 0
 756 124 765 93 765 58 c 0
 765 -25 717 -76 662 -108 c 0
 610 -140 539 -161 470 -170 c 1xfa40
 466 -430 l 1
 521 -430 l 1
 521 -455 l 1
 279 -455 l 1xfc40
182 50 m 0
 182 -30 229 -84 280 -115 c 0
 300 -126 320 -135 342 -141 c 1xfa40
 353 246 l 1xf940
 280 227 223 181 195 117 c 0
 186 96 182 74 182 50 c 0
640 60 m 0
 640 112 618 150 592 179 c 0
 564 210 522 234 477 246 c 1xf940
 471 -143 l 1
 542 -124 600 -75 626 -10 c 0
 635 12 640 35 640 60 c 0
EndSplineSet
Validated: 1
Colour: ffff
EndChar

StartChar: uni0444
Encoding: 1092 1092 61
Width: 705
Flags: W
HStem: -6 30<396 446.218> 787 30<239.092 296.891> 818 30<420.219 453.415>
VStem: 50 116<115.24 248.505> 298 118<694.5 791> 315 87<106.094 355 483.92 738.375> 315 81<-246.876 -10 32 349.797> 315 66<-507.859 -270.106> 546 105<105.485 258.345>
LayerCount: 2
Back
SplineSet
298 791 m 1xb880
 280 788 265 787 246 787 c 1
 241 790 239 795 239 800 c 0
 239 806 241 813 244 817 c 1xd880
 316 823 382 832 443 848 c 1
 449 847 454 836 454 828 c 0
 454 824 453 820 451 818 c 1
 445 817 439 815 434 814 c 2
 420 810 l 1
 420 795 416 776 416 753 c 1xb880
 412 675 l 2
 408 616 404 547 404 485 c 1
 423 462 450 437 486 408 c 0
 520.989586815 380.008330548 553.134927567 352.343814673 586 323 c 0
 619.902049816 291.609213133 651 243.025553765 651 180 c 4
 651 115 613 75 571 48 c 0
 525 20 461 2 395 -6 c 1
 391 -171 385 -340 381 -498 c 1
 370 -504 365 -509 349 -509 c 0
 334 -509 326 -505 318 -498 c 1
 318 -421 315 -343 315 -262 c 0xb180
 315 -182 315 -98 315 -10 c 1xb280
 209 -6 117 34 72 101 c 0
 57 124 50 149 50 177 c 0
 50 202 56 224 68 243 c 0
 87 272 124 307 152 331 c 0
 202 372 266 411 290 475 c 0
 300 501 307 529 310 558 c 1
 308 637 301 718 298 791 c 1xb880
315 32 m 1x9280
 315 449 l 1x9180
 310 438 302 427 295 418 c 0
 264 377 226 337 198 293 c 0
 179 263 166 232 166 184 c 0
 166 141 191 106 214 83 c 1
 235 60 278 43 315 32 c 1x9280
546 182 m 0
 546 272 476 308 421 344 c 0
 415 348 409 352 402 355 c 1x9480
 402 244 399 133 396 24 c 1x9280
 460 33 509 71 533 121 c 0
 542 140 546 160 546 182 c 0
EndSplineSet
Fore
SplineSet
298 791 m 1xf880
 280 788 265 787 246 787 c 1
 241 790 239 795 239 800 c 0
 239 806 241 813 244 817 c 1
 316 823 382 832 443 848 c 1
 449 847 454 836 454 828 c 0
 454 824 453 820 451 818 c 1
 445 817 439 815 434 814 c 2
 420 810 l 1
 420 795 416 776 416 753 c 1xf880
 412 675 l 2
 408 616 404 547 404 485 c 1
 423 462 450 437 486 408 c 0
 520.989586815 380.008330548 553.134927567 352.343814673 586 323 c 0
 619.902049816 291.609213133 651 243.025553765 651 180 c 4
 651 115 613 75 571 48 c 0
 525 20 461 2 395 -6 c 1
 391 -171 385 -340 381 -498 c 1
 370 -504 365 -509 349 -509 c 0
 334 -509 326 -505 318 -498 c 1
 318 -421 315 -343 315 -262 c 0xf180
 315 -182 315 -98 315 -10 c 1xf280
 209 -6 117 34 72 101 c 0
 57 124 50 149 50 177 c 0
 50 202 56 224 68 243 c 0
 87 272 124 307 152 331 c 0
 202 372 266 411 290 475 c 0
 300 501 307 529 310 558 c 1
 308 637 301 718 298 791 c 1xf880
315 32 m 1xf280
 315 449 l 1xf180
 310 438 302 427 295 418 c 0
 264 377 226 337 198 293 c 0
 179 263 166 232 166 184 c 0
 166 141 191 106 214 83 c 1
 235 60 278 43 315 32 c 1xf280
546 182 m 0
 546 272 476 308 421 344 c 0
 415 348 409 352 402 355 c 1xf480
 402 244 399 133 396 24 c 1xf280
 460 33 509 71 533 121 c 0
 542 140 546 160 546 182 c 0
EndSplineSet
Validated: 1
AlternateSubs2: "'salt' Stylistic Alternatives lookup 2-1" uni0444.salt uni0444.salt2
Colour: ffff
EndChar

StartChar: uni0425
Encoding: 1061 1061 62
Width: 793
Flags: W
HStem: -548 25<-53 0 83 130> -455 25<423 473 600 660> 504 24G<302.646 321 679 718>
DStem2: 419 507 299 524 0.17943 -0.983771<-2.37942 223.966 263.768 363.253 411.105 411.105> 461 287 469 248 0.495203 0.868777<0 207.855>
LayerCount: 2
Back
SplineSet
-53 -548 m 1
 -53 -523 l 1
 0 -523 l 1
 371 129 l 1
 299 524 l 1
 343 524 384 518 419 507 c 1
 461 287 l 1
 570 477 l 1
 600 507 650 528 708 528 c 0
 728 528 749 526 763 520 c 1
 766 509 l 1
 747 490 732 482 716 458 c 0
 702 436 686 404 678 380 c 1
 668 380 l 1
 647 408 615 434 586 455 c 1
 469 248 l 1
 600 -430 l 1
 660 -430 l 1
 660 -455 l 1
 423 -455 l 1
 423 -430 l 1
 473 -430 l 1
 380 82 l 1
 83 -523 l 1
 130 -523 l 1
 130 -548 l 1
 -53 -548 l 1
EndSplineSet
Fore
SplineSet
-53 -548 m 1
 -53 -523 l 1
 0 -523 l 1
 371 129 l 1
 299 524 l 1
 343 524 384 518 419 507 c 1
 461 287 l 1
 570 477 l 1
 600 507 650 528 708 528 c 0
 728 528 749 526 763 520 c 1
 766 509 l 1
 747 490 732 482 716 458 c 0
 702 436 686 404 678 380 c 1
 668 380 l 1
 647 408 615 434 586 455 c 1
 469 248 l 1
 600 -430 l 1
 660 -430 l 1
 660 -455 l 1
 423 -455 l 1
 423 -430 l 1
 473 -430 l 1
 380 82 l 1
 83 -523 l 1
 130 -523 l 1
 130 -548 l 1
 -53 -548 l 1
EndSplineSet
Validated: 1
Colour: ffff
EndChar

StartChar: uni0445
Encoding: 1093 1093 63
Width: 474
Flags: W
HStem: -455 21G<-76 -69.5> 374 71<319.79 356.285>
VStem: -88 29<-454.892 -419.039> 252 113<-348 -275.508>
DStem2: -87 -434 -59 -446 0.424175 0.90558<-5.77276 549.011> 214 436.998 128 362 0.152965 -0.988232<21.5195 169.386 184.376 349.705 376.325 633.955> 236 269 275 287 0.370408 0.928869<0 129.161> 444 445 483 447 0.690783 0.723062<-12.6315 32.4208>
LayerCount: 2
Back
SplineSet
376 335 m 1
 371 337 357 344 357 351 c 1
 349.681507622 366.856733486 332.394606899 374 309 374 c 1
 275 287 l 2
 265 261 255 236 244 211 c 1
 244 211 250.867895761 164.565383116 256 135 c 24
 268.80859375 61.2099609375 278.455632769 8.66942211052 290 -54 c 0
 310 -156 332 -246 365 -336 c 1
 361 -348 l 1
 345 -350 328 -351 310 -351 c 0
 292 -351 273 -348 252 -348 c 1
 223 -218 198 -96 174 50 c 1
 151 3 129 -46 107 -94 c 0
 52.6968271658 -210.363941787 -3.85791324751 -329.173545016 -59 -446 c 0
 -62 -452 -67 -455 -72 -455 c 0
 -80 -455 -88 -449 -88 -440 c 0
 -88 -438 -88 -436 -87 -434 c 0
 -10.272980747 -274.488565237 63.700267109 -112.507325373 139 48 c 0
 147.582326901 66.4850117875 156.782916466 85.5115620495 165 104 c 1
 157 153 150 197 144 238 c 2
 128 362 l 1
 120.537955597 371.949392537 109.103474821 386.195366905 101 397 c 0
 92 408 82 420 73 429 c 1
 77 436.998 l 1
 94 438.998 122 440 142 440 c 0
 165 440 194 436.998 214 436.998 c 1
 220 385.998 228 326 236 269 c 1
 252 310 260 339 284 390 c 0
 295.247002053 413.899879364 323.437929885 427.920958283 355.999998469 435.818331699 c 4
 384.81451612 442.806800662 417.051928367 445 444 445 c 1
 450 451 457 458 463 464 c 1
 473 464 480 458 483 447 c 1
 466 429 448 410 431 392 c 0
 415.151340981 375.12884685 391.982457141 348.318714284 376 335 c 1
EndSplineSet
Fore
SplineSet
376 335 m 1
 371 337 357 344 357 351 c 1
 349.681507622 366.856733486 332.394606899 374 309 374 c 1
 275 287 l 2
 265 261 255 236 244 211 c 1
 255.448329554 133.59698215 276.939659066 16.8989936423 290 -54 c 0
 310 -156 332 -246 365 -336 c 1
 361 -348 l 1
 345 -350 328 -351 310 -351 c 0
 292 -351 273 -348 252 -348 c 1
 223 -218 198 -96 174 50 c 1
 151 3 129 -46 107 -94 c 0
 52.6968271658 -210.363941787 -3.85791324751 -329.173545016 -59 -446 c 0
 -62 -452 -67 -455 -72 -455 c 0
 -80 -455 -88 -449 -88 -440 c 0
 -88 -438 -88 -436 -87 -434 c 0
 -10.272980747 -274.488565237 63.700267109 -112.507325373 139 48 c 0
 147.582326901 66.4850117875 156.782916466 85.5115620495 165 104 c 1
 157 153 150 197 144 238 c 2
 128 362 l 1
 111.671305268 383.771592976 91.9045309049 410.095469095 73 429 c 1
 77 436.998 l 1
 94 438.998 122 440 142 440 c 0
 165 440 194 436.998 214 436.998 c 1
 220 385.998 228 326 236 269 c 1
 252 310 260 339 284 390 c 0
 304.274355082 433.083004552 381.357478961 445 444 445 c 1
 450 451 457 458 463 464 c 1
 473 464 480 458 483 447 c 1
 466 429 448 410 431 392 c 0
 415.151340981 375.12884685 391.982457141 348.318714284 376 335 c 1
EndSplineSet
Validated: 1
AlternateSubs2: "'salt' Stylistic Alternatives lookup 2-1" uni0445.salt uni0445.salt2 uni0445.salt3
Colour: ffff
EndChar

StartChar: uni0426
Encoding: 1062 1062 64
Width: 712
Flags: W
HStem: -749 25<417 473 604 664> -455 25<58 113 245 471> 495 25<85 139 259 315 410 465 580 635>
VStem: 113 132<-430 -180.962> 139 120<245.962 495> 465 115<139.458 495> 471 133<-724 -455 -430 -368.458>
LayerCount: 2
Back
SplineSet
259 495 m 1xe8
 245 -430 l 1
 471 -430 l 1xf2
 465 495 l 1
 410 495 l 1
 410 520 l 1
 635 520 l 1
 635 495 l 1
 580 495 l 1xe4
 604 -724 l 1
 664 -724 l 1
 664 -749 l 1
 417 -749 l 1
 417 -724 l 1
 473 -724 l 1
 471 -455 l 1
 58 -455 l 1
 58 -430 l 1
 113 -430 l 1xf2
 139 495 l 1
 85 495 l 1
 85 520 l 1
 315 520 l 1
 315 495 l 1
 259 495 l 1xe8
EndSplineSet
Fore
SplineSet
259 495 m 1xe8
 245 -430 l 1
 471 -430 l 1xf2
 465 495 l 1
 410 495 l 1
 410 520 l 1
 635 520 l 1
 635 495 l 1
 580 495 l 1xe4
 604 -724 l 1
 664 -724 l 1
 664 -749 l 1
 417 -749 l 1
 417 -724 l 1
 473 -724 l 1
 471 -455 l 1
 58 -455 l 1
 58 -430 l 1
 113 -430 l 1xf2
 139 495 l 1
 85 495 l 1
 85 520 l 1
 315 520 l 1
 315 495 l 1
 259 495 l 1xe8
EndSplineSet
Validated: 1
AlternateSubs2: "'salt' Stylistic Alternatives lookup 2-1" uni0426.salt
Colour: ffff
EndChar

StartChar: uni0446
Encoding: 1094 1094 65
Width: 488
Flags: W
HStem: 0 30<165 308.001> 425 20G<184.5 205 411.5 419>
VStem: 60 105<30 269.325> 300.914 98.0861<50.4802 417.642> 308.001 102.999<30 250.151> 380.064 76.9361<-208.506 -1.8629>
LayerCount: 2
Back
SplineSet
379.999 -108.911 m 4xe4
 379.999 -64.9664 379.998 -39.9732 377 0 c 1
 60 0 l 1
 60 88.0059721266 65.2055781954 146.069727442 72 231 c 0
 79 297 87 377 100 429 c 1
 135 438 168 444 201 445 c 1
 205 440 l 1
 177 322 165 172 165 30 c 1
 308.001 30 l 1xe8
 303.001 86 303.001 156 301.001 216 c 0
 299.369070786 253.573577418 301.001 290.916359215 301.001 329 c 0xf0
 301.001 363 304.001 390 308.001 419 c 1xe8
 332.001 429 363 438 393 443 c 0
 402 444 409 445 414 445 c 1
 419 440 l 1
 406 403 399 365 399 315 c 0xf0
 399 236 402 151 407 77 c 0
 408 56 411 41 411 30 c 1xe8
 457 30 l 1
 457 -155 444 -336 409 -489 c 0
 404 -510 398 -519 385 -530 c 1
 383 -530 l 2
 373 -530 364 -526 357 -518 c 1
 367 -476 372 -415 375 -371 c 0
 381.015754121 -286.779442308 379.999 -198.956237452 379.999 -108.911 c 4xe4
EndSplineSet
Fore
SplineSet
308.001 30 m 1xe8
 301.700422361 100.566469556 300.913931745 177.665910564 300.913931745 253.716377679 c 0xf0
 300.913931745 279.0201361 301.001 304.207768117 301.001 329 c 0
 301.001 363 304.001 390 308.001 419 c 1xe8
 332.001 429 363 438 393 443 c 0
 402 444 409 445 414 445 c 1
 419 440 l 1
 406 403 399 365 399 315 c 0xf0
 399 236 402 151 407 77 c 0
 408 56 411 41 411 30 c 1xe8
 457 30 l 1
 457 -155 444 -336 409 -489 c 0
 404 -510 398 -519 385 -530 c 1
 383 -530 l 2
 373 -530 364 -526 357 -518 c 1
 367 -476 372 -415 375 -371 c 0
 379.4959769 -308.056323405 380.063892671 -243.100360751 380.063892671 -176.708446296 c 0xe4
 380.063892671 -154.265955707 379.999 -131.659386654 379.999 -108.911 c 4
 379.999 -64.9664 379.998 -39.9732 377 0 c 1
 60 0 l 1
 60 88.0059721266 65.2055781954 146.069727442 72 231 c 0
 79 297 87 377 100 429 c 1
 135 438 168 444 201 445 c 1
 205 440 l 1
 177 322 165 172 165 30 c 1
 308.001 30 l 1xe8
EndSplineSet
Validated: 1
AlternateSubs2: "'salt' Stylistic Alternatives lookup 2-1" uni0446.salt
Colour: ffff
EndChar

StartChar: uni0427
Encoding: 1063 1063 66
Width: 646
Flags: W
HStem: -454.998 24.998<264 319 449 504> 256.002 29.998<284.867 372.149> 495 25<80 146 261.936 300 359 412 527.481 587>
VStem: 115 121<328.333 475.286> 319 130<-430 -135.656>
DStem2: 345 60 472 76 0.138483 0.990365<28.3826 207.893 227.239 440.087>
LayerCount: 2
Back
SplineSet
115 397 m 0
 115 432 131 473 146 495 c 1
 80 495 l 1
 80 520 l 1
 300 520 l 1
 300 495 l 1
 270 495 l 1
 247 463 236 429 236 392 c 0
 236 336 279 286 335 286 c 0
 349 286 363 289 378 296 c 1
 389 365 399 434 412 495 c 1
 359 495 l 1
 359 520 l 1
 587 520 l 1
 587 495 l 1
 530 495 l 1
 516.300963089 429.549045868 505.562326097 359.721848376 496.282065774 288.000011157 c 4
 487.271476139 218.362304822 479.635738069 146.938469806 472 76 c 1
 500 69 522 51 522 17 c 0
 522 -19 491 -39 462 -51 c 1
 454 -177 452 -310 449 -430 c 1
 504 -430 l 1
 504 -454.998 l 1
 264 -454.998 l 1
 264 -430 l 1
 319 -430 l 1
 321 -314 323 -187 332 -68 c 1
 302 -62 278 -45 278 -10 c 0
 278 28 316 49 345 60 c 1
 353 131 362 199 373 266 c 1
 349 258 328 256.002 294 256.002 c 0
 193 256.002 115 296 115 397 c 0
EndSplineSet
Fore
SplineSet
530 495 m 1
 502.768907482 364.895891302 487.361225534 218.710740456 472 76 c 1
 500 69 522 51 522 17 c 0
 522 -19 491 -39 462 -51 c 1
 454 -177 452 -310 449 -430 c 1
 504 -430 l 1
 504 -454.998 l 1
 264 -454.998 l 1
 264 -430 l 1
 319 -430 l 1
 321 -314 323 -187 332 -68 c 1
 302 -62 278 -45 278 -10 c 0
 278 28 316 49 345 60 c 1
 353 131 362 199 373 266 c 1
 349 258 328 256.002 294 256.002 c 0
 193 256.002 115 296 115 397 c 0
 115 432 131 473 146 495 c 1
 80 495 l 1
 80 520 l 1
 300 520 l 1
 300 495 l 1
 270 495 l 1
 247 463 236 429 236 392 c 0
 236 336 279 286 335 286 c 0
 349 286 363 289 378 296 c 1
 389 365 399 434 412 495 c 1
 359 495 l 1
 359 520 l 1
 587 520 l 1
 587 495 l 1
 530 495 l 1
EndSplineSet
Validated: 1
Colour: ffff
EndChar

StartChar: uni0447
Encoding: 1095 1095 67
Width: 375
Flags: W
HStem: -4 21G<229.5 248> 425 20G<138.5 157 330.5 353>
VStem: 55 102<364.405 427.885> 189 100<-2.38108 265.412>
LayerCount: 2
Back
SplineSet
189 -0 m 1xf8
 192 101 195 203 205 303 c 1
 184 302 l 1
 169 293 152 286 134 283 c 1
 97 297 74 342 62 382 c 0
 58 397 55 411.999 55 424.999 c 1
 82 437.999 120 442 157 445 c 1
 157 430.234869073 160.133880687 415.0609711 164.741879849 400.333335099 c 4
 172.617343746 375.162548056 184.798667551 351.295280078 193 333 c 1
 212 334 l 1
 222 366 235 404 250 429 c 1
 279 439 313 445 348 445 c 1
 353 436.998 l 1
 350 425.998 346.078409842 414.971748405 341 401 c 0
 328.521496312 366.6690737 305.227332866 316.370951674 302 263 c 0xf4
 296.276323674 168.346592608 291 86 289 -0 c 1
 271 -2 257 -4 239 -4 c 0
 220 -4 208 -2 189 -0 c 1xf8
EndSplineSet
Fore
SplineSet
157 445 m 1
 157 402.427472779 180.509361864 360.863731226 193 333 c 1
 212 334 l 1
 222 366 235 404 250 429 c 1
 279 439 313 445 348 445 c 1
 353 436.998 l 1
 338.454374336 383.66403923 306.345031376 334.854521745 302 263 c 0
 296.276323674 168.346592608 291 86 289 -0 c 1
 271 -2 257 -4 239 -4 c 0
 220 -4 208 -2 189 -0 c 1
 192 101 195 203 205 303 c 1
 184 302 l 1
 169 293 152 286 134 283 c 1
 97 297 74 342 62 382 c 0
 58 397 55 411.999 55 424.999 c 1
 82 437.999 120 442 157 445 c 1
EndSplineSet
Validated: 1
Colour: ffff
EndChar

StartChar: uni0428
Encoding: 1064 1064 68
Width: 922
Flags: W
HStem: -455 25<58 113 245 400 532 682 808 864> 495 25<85 139 259 305 361 406 526 571 630 675 790 845>
VStem: 113 132<-430 -180.962> 139 120<245.962 495> 400 132<-430 495> 675 115<135.278 495> 682 126<-430 -70.2778>
LayerCount: 2
Back
SplineSet
526 495 m 1xe8
 532 -430 l 1
 682 -430 l 1xea
 675 495 l 1
 630 495 l 1
 630 520 l 1
 845 520 l 1
 845 495 l 1
 790 495 l 1xcc
 808 -430 l 1
 864 -430 l 1
 864 -455 l 1
 58 -455 l 1
 58 -430 l 1
 113 -430 l 1xea
 139 495 l 1
 85 495 l 1
 85 520 l 1
 305 520 l 1
 305 495 l 1
 259 495 l 1xd8
 245 -430 l 1
 400 -430 l 1
 406 495 l 1
 361 495 l 1
 361 520 l 1
 571 520 l 1
 571 495 l 1
 526 495 l 1xe8
EndSplineSet
Fore
SplineSet
526 495 m 1xe8
 532 -430 l 1
 682 -430 l 1xea
 675 495 l 1
 630 495 l 1
 630 520 l 1
 845 520 l 1
 845 495 l 1
 790 495 l 1xcc
 808 -430 l 1
 864 -430 l 1
 864 -455 l 1
 58 -455 l 1
 58 -430 l 1
 113 -430 l 1xea
 139 495 l 1
 85 495 l 1
 85 520 l 1
 305 520 l 1
 305 495 l 1
 259 495 l 1xd8
 245 -430 l 1
 400 -430 l 1
 406 495 l 1
 361 495 l 1
 361 520 l 1
 571 520 l 1
 571 495 l 1
 526 495 l 1xe8
EndSplineSet
Validated: 1
Colour: ffff
EndChar

StartChar: uni0448
Encoding: 1096 1096 69
Width: 683
Flags: W
HStem: -0 30<149 276 379.164 522> 425 20G<201.698 224 423 445 645 667>
VStem: 47 102<30 273.83> 276 103<30 295.463> 515.446 102.554<32.2732 383.598>
LayerCount: 2
Back
SplineSet
618 195 m 0
 618 123 620 64 626 -0 c 1
 47 -0 l 1
 47 14.6666666667 47 29.3333333333 47 44 c 0
 50 179 69 327 109 430 c 1
 140.855475757 437.351263636 182.396609272 445 221 445 c 5
 224 442 l 1
 181 364 158 241 153 125 c 0
 151 88 150 56 149 30 c 1
 276 30 l 1
 276 164 285 247 309 345 c 0
 316 377 327 405 340 428 c 1
 369 436 405 444 441 444 c 1
 445 439 l 1
 393 351 379 205 379 68 c 0
 379 52 379 39 380 30 c 1
 522 30 l 1
 517.374453206 73.9426945428 516.022160682 126.565638988 516.5 180 c 0
 517.028713339 239.123346228 520.045202451 299.127950877 528.785386585 346.999997023 c 0
 535.217228741 382.228710714 544.151757301 411.157940407 556 429 c 1
 585 440 626 445 664 445 c 1
 667 435 l 1
 650.000161929 416.969868712 638.870483266 392.25689761 631.59492529 363.500002938 c 0
 619.24427456 314.683628534 618 254.21392513 618 195 c 0
EndSplineSet
Fore
SplineSet
667 435 m 1
 621.008027424 386.220635145 618 288.867853622 618 195 c 0
 618 123 620 64 626 -0 c 1
 47 -0 l 1
 47 14.6666666667 47 29.3333333333 47 44 c 0
 50 179 69 327 109 430 c 1
 140.855475757 437.351263636 182.396609272 445 221 445 c 5
 224 442 l 1
 181 364 158 241 153 125 c 0
 151 88 150 56 149 30 c 1
 276 30 l 1
 276 164 285 247 309 345 c 0
 316 377 327 405 340 428 c 1
 369 436 405 444 441 444 c 1
 445 439 l 1
 393 351 379 205 379 68 c 0
 379 52 379 39 380 30 c 1
 522 30 l 1
 517.749363374 70.3810479433 515.446287506 118.045405582 515.446287506 166.238800053 c 0
 515.446287506 231.000430602 519.605094456 296.717375775 528.785386585 346.999997023 c 0
 535.217228741 382.228710714 544.151757301 411.157940407 556 429 c 1
 585 440 626 445 664 445 c 1
 667 435 l 1
EndSplineSet
Validated: 1
Colour: ffff
EndChar

StartChar: uni0429
Encoding: 1065 1065 70
Width: 922
Flags: W
HStem: -697 25<343 397 532 585> -455 25<58 113 245 399 532 682 808 864> 495 25<85 139 259 305 361 406 526 571 630 675 790 845>
VStem: 113 132<-430 -180.962> 139 120<245.962 495> 399 133<-672 -455 -430 230.714> 406 120<-430 495> 675 115<135.278 495> 682 126<-430 -70.2778>
LayerCount: 2
Back
SplineSet
526 495 m 1xe2
 532 -430 l 1
 682 -430 l 1xe480
 675 495 l 1
 630 495 l 1
 630 520 l 1
 845 520 l 1
 845 495 l 1
 790 495 l 1xe1
 808 -430 l 1
 864 -430 l 1
 864 -455 l 1
 532 -455 l 1
 532 -672 l 1
 585 -672 l 1
 585 -697 l 1
 343 -697 l 1
 343 -672 l 1
 397 -672 l 1
 399 -455 l 1
 58 -455 l 1
 58 -430 l 1
 113 -430 l 1xf480
 139 495 l 1
 85 495 l 1
 85 520 l 1
 305 520 l 1
 305 495 l 1
 259 495 l 1xe8
 245 -430 l 1
 399 -430 l 1xf4
 406 495 l 1
 361 495 l 1
 361 520 l 1
 571 520 l 1
 571 495 l 1
 526 495 l 1xe2
EndSplineSet
Fore
SplineSet
526 495 m 1xe2
 532 -430 l 1
 682 -430 l 1xe480
 675 495 l 1
 630 495 l 1
 630 520 l 1
 845 520 l 1
 845 495 l 1
 790 495 l 1xe1
 808 -430 l 1
 864 -430 l 1
 864 -455 l 1
 532 -455 l 1
 532 -672 l 1
 585 -672 l 1
 585 -697 l 1
 343 -697 l 1
 343 -672 l 1
 397 -672 l 1
 399 -455 l 1
 58 -455 l 1
 58 -430 l 1
 113 -430 l 1xf480
 139 495 l 1
 85 495 l 1
 85 520 l 1
 305 520 l 1
 305 495 l 1
 259 495 l 1xe8
 245 -430 l 1
 399 -430 l 1xf4
 406 495 l 1
 361 495 l 1
 361 520 l 1
 571 520 l 1
 571 495 l 1
 526 495 l 1xe2
EndSplineSet
Validated: 1
Colour: ffff
EndChar

StartChar: uni0449
Encoding: 1097 1097 71
Width: 664
Flags: W
HStem: 0 30<150 272 375.164 503> 425 20G<199.716 221 413 435 624.152 644>
VStem: 48.001 101.999<30 291.048> 277.174 97.8259<-262.959 0 30 293.557> 498.834 98.1655<31.4637 378.259>
LayerCount: 2
Back
SplineSet
597 195 m 0xf4
 598 124 604 65 611 -0 c 1
 375 0 l 1
 372.952528861 -109.880951147 376.494575143 -207.185488095 361.147891026 -297 c 0
 354.268514065 -337.260676463 340.264408692 -401.455565067 314.797620894 -445.999998614 c 0
 300.223498912 -471.491867211 281.89530386 -490.548135361 259 -495 c 1
 249 -492 243 -486 240 -475 c 1
 252.541291727 -462.458708273 260.680715771 -441.660869763 266.013973502 -417.000001762 c 0
 276.278894834 -369.535228296 276.148456627 -307.75997713 277 -263 c 0
 277.923226403 -214.472122264 274.909720483 -164.849642542 274.178368445 -115.000010857 c 0
 273.616015491 -76.6695131147 273 -38.2047199025 273 0 c 1xec
 48 -0 l 1
 48.001238333 16.3324283337 48.0010264688 32.6663068646 48.001 49 c 0
 50.001 186 68 333 106 430 c 1
 137.523096548 437.274560742 181.432232432 445 218 445 c 1
 221 442 l 1
 179 365 157 241 153 125 c 0
 152 88 151 56 150 30 c 1
 272 30 l 1
 272 127.657617901 282.24708803 247.547212159 301 346 c 0
 307 378 322 415 330 429 c 1
 359 437 395 445 431 445 c 1
 435 440 l 1
 406 392 401 347 391 284 c 0
 382 220 375 141 375 68 c 0
 375 52 375 39 376 30 c 1
 503 30 l 1
 497.590192323 77.33581717 499 140.699475478 499 196 c 0
 499 251 503 307 512 354 c 1
 517.643735769 377.703690231 524.147674516 396.369186291 532 416 c 1
 559.241703629 428.48578083 607.304415799 441 641 441 c 1
 644 431 l 1
 616 393 610 347 602 288 c 0
 598 258 597 230 597 195 c 0xf4
EndSplineSet
Fore
SplineSet
597 195 m 0
 598 124 604 65 611 -0 c 1
 375 0 l 1
 372.952528861 -109.880951147 376.494575143 -207.185488095 361.147891026 -297 c 0
 351.192333871 -355.263628801 324.874508475 -482.191067798 259 -495 c 1
 249 -492 243 -486 240 -475 c 1
 277.39770956 -437.60229044 275.729545453 -329.779354132 277 -263 c 0
 277.1207246 -256.65430993 277.174134331 -250.289903071 277.174134331 -243.908719 c 0
 277.174134331 -201.490589366 274.814086106 -158.331114893 274.178368445 -115.000010857 c 0
 273.616015491 -76.6695131147 273 -38.2047199025 273 0 c 1
 48 -0 l 1
 48.0008869727 11.6983220066 48.0010299458 23.3973880128 48.0010299458 35.0965969921 c 0
 48.001 49 l 0
 50.001 186 68 333 106 430 c 1
 137.523096548 437.274560742 181.432232432 445 218 445 c 1
 221 442 l 1
 179 365 157 241 153 125 c 0
 152 88 151 56 150 30 c 1
 272 30 l 1
 272 127.657617901 282.24708803 247.547212159 301 346 c 0
 307 378 322 415 330 429 c 1
 359 437 395 445 431 445 c 1
 435 440 l 1
 406 392 401 347 391 284 c 0
 382 220 375 141 375 68 c 0
 375 52 375 39 376 30 c 1
 503 30 l 1
 499.443733784 61.1173293873 498.834498921 99.1609365634 498.834498921 137.287110079 c 0
 498.834498921 157.158637988 499 177.052595372 499 196 c 0
 499 251 503 307 512 354 c 1
 517.643735769 377.703690231 524.147674516 396.369186291 532 416 c 1
 559.241703629 428.48578083 607.304415799 441 641 441 c 1
 644 431 l 1
 616 393 610 347 602 288 c 0
 598 258 597 230 597 195 c 0
EndSplineSet
Validated: 1
AlternateSubs2: "'salt' Stylistic Alternatives lookup 2-1" uni0449.salt
Colour: ffff
EndChar

StartChar: uni042A
Encoding: 1066 1066 72
Width: 641
Flags: W
HStem: -455 25<65 126 254 383.999 511 541> 495 25<274 351 468 532>
VStem: 383.999 127.001<-430 -39> 383.999 120.001<-430 -39>
DStem2: 126 -430 254 -430 0.236352 0.971668<30.253 497.415 506.252 535.258>
LayerCount: 2
Back
SplineSet
468 495 m 1
 368 62 l 1
 381 24 410 4 444 -12 c 0
 461 -21 479 -27 500 -32 c 1
 504 -39 l 1
 511 -430 l 1
 541 -430 l 1
 541 -455 l 1
 65 -455 l 1
 65 -430 l 1
 126 -430 l 1
 351 495 l 1
 274 495 l 1
 225 294 l 1
 214 294 l 1
 185 380 155 441 100 505 c 0
 97 508 99 510 99 514 c 0
 99 516 99 518 100 520 c 1
 532 520 l 1
 532 495 l 1
 468 495 l 1
383.999 -3 m 1
 374.999 6 367 13 360 25 c 1
 254 -430 l 1
 383.999 -430 l 1
 383.999 -3 l 1
EndSplineSet
Fore
SplineSet
468 495 m 1xe0
 368 62 l 1
 381 24 410 4 444 -12 c 0
 461 -21 479 -27 500 -32 c 1
 504 -39 l 1xd0
 511 -430 l 1
 541 -430 l 1
 541 -455 l 1
 65 -455 l 1
 65 -430 l 1
 126 -430 l 1
 351 495 l 1
 274 495 l 1
 225 294 l 1
 214 294 l 1
 185 380 155 441 100 505 c 0
 97 508 99 510 99 514 c 0
 99 516 99 518 100 520 c 1
 532 520 l 1
 532 495 l 1
 468 495 l 1xe0
383.999 -3 m 1
 374.999 6 367 13 360 25 c 1
 254 -430 l 1
 383.999 -430 l 1xe0
 383.999 -3 l 1
EndSplineSet
Validated: 1
Colour: ffff
EndChar

StartChar: uni044A
Encoding: 1098 1098 73
Width: 489
Flags: W
HStem: 0 30<284 341> 407.001 29.9971<171.676 297>
DStem2: 48 186 151 205 0.107966 0.994155<18.7602 233.205>
LayerCount: 2
Back
SplineSet
48 186 m 1
 59 257 72 360.998046875 80 436.998046875 c 1
 432 436.998046875 l 1
 435 430 l 1
 392 374 351 301 327 228 c 2
 318 201 l 1
 330 206 342 211 354 215 c 2
 393 227 l 2
 395 228 397 226 399 223 c 1
 417 154 432 76 442 0 c 1
 177 0 l 1
 187 87 213 171 238 251 c 0
 255 306 276 360.000976562 297 407.000976562 c 1
 173 407.000976562 l 1
 166 343.000976562 158 268 151 205 c 1
 120 192 91 184 53 181 c 1
 48 186 l 1
328 116 m 1
 324 134 322 157 308 165 c 1
 298 121 290 76 284 30 c 1
 341 30 l 1
 339 46 336 68 333 85 c 2
 328 116 l 1
EndSplineSet
Fore
SplineSet
48 186 m 1
 59 257 72 360.998046875 80 436.998046875 c 1
 432 436.998046875 l 1
 435 430 l 1
 392 374 351 301 327 228 c 2
 318 201 l 1
 330 206 342 211 354 215 c 2
 393 227 l 2
 395 228 397 226 399 223 c 1
 417 154 432 76 442 0 c 1
 177 0 l 1
 187 87 213 171 238 251 c 0
 255 306 276 360.000976562 297 407.000976562 c 1
 173 407.000976562 l 1
 166 343.000976562 158 268 151 205 c 1
 120 192 91 184 53 181 c 1
 48 186 l 1
328 116 m 1
 324 134 322 157 308 165 c 1
 298 121 290 76 284 30 c 1
 341 30 l 1
 339 46 336 68 333 85 c 2
 328 116 l 1
EndSplineSet
Validated: 1
Colour: ffff
EndChar

StartChar: uni042B
Encoding: 1067 1067 74
Width: 862
Flags: W
HStem: -455 25<58 113 245 379.001 507.611 534 567 622.001 748 804> 495 25<85 139 259 315 560 615.001 730 785>
VStem: 113 132<-430 -180.962> 139 114<245.962 495> 379.001 129.999<-430 -271.489> 615.001 114.999<135.278 495> 622.001 125.999<-430 -70.2778>
LayerCount: 2
Back
SplineSet
259 495 m 5xd8
 255 203 l 5
 259 152 266 118 287 84 c 4
 302 59 327 30 352 9 c 6
 388 -21 l 6
 410.327868852 -39.606557377 436.8515625 -65.38671875 446.5 -98 c 28
 485.104492188 -228.48828125 494 -306 509 -430 c 5
 534 -430 l 5
 534 -455 l 5
 58 -455 l 5
 58 -430 l 5
 113 -430 l 5xe8
 139 495 l 5
 85 495 l 5
 85 520 l 5
 315 520 l 5
 315 495 l 5
 259 495 l 5xd8
567 -455 m 1
 567 -430 l 1
 622.001 -430 l 1xca
 615.001 495 l 1
 560 495 l 1
 560 520 l 1
 785 520 l 1
 785 495 l 1
 730 495 l 1xcc
 748 -430 l 1xca
 804 -430 l 1
 804 -455 l 1
 567 -455 l 1
311 6 m 4
 298.831240516 25.2138307639 285 41 285 41 c 6
 272 57 262 75 253 94 c 5xd8
 245 -430 l 5xe8
 379.001 -430 l 5
 374.001 -317 357 -190 336 -89 c 4
 328 -51 320.5 -9 311 6 c 4
EndSplineSet
Fore
SplineSet
259 495 m 5xd8
 255 203 l 5
 259 152 266 118 287 84 c 4
 302 59 327 30 352 9 c 6
 388 -21 l 6
 410.327868852 -39.606557377 436.8515625 -65.38671875 446.5 -98 c 28
 485.104492188 -228.48828125 494 -306 509 -430 c 5
 534 -430 l 5
 534 -455 l 5
 58 -455 l 5
 58 -430 l 5
 113 -430 l 5xe8
 139 495 l 5
 85 495 l 5
 85 520 l 5
 315 520 l 5
 315 495 l 5
 259 495 l 5xd8
567 -455 m 1
 567 -430 l 1
 622.001 -430 l 1xca
 615.001 495 l 1
 560 495 l 1
 560 520 l 1
 785 520 l 1
 785 495 l 1
 730 495 l 1xcc
 748 -430 l 1xca
 804 -430 l 1
 804 -455 l 1
 567 -455 l 1
311 6 m 4
 298.831240516 25.2138307639 285 41 285 41 c 6
 272 57 262 75 253 94 c 5xd8
 245 -430 l 5xe8
 379.001 -430 l 5
 374.001 -317 357 -190 336 -89 c 4
 328 -51 320.5 -9 311 6 c 4
EndSplineSet
Validated: 1
Colour: ffff
EndChar

StartChar: uni044B
Encoding: 1099 1099 75
Width: 529
Flags: W
HStem: 0 30<154 205> 422 20G<189 215 469.5 493>
VStem: 365.002 97.998<3.53766 419.781> 376 106<0 106>
LayerCount: 2
Back
SplineSet
164 204 m 1
 170.088898017 206.854170945 190.090452209 215.739545258 209.499999355 223.0729169 c 0
 225.023707543 228.938129546 240.168722964 233.810563153 247.514294737 233.810563153 c 0
 249.991070656 233.810563153 251.581127922 233.256616235 252 232 c 0
 277 164 298 80 309 0 c 1
 53 0 l 1
 57 77.5 61.8622110714 155.795016717 72 234 c 0
 80.568244616 300.097196507 88.7248360978 363.53424605 101 420 c 1
 136 433 168 442 210 442 c 1
 215 436.998 l 1
 197 391.998 185 358 176 301 c 0
 171 268 166.5 233.5 164 204 c 1
463 237 m 0
 463 147 472 79 482 0 c 1
 464 -2 446 -3 427 -3 c 0
 408 -3 391 -2 376 0 c 1
 369.5 72 365.002 151 365.002 235 c 0
 365.002 306 367 369.999023438 382 423.999023438 c 1
 412 434.999023438 450 445 489 445 c 1
 493 436.998 l 5
 485.5 425.5 475.5 399 472.5 378 c 0
 466.749023438 330.845703125 463 292.220111061 463 237 c 0
162 175 m 1
 157 126 154 77 154 30 c 1
 205 30 l 1
 200.939929571 54.360422575 196.567283726 80.818592753 190.828872067 105.99999801 c 0
 186.261487324 126.042681076 180.828879629 145.276523928 174 162 c 0
 171 167 167 172 162 175 c 1
EndSplineSet
Fore
SplineSet
164 204 m 1xc0
 173.651415909 208.524101207 229.329034114 233.810563153 247.514294737 233.810563153 c 0
 249.991070656 233.810563153 251.581127922 233.256616235 252 232 c 0
 277 164 298 80 309 0 c 1
 53 0 l 1
 60.2694202478 140.845017301 74.2588557391 296.9907364 101 420 c 1
 136 433 168 442 210 442 c 1
 215 436.998 l 1
 197 391.998 185 358 176 301 c 0
 171 268 166.5 233.5 164 204 c 1xc0
463 237 m 0xe0
 463 147 472 79 482 0 c 1
 464 -2 446 -3 427 -3 c 0
 408 -3 391 -2 376 0 c 1xd0
 369.5 72 365.002 151 365.002 235 c 0
 365.002 306 367 369.999023438 382 423.999023438 c 1
 412 434.999023438 450 445 489 445 c 1
 493 436.998 l 5
 485.5 425.5 475.5 399 472.5 378 c 0
 466.749023438 330.845703125 463 292.220111061 463 237 c 0xe0
162 175 m 1
 157 126 154 77 154 30 c 1
 205 30 l 1
 197.633334921 74.1999904788 189.185408325 124.81193599 174 162 c 0
 171 167 167 172 162 175 c 1
EndSplineSet
Validated: 1
Colour: ffff
EndChar

StartChar: uni042C
Encoding: 1068 1068 76
Width: 633
Flags: W
HStem: -455 25<75 130 262 396.001 524.611 551> 495 25<102 156 276 332>
VStem: 130 132<-430 -180.962> 156 114<245.962 495> 396.001 129.999<-430 -271.489>
LayerCount: 2
Back
SplineSet
276 495 m 5xd8
 272 203 l 5
 276 152 283 118 304 84 c 4
 319 59 344 30 369 9 c 6
 405 -21 l 6
 427.328125 -39.6064453125 453.8515625 -65.38671875 463.5 -98 c 28
 502.104492188 -228.48828125 511 -306 526 -430 c 5
 551 -430 l 5
 551 -455 l 5
 75 -455 l 5
 75 -430 l 5
 130 -430 l 5xe8
 156 495 l 5
 102 495 l 5
 102 520 l 5
 332 520 l 5
 332 495 l 5
 276 495 l 5xd8
328 6 m 4
 315.831054688 25.2138671875 302 41 302 41 c 6
 289 57 279 75 270 94 c 5xd8
 262 -430 l 5xe8
 396.000976562 -430 l 5
 391.000976562 -317 374 -190 353 -89 c 4
 345 -51 337.5 -9 328 6 c 4
EndSplineSet
Fore
SplineSet
276 495 m 5xd8
 272 203 l 5
 276 152 283 118 304 84 c 4
 319 59 344 30 369 9 c 6
 405 -21 l 6
 427.328125 -39.6064453125 453.8515625 -65.38671875 463.5 -98 c 28
 502.104492188 -228.48828125 511 -306 526 -430 c 5
 551 -430 l 5
 551 -455 l 5
 75 -455 l 5
 75 -430 l 5
 130 -430 l 5xe8
 156 495 l 5
 102 495 l 5
 102 520 l 5
 332 520 l 5
 332 495 l 5
 276 495 l 5xd8
328 6 m 4
 315.831054688 25.2138671875 302 41 302 41 c 6
 289 57 279 75 270 94 c 5xd8
 262 -430 l 5
 396.000976562 -430 l 5
 391.000976562 -317 374 -190 353 -89 c 4
 345 -51 337.5 -9 328 6 c 4
EndSplineSet
Validated: 1
Colour: ffff
EndChar

StartChar: uni044C
Encoding: 1100 1100 77
Width: 370
Flags: W
HStem: 0 30<159 218> 422 20G<197 223>
VStem: 56 103<30 192.42>
LayerCount: 2
Back
SplineSet
56 10 m 5
 61 117 74 233 89 334 c 4
 94 369 99 397 104 420 c 5
 138 433 176 440 218 442 c 5
 223 436.998 l 5
 207.5 405.5 189 355 181 301 c 4
 177 275 174 251 171 225 c 5
 186.520885311 231.035899843 201.209042491 236.581235579 214.499997975 241.157684432 c 4
 228.871499749 246.106195687 241.609381669 249.921876334 252 252 c 4
 256.0430377 252.80860754 258 253 259 250 c 4
 285.62484749 176.781669401 309.360478521 86.3836360318 323 0 c 5
 56 0 l 5
 56 10 l 5
179 181 m 4
 176 187 173 192 168 195 c 5
 162 140 161 83 159 30 c 5
 218 30 l 5
 212.99607584 53.3516460782 208.157326353 72.9324770186 203 97 c 4
 195.678202321 125.066891102 189.165566236 155.586084411 179 181 c 4
EndSplineSet
Fore
SplineSet
171 225 m 5
 179.785033888 228.416402068 236.4088587 251.971234238 253.945730025 251.971234238 c 0
 256.740295737 251.971234238 258.54230265 251.373092049 259 250 c 4
 285.62484749 176.781669401 309.360478521 86.3836360318 323 0 c 5
 56 0 l 5
 56 10 l 5
 61 117 74 233 89 334 c 4
 94 369 99 397 104 420 c 5
 138 433 176 440 218 442 c 5
 223 436.998 l 5
 207.5 405.5 189 355 181 301 c 4
 177 275 174 251 171 225 c 5
218 30 m 5
 207.194631284 80.4250540051 197.0583889 135.854027751 179 181 c 4
 176 187 173 192 168 195 c 5
 162 140 161 83 159 30 c 5
 218 30 l 5
EndSplineSet
Validated: 1
Colour: ffff
EndChar

StartChar: uni042D
Encoding: 1069 1069 78
Width: 916
Flags: W
HStem: -464.825 21.8247<413.169 512.051> -383.002 59.002<157.5 268.672> 503 40.218<412.756 589.947>
VStem: 68 120<-466.486 -414.35> 703.995 150.005<-174.088 84 103.359 265.258>
DStem2: 430 70 446 47 0.825456 0.564466<-57.7911 51.5242>
LayerCount: 2
Back
SplineSet
68 -479 m 1
 61 -458 60 -442 60 -413 c 0
 60 -372 92 -346 122 -333 c 0
 135 -327 150 -324 165 -324 c 0
 223 -324 248 -333 280 -352 c 0
 326.044752515 -379.626851509 360.002262783 -409.514492014 412 -432 c 0
 430.722632462 -439.709319249 442.012716327 -443 456 -443 c 0
 508 -443 557 -419 602 -372 c 0
 662 -309 694.07902367 -220.800910232 699.995117188 -133 c 0
 705.307080615 -54.1650014191 704.389295932 7.4942599123 703.995 84 c 1
 697.995 78 691 72 683 67 c 2
 568 -10 l 1
 557 -14 548 -8 540 -3 c 0
 519.952793639 12.0354047706 493.394988027 44.2350838142 489 75 c 1
 446 47 l 2
 432.695664957 38.1304433048 414.858993038 23.0032378169 404 4 c 1
 396 6 383 14 382 22 c 1
 395 42 408 55 430 70 c 2
 566 163 l 1
 575 159 583 152 589 143 c 0
 599 127 610 111 621 95 c 1
 628 82 632 78 640 72 c 1
 662 88 685.995 103 703.995 124 c 1
 703.995 125 l 2
 703.995 194 701 249 694 292 c 0
 676 408 629 477 554 498 c 1
 547 501 530 503 505 503 c 0
 472 503 441 496 412 483 c 0
 391 473 376 456 369 432 c 0
 367 425 358 415 343 415 c 2
 343 415 342 415 341 415 c 0
 331 415 326 420 326 430 c 0
 326 434 327 440 329 446 c 0
 341 483 391 521 434 532 c 0
 468.503107191 541.518098536 497.213517689 544.206030764 526.49987793 542.760808892 c 4
 555.399254061 541.334683893 584.85945953 535.88391247 621 529 c 0
 726 508 798 415 836 250 c 0
 848 197 854 129 854 45 c 2
 854 20 l 2
 854 -81 842 -159 819 -213 c 0
 789 -282 753 -334 712 -370 c 0
 639.439688488 -432.194552725 564.155438826 -468.305050662 456.49987793 -464.55917299 c 0
 417.857803169 -463.214621126 383.987013218 -452.562152299 351 -429 c 0
 334 -417 318 -406 302 -396 c 0
 287 -387 273 -383.002 258 -383.002 c 0
 207.565344722 -383.002 192.941933716 -417.522596557 188 -462 c 1
 180 -464 105 -479 77 -479 c 2
 68 -479 l 1
EndSplineSet
Fore
SplineSet
68 -479 m 1
 61 -458 60 -442 60 -413 c 0
 60 -372 92 -346 122 -333 c 0
 135 -327 150 -324 165 -324 c 0
 223 -324 248 -333 280 -352 c 0
 326.044752515 -379.626851509 360.002262783 -409.514492014 412 -432 c 0
 430.722632462 -439.709319249 442.012716327 -443 456 -443 c 0
 508 -443 557 -419 602 -372 c 0
 662 -309 694.07902367 -220.800910232 699.995117188 -133 c 0
 703.547341204 -80.2813434942 704.313694064 -35.2434776311 704.313694064 11.6896649535 c 0
 704.313694064 34.9399161479 704.125621775 58.6552912437 703.995 84 c 1
 697.995 78 691 72 683 67 c 2
 568 -10 l 1
 557 -14 548 -8 540 -3 c 0
 519.952793639 12.0354047706 493.394988027 44.2350838142 489 75 c 1
 446 47 l 2
 432.695664957 38.1304433048 414.858993038 23.0032378169 404 4 c 1
 396 6 383 14 382 22 c 1
 395 42 408 55 430 70 c 2
 566 163 l 1
 575 159 583 152 589 143 c 0
 599 127 610 111 621 95 c 1
 628 82 632 78 640 72 c 1
 662 88 685.995 103 703.995 124 c 1
 703.995 125 l 2
 703.995 194 701 249 694 292 c 0
 676 408 629 477 554 498 c 1
 547 501 530 503 505 503 c 0
 472 503 441 496 412 483 c 0
 391 473 376 456 369 432 c 0
 367 425 358 415 343 415 c 2
 343 415 342 415 341 415 c 0
 331 415 326 420 326 430 c 0
 326 434 327 440 329 446 c 0
 341 483 391 521 434 532 c 0
 463.17699383 540.048825885 488.177403142 543.217954364 512.447513022 543.217954364 c 0
 546.831044528 543.217954364 579.748830972 536.857365529 621 529 c 0
 726 508 798 415 836 250 c 0
 848 197 854 129 854 45 c 2
 854 20 l 2
 854 -81 842 -159 819 -213 c 0
 789 -282 753 -334 712 -370 c 0
 642.877600223 -429.247771238 571.283268102 -464.824660413 471.587203155 -464.824660413 c 0
 466.62866189 -464.824660413 461.6006046 -464.73665289 456.49987793 -464.55917299 c 0
 417.857803169 -463.214621126 383.987013218 -452.562152299 351 -429 c 0
 334 -417 318 -406 302 -396 c 0
 287 -387 273 -383.002 258 -383.002 c 0
 207.565344722 -383.002 192.941933716 -417.522596557 188 -462 c 1
 180 -464 105 -479 77 -479 c 2
 68 -479 l 1
EndSplineSet
Validated: 1
Colour: ffff
EndChar

StartChar: uni044D
Encoding: 1101 1101 79
Width: 514
Flags: W
HStem: 400.993 42.1928<239.919 306.859>
VStem: 366.999 101.001<179.202 288.674>
DStem2: 125 156 143 134 0.789679 0.61352<-57.6088 52.1128>
LayerCount: 2
Back
SplineSet
253 -104 m 1
 289 -57 328 23 348 92 c 0
 354 116 359 137 362 156 c 1
 268 84 l 1
 258 81 247 85 239 90 c 0
 228 96 203 122 195 137 c 0
 190.525670731 145.948658537 186.291968003 153.540159984 184 165 c 1
 143 134 l 1
 127.877126306 121.203722259 111.307678223 108.5 103 89 c 1
 95 89 82 97 80 105 c 1
 89 125 108 144 125 156 c 2
 255 257 l 1
 265 254 273 247 279 238 c 0
 291 223 302 207 314 192 c 0
 324 179 323 178 334 171 c 1
 345.175318127 179.596398559 356.957659013 186.958659013 366.999 197 c 1
 366.999 209 l 2
 366.999 268 353 327 332 367 c 0
 325 382 316 393.993 307 400.993 c 1
 304 401.993 300 400.993 295 400.993 c 0
 242 400.993 214 353 193 320 c 0
 192 320 191 321 188 322 c 2
 67 366 l 1
 66 368 66 370 66 373 c 0
 66 382 72 391 77 394 c 1
 103 384 l 1
 108.807678223 389.399993896 120.1366336 402.53952418 133.307617188 413.900390625 c 0
 147.295518665 425.965904144 164.307875429 439.169263701 172 442 c 1
 188.419876342 443.824430705 203.031885605 443 220 443 c 0
 278 443 314 434 351 408 c 0
 419 358 468 287 468 175 c 0
 468 107 449 35 430 -10 c 0
 408 -60 374 -114 339 -153 c 1
 294 -147 268.112416293 -143.357171926 227 -125 c 24
 183.047851562 -105.375 157 -90 124 -57 c 1
 124 -46 135 -35 145 -35 c 1
 161.90166941 -51.9016694097 176.759765625 -63.7998046875 194.807617188 -75 c 4
 211.2421875 -85.19921875 230.492992049 -94.9971968198 253 -104 c 1
EndSplineSet
Fore
SplineSet
253 -104 m 1
 300.570522746 -41.8940397486 346.720465354 59.2296139079 362 156 c 1
 268 84 l 1
 258 81 247 85 239 90 c 0
 228 96 203 122 195 137 c 0
 190.525670731 145.948658537 186.291968003 153.540159984 184 165 c 1
 143 134 l 1
 127.877126306 121.203722259 111.307678223 108.5 103 89 c 1
 95 89 82 97 80 105 c 1
 89 125 108 144 125 156 c 2
 255 257 l 1
 265 254 273 247 279 238 c 0
 291 223 302 207 314 192 c 0
 324 179 323 178 334 171 c 1
 345.175318127 179.596398559 356.957659013 186.958659013 366.999 197 c 1
 366.999 209 l 2
 366.999 268 353 327 332 367 c 0
 325 382 316 393.993 307 400.993 c 1
 304 401.993 300 400.993 295 400.993 c 0
 242 400.993 214 353 193 320 c 0
 192 320 191 321 188 322 c 2
 67 366 l 1
 66 368 66 370 66 373 c 0
 66 382 72 391 77 394 c 1
 103 384 l 1
 108.807678223 389.399993896 120.1366336 402.53952418 133.307617188 413.900390625 c 0
 147.295518665 425.965904144 164.307875429 439.169263701 172 442 c 1
 180.624937258 442.958326362 188.751060531 443.185797491 196.981854165 443.185797491 c 0
 204.420579002 443.185797491 211.944798163 443 220 443 c 0
 278 443 314 434 351 408 c 0
 419 358 468 287 468 175 c 0
 468 107 449 35 430 -10 c 0
 408 -60 374 -114 339 -153 c 1
 294 -147 268.112416293 -143.357171926 227 -125 c 24
 183.047851562 -105.375 157 -90 124 -57 c 1
 124 -46 135 -35 145 -35 c 1
 177.319652123 -67.319652122 206.78670013 -85.5146800524 253 -104 c 1
EndSplineSet
Validated: 1
Colour: ffff
EndChar

StartChar: uni042E
Encoding: 1070 1070 80
Width: 1030
Flags: W
HStem: -465 24<627.998 711.017> -455 25<75 131 262 317> 20 25<270 411> 494.997 25.003<102 156 276 332> 504.996 24.004<628.237 710.044>
VStem: 131 131<-430 -171.001> 156 114<235.998 494.997> 411 126<-186.359 20 45 247.125> 801 126<-183.25 245.053>
LayerCount: 2
Back
SplineSet
75 -455 m 1x61c0
 75 -430 l 1
 131 -430 l 5x62c0
 156 494.997 l 1
 102 494.997 l 1
 102 520 l 1
 332 520 l 1
 332 494.997 l 1
 276 494.997 l 1x74c0
 270 45 l 1
 411 45 l 1
 411 186 438 310 486 399 c 0
 522 466 579 529 669 529 c 0x2cc0
 706 529 741 517.997 772 494.997 c 0
 843 442.997 885 348 907 240 c 0
 920 179 927 109 927 32 c 0
 927 -114 903 -241 853 -332 c 0
 830 -376 803 -408 772 -431 c 0
 741 -454 706 -465 669 -465 c 0
 579 -465 522 -402 486 -336 c 0
 438 -247 411 -121 411 20 c 1
 269 20 l 1xb2c0
 262 -430 l 1
 317 -430 l 1
 317 -455 l 1
 75 -455 l 1x61c0
801 32 m 2
 801 138 798 250 783 341 c 0
 773 399 755 452 723 483 c 0
 708 498 690 504.996 669 504.996 c 0
 619 504.996 594 465 578 425 c 0
 537 327 537 177 537 40 c 2
 537 32 l 2
 537 -74 540 -186 555 -277 c 0
 565 -335 583 -388 615 -420 c 0
 630 -434 648 -441 669 -441 c 0xa8c0
 719 -441 744 -401 760 -362 c 0
 801 -263 801 -113 801 24 c 2
 801 32 l 2
EndSplineSet
Fore
SplineSet
75 -455 m 1x6580
 75 -430 l 1
 131 -430 l 5x6580
 156 494.997 l 1
 102 494.997 l 1
 102 520 l 1
 332 520 l 1
 332 494.997 l 1
 276 494.997 l 1x7380
 270 45 l 1
 411 45 l 1
 411 186 438 310 486 399 c 0
 522 466 579 529 669 529 c 0x2b80
 706 529 741 517.997 772 494.997 c 0
 843 442.997 885 348 907 240 c 0
 920 179 927 109 927 32 c 0
 927 -114 903 -241 853 -332 c 0
 830 -376 803 -408 772 -431 c 0
 741 -454 706 -465 669 -465 c 0xb380
 579 -465 522 -402 486 -336 c 0
 438 -247 411 -121 411 20 c 1
 269 20 l 1
 262 -430 l 1
 317 -430 l 1
 317 -455 l 1
 75 -455 l 1x6580
801 32 m 2
 801 138 798 250 783 341 c 0
 773 399 755 452 723 483 c 0
 708 498 690 504.996 669 504.996 c 0
 619 504.996 594 465 578 425 c 0
 537 327 537 177 537 40 c 2
 537 32 l 2
 537 -74 540 -186 555 -277 c 0
 565 -335 583 -388 615 -420 c 0
 630 -434 648 -441 669 -441 c 0xa980
 719 -441 744 -401 760 -362 c 0
 801 -263 801 -113 801 24 c 2
 801 32 l 2
EndSplineSet
Validated: 1
Colour: ffff
EndChar

StartChar: uni044E
Encoding: 1102 1102 81
Width: 483
Flags: W
HStem: -3 21G<100 119.5> 425 20G<180.426 212>
VStem: 53.001 104.98<-1.88599 236.839> 269.002 54.998<149.756 253.213> 378.001 49.999<149.333 269.521>
DStem2: 165 269 161 238 0.988474 0.151388<0 103.496>
LayerCount: 2
Back
SplineSet
158 128 m 4
 158 86 163 34 163 0 c 1
 147 -2 129 -3 110 -3 c 0
 90 -3 70.001 -2 53.001 0 c 1
 53.001 13 53.001 26 53.001 40 c 0
 53.001 169 67 309 92 420 c 1
 120.065637029 433.471505774 160.852102435 445 200 445 c 0
 202 445 205 445 207 445 c 1
 212 436.998 l 1
 188.831781244 399.938117277 176.749978615 351.356990109 169 296 c 2
 165 269 l 1
 276 286 l 1
 289.366616821 347.972496168 320.216058725 411.162044044 364 444 c 0
 367 446 370 448 373 448 c 0
 376 448 379 446 381 444 c 0
 412 407 428 325 428 260 c 0
 428 141.638750638 398.135086367 49.1350863668 342 -7 c 0
 340 -10 337 -12 332 -12 c 0
 329 -12 326 -10 324 -7 c 0
 300 33 269.002 126 269.002 204 c 0
 269.002 222 272 239 272 254 c 1
 161 238 l 1
 157.555572863 207.000155768 158 163.900164687 158 128 c 4
375 267 m 1
 366 271 358 273 353 273 c 0
 348 273 340 271 331 266 c 1
 325 254 324 229 324 210 c 0
 324 189 327 165 331 149 c 1
 337 146 342 143 348 143 c 0
 356 143 360 146 367 150 c 1
 374 174 378.001 210 378.001 241 c 0
 378.001 251 377 260 375 267 c 1
EndSplineSet
Fore
SplineSet
158 128 m 4
 158 86 163 34 163 0 c 1
 147 -2 129 -3 110 -3 c 0
 90 -3 70.001 -2 53.001 0 c 1
 53.001 13 53.001 26 53.001 40 c 0
 53.001 169 67 309 92 420 c 1
 120.065637029 433.471505774 160.852102435 445 200 445 c 0
 202 445 205 445 207 445 c 1
 212 436.998 l 1
 188.831781244 399.938117277 176.749978615 351.356990109 169 296 c 2
 165 269 l 1
 276 286 l 1
 289.366616821 347.972496168 320.216058725 411.162044044 364 444 c 0
 367 446 370 448 373 448 c 0
 376 448 379 446 381 444 c 0
 412 407 428 325 428 260 c 0
 428 141.638750638 398.135086367 49.1350863668 342 -7 c 0
 340 -10 337 -12 332 -12 c 0
 329 -12 326 -10 324 -7 c 0
 300 33 269.002 126 269.002 204 c 0
 269.002 222 272 239 272 254 c 1
 161 238 l 1
 158.262102971 213.358926738 157.98130059 181.072618151 157.98130059 150.834047888 c 0
 157.98130059 143.030810558 158 135.363937809 158 128 c 4
375 267 m 1
 366 271 358 273 353 273 c 0
 348 273 340 271 331 266 c 1
 325 254 324 229 324 210 c 0
 324 189 327 165 331 149 c 1
 337 146 342 143 348 143 c 0
 356 143 360 146 367 150 c 1
 374 174 378.001 210 378.001 241 c 0
 378.001 251 377 260 375 267 c 1
EndSplineSet
Validated: 1
Colour: ffff
EndChar

StartChar: uni042F
Encoding: 1071 1071 82
Width: 633
Flags: W
HStem: -455 25<76 101.561 231 256 314 365.003 497 552> 508 22<257.999 344.521>
VStem: 109 107<324.253 472.713> 365.003 131.997<-430 -165.684> 388.042 118.958<241 428.992>
LayerCount: 2
Back
SplineSet
110 402 m 0xf0
 110 494.584078203 181.269786699 530 270 530 c 2
 318 530 l 2
 404 530 451 490 486 429 c 0
 501 404 507 376 507 343 c 2xe8
 497 -430 l 1
 552 -430 l 1
 552 -455 l 1
 314 -455 l 1
 314 -430 l 1
 365.003 -430 l 1
 377 23 l 1
 368 6 354 -13 334 -35 c 0
 316 -56 297.74609375 -65.3134765625 290 -86 c 24
 264.650390625 -153.703125 262 -194 252 -254 c 0
 248 -277 233 -391 231 -430 c 1
 256 -430 l 1
 256 -455 l 1
 76 -455 l 1
 76 -430 l 1
 100 -430 l 1
 107.994296646 -376.704689024 120.862304688 -270.125976562 158 -167 c 24
 169.587890625 -134.822265625 197.325995463 -108.796252835 221 -94 c 0
 290 -51 359 5 379 97 c 1
 381 177 l 1
 381 178 l 1
 375 207 360 232 337 253 c 0
 322 266 309 272 274 279 c 0
 261 282 248 283 236 284 c 0
 210 284 164 296 147 309 c 0
 120 332 109 347 109 385 c 0
 109 390 110 396 110 402 c 0xf0
388.042 431 m 0
 388.042 480.517111579 344.372201141 508 296 508 c 0
 240 508 216 453 216 398 c 0
 216 382 219 363 226 341 c 0
 232 322 250 309 280 302 c 0
 315 294 329 292 354 272 c 0
 363 265 373 254 383 241 c 1
 385 312 388.042 375 388.042 431 c 0
EndSplineSet
Fore
SplineSet
110 402 m 0xf0
 110 494.584078203 181.269786699 530 270 530 c 2
 318 530 l 2
 404 530 451 490 486 429 c 0
 501 404 507 376 507 343 c 2xe8
 497 -430 l 1
 552 -430 l 1
 552 -455 l 1
 314 -455 l 1
 314 -430 l 1
 365.003 -430 l 1
 377 23 l 1
 368 6 354 -13 334 -35 c 0
 316 -56 297.74609375 -65.3134765625 290 -86 c 24
 264.650390625 -153.703125 262 -194 252 -254 c 0
 248 -277 233 -391 231 -430 c 1
 256 -430 l 1
 256 -455 l 1
 76 -455 l 1
 76 -430 l 1
 100 -430 l 1
 107.994296646 -376.704689024 120.862304688 -270.125976562 158 -167 c 24
 169.587890625 -134.822265625 197.325995463 -108.796252835 221 -94 c 0
 290 -51 359 5 379 97 c 1
 381 177 l 1
 381 178 l 1
 375 207 360 232 337 253 c 0
 322 266 309 272 274 279 c 0
 261 282 248 283 236 284 c 0
 210 284 164 296 147 309 c 0
 120 332 109 347 109 385 c 0
 109 390 110 396 110 402 c 0xf0
388.042 431 m 0
 388.042 480.517111579 344.372201141 508 296 508 c 0
 240 508 216 453 216 398 c 0
 216 382 219 363 226 341 c 0
 232 322 250 309 280 302 c 0
 315 294 329 292 354 272 c 0
 363 265 373 254 383 241 c 1
 385 312 388.042 375 388.042 431 c 0
EndSplineSet
Validated: 1
Colour: ffff
EndChar

StartChar: uni044F
Encoding: 1103 1103 83
Width: 407
Flags: W
HStem: -0 21G<42 148.635 259.002 356> 406.999 29.999<188 258.808>
VStem: 259.002 100.514<0 257.845 293 406.573>
LayerCount: 2
Back
SplineSet
356 -0 m 1
 259.002 -0 l 1
 259.002 124 l 2
 259.002 162.215669951 256.925655958 235.111516063 241 259 c 1
 238 261 l 1
 208.707372511 241.471581674 191.943700776 186.504024464 180 152 c 0
 170.17387537 124.486851037 151.269824975 39.523687316 146 0 c 1
 42 -0 l 1
 56 80 80 164 106 231 c 0
 115 253 122 268 129 276 c 1
 222 276 l 1
 230 281 l 1
 220.494312228 309.517063317 200.045177112 337.944960457 179.5 364.799987793 c 0
 160.849649074 389.178248502 141 409.799987793 123 427 c 0
 115.770095537 433.908580278 130 436.998 135 436.998 c 2
 356 436.998 l 1
 359.474328227 376.546078586 360.149821235 255.365133681 359 141 c 4
 358.495082304 90.7791673922 356 41.872649072 356 -0 c 1
188 406.999 m 1
 206 387.999 223 363 237 339 c 0
 246 325 254.002 310 259.002 293 c 1
 259.002 362 l 2
 259.002 383 259 397.999 258 406.999 c 1
 188 406.999 l 1
EndSplineSet
Fore
SplineSet
356 -0 m 1
 259.002 -0 l 1
 259.002 124 l 2
 259.002 162.215669951 256.925655958 235.111516063 241 259 c 1
 238 261 l 1
 208.707372511 241.471581674 191.943700776 186.504024464 180 152 c 0
 170.17387537 124.486851037 151.269824975 39.523687316 146 0 c 1
 42 -0 l 1
 56 80 80 164 106 231 c 0
 115 253 122 268 129 276 c 1
 222 276 l 1
 230 281 l 1
 220.494312228 309.517063317 200.045177112 337.944960457 179.5 364.799987793 c 0
 160.849649074 389.178248502 141 409.799987793 123 427 c 0
 115.770095537 433.908580278 130 436.998 135 436.998 c 2
 356 436.998 l 1
 358.459139768 394.209951695 359.516105029 320.997572592 359.516105029 241.312171387 c 0
 359.516105029 208.416237327 359.335974373 174.417154695 359 141 c 4
 358.495082304 90.7791673922 356 41.872649072 356 -0 c 1
188 406.999 m 1
 206 387.999 223 363 237 339 c 0
 246 325 254.002 310 259.002 293 c 1
 259.002 362 l 2
 259.002 383 259 397.999 258 406.999 c 1
 188 406.999 l 1
EndSplineSet
Validated: 1
Colour: ffff
EndChar

StartChar: uni0460
Encoding: 1120 1120 84
Width: 1062
Flags: W
HStem: 503 32<746.02 775.076>
VStem: 65 151<-32.8926 354.801> 446.006 143.994<-44.3567 435.229> 869.005 107.995<-19.3584 312.047>
LayerCount: 2
Back
SplineSet
746 520 m 0
 746 524 751 535 754 535 c 0
 774.79932083 535 808.514883847 536.758844687 839.937498698 540.191004747 c 0
 867.45470667 543.196593639 889.4375 548 907 553 c 0
 916.846168784 555.803179725 927.289752163 542.272282123 927 536 c 0
 925.9375 513 931.597645429 488.899806619 941 452 c 0
 950.9375 413 977 331.188717404 977 183 c 0
 977 -36.8964648341 909.374170544 -212.074276443 814 -350 c 0
 781 -397 733.6875 -447.5 701 -469 c 0
 696.731307299 -471.807706098 690.359350709 -470.036110478 687.9375 -468 c 0
 648.202145601 -434.593493506 613.37273345 -388.58837436 580.584667746 -342.000003787 c 0
 552.686058732 -302.359033594 528.27357047 -260.123821484 509 -219 c 1
 490.581884542 -258.905916826 413.593765598 -344.406234402 400 -358 c 0
 367.000681265 -395.3035777 312.369943731 -439.310803858 269 -466 c 1
 259 -471 l 1
 224.586095806 -471 133.894357743 -246.945978391 120 -196 c 0
 85 -67 65 34 65 171 c 0
 65 313.298616777 90.3984375 447.0703125 146 533 c 1
 313 545 l 2
 322 545 326 540 326 531 c 0
 326 523 317.330258261 519.5032286 312 512 c 0
 239.9375 410.559997559 216 319.638671875 216 130 c 0
 216 5.62179154144 266.810639581 -143.773504351 298 -226 c 0
 321 -283 338 -314 351 -314 c 2
 352 -314 l 2
 352.188 -314.021 352.382 -314.031 352.584 -314.031 c 0
 362.05 -314.031 386.855 -291.062 427 -247 c 0
 469 -201 490 -173 490 -162 c 2
 490 -161 l 1
 465.077613254 -54.3875678084 446.006 88.0740219263 446.006 230 c 0
 446.006 331.772280928 457.776367188 447.741210938 481 534 c 1
 637 549 l 1
 601 416 590 303 590 146 c 0
 590 -15 615 -134 674 -232 c 0
 707 -287 734 -315 755 -315 c 0
 757 -315 759 -315 760 -314 c 0
 796.333174356 -295.314367474 822.468727755 -223.948213245 840.023759712 -140.000003549 c 0
 860.157797607 -43.7189805734 869.005 69.1125039644 869.005 138 c 0
 869.005 220.837892516 832.9375 472 754 503 c 0
 748.987508658 504.968484327 746 510 746 520 c 0
EndSplineSet
Fore
SplineSet
746 520 m 0
 746 524 751 535 754 535 c 0
 774.79932083 535 808.514883847 536.758844687 839.937498698 540.191004747 c 0
 867.45470667 543.196593639 889.4375 548 907 553 c 0
 916.846168784 555.803179725 927.289752163 542.272282123 927 536 c 0
 926.914512341 534.149443628 926.872544712 532.291764992 926.872544712 530.4208703 c 0
 926.872544712 509.038986228 932.354149219 485.930886085 941 452 c 0
 950.9375 413 977 331.188717404 977 183 c 0
 977 -36.8964648341 909.374170544 -212.074276443 814 -350 c 0
 781 -397 733.6875 -447.5 701 -469 c 0
 696.731307299 -471.807706098 690.359350709 -470.036110478 687.9375 -468 c 0
 648.202145601 -434.593493506 613.37273345 -388.58837436 580.584667746 -342.000003787 c 0
 552.686058732 -302.359033594 528.27357047 -260.123821484 509 -219 c 1
 490.581884542 -258.905916826 413.593765598 -344.406234402 400 -358 c 0
 367.000681265 -395.3035777 312.369943731 -439.310803858 269 -466 c 1
 259 -471 l 1
 224.586095806 -471 133.894357743 -246.945978391 120 -196 c 0
 85 -67 65 34 65 171 c 0
 65 313.298616777 90.3984375 447.0703125 146 533 c 1
 313 545 l 2
 322 545 326 540 326 531 c 0
 326 523 317.330258261 519.5032286 312 512 c 0
 239.9375 410.559997559 216 319.638671875 216 130 c 0
 216 5.62179154144 266.810639581 -143.773504351 298 -226 c 0
 321 -283 338 -314 351 -314 c 2
 352 -314 l 2
 352.188 -314.021 352.382 -314.031 352.584 -314.031 c 0
 362.05 -314.031 386.855 -291.062 427 -247 c 0
 469 -201 490 -173 490 -162 c 2
 490 -161 l 1
 465.077613254 -54.3875678084 446.006 88.0740219263 446.006 230 c 0
 446.006 331.772280928 457.776367188 447.741210938 481 534 c 1
 637 549 l 1
 601 416 590 303 590 146 c 0
 590 -15 615 -134 674 -232 c 0
 707 -287 734 -315 755 -315 c 0
 757 -315 759 -315 760 -314 c 0
 841.989776978 -271.833828983 869.005 19.7891512347 869.005 138 c 0
 869.005 220.837892516 832.9375 472 754 503 c 0
 748.987508658 504.968484327 746 510 746 520 c 0
EndSplineSet
Validated: 1
Colour: ffff
EndChar

StartChar: uni0461
Encoding: 1121 1121 85
Width: 675
Flags: W
HStem: -10 21G<171.5 173> 425 20G<167.5 192 369 394>
VStem: 57 101<201.028 400.53> 271 100<230.908 415.263> 534 95<191.645 374.98>
LayerCount: 2
Back
SplineSet
490 412 m 5
 504.126570695 422.260960046 521.876065872 429.749076359 539.832845052 435.883300781 c 4
 557.255370824 441.835018627 574.833950241 446.547707177 592 449 c 5
 616 428 629 373 629 328 c 4
 629 231 609 178 565 117 c 4
 533 72 493 22 456 -8 c 4
 454.186142266 -9.20923848903 451.956275235 -10.2461892498 449.832845052 -10.3333333333 c 4
 447.134227827 -10.4440826891 444.504998355 -9.29408110132 442 -8 c 4
 396.832845052 15.3333333333 361 63 335 110 c 5
 328 103 320 97 312 91 c 4
 266 56 227 24 177 -8 c 4
 175 -9 174 -10 172 -10 c 4
 171 -10 169 -9 168 -8 c 4
 114 44 81 135 65 226 c 4
 60 258 56.999 290 56.999 322 c 4
 56.999 357 66 391 80 413 c 5
 92.2645917628 421.019156153 108.311940314 427.925736779 125.832843638 433.299886968 c 4
 145.454920305 439.31852568 166.925172576 443.415145203 187 445 c 5
 192 438 l 5
 184 424 170 405 163 391 c 5
 160 373 158 356 158 335 c 4
 158 252 184 178 212 121 c 4
 221 102 230 86 239 73 c 5
 252.061248587 82.4331239794 264.935895281 92.2934237112 277.49950801 102.35207648 c 4
 292.155439812 114.085877272 306.388113195 126.089599045 320 138 c 5
 294 192 271.001 258 271.001 333 c 4
 271.001 363 276 390 283 413 c 5
 295.270487142 421.698906416 310.152962511 428.057679398 326.499509873 432.929598193 c 4
 345.011128231 438.446793929 368.400390625 442.057617188 389 445 c 5
 394 438 l 5
 387 425 378.083007812 409.5 373 395 c 5
 370.938476562 384.69140625 371 371.755018695 371 359 c 4
 371 267 403 186 442 131 c 4
 455 112 469 97 483 86 c 5
 514 122 534 175 534 244 c 4
 534 298 526 334 512 376 c 4
 507.251322283 390.246033151 504.756246032 396.998727747 490 403 c 5
 490 412 l 5
EndSplineSet
Fore
SplineSet
239 73 m 1
 267 93 294 116 320 138 c 1
 294 192 271 258 271 333 c 0
 271 363 276 390 283 413 c 1
 310 432 349 439 389 445 c 1
 394 438 l 1
 387 425 378 410 373 395 c 1
 371 385 371 372 371 359 c 0
 371 267 403 186 442 131 c 0
 455 112 469 97 483 86 c 1
 514 122 534 175 534 244 c 0
 534 298 526 334 512 376 c 0
 507 390 505 397 490 403 c 1
 490 412 l 1
 515 430 556 444 592 449 c 1
 616 428 629 373 629 328 c 0
 629 231 609 178 565 117 c 0
 533 72 493 22 456 -8 c 0
 451 -11 447 -11 442 -8 c 0
 397 15 361 63 335 110 c 1
 328 103 320 97 312 91 c 0
 266 56 227 24 177 -8 c 0
 175 -9 174 -10 172 -10 c 0
 171 -10 169 -9 168 -8 c 0
 114 44 81 135 65 226 c 0
 60 258 57 290 57 322 c 0
 57 357 66 391 80 413 c 1
 106 430 148 442 187 445 c 1
 192 438 l 1
 184 424 170 405 163 391 c 1
 160 373 158 356 158 335 c 0
 158 252 184 178 212 121 c 0
 221 102 230 86 239 73 c 1
EndSplineSet
Validated: 1
Colour: ffff
EndChar

StartChar: uni0462
Encoding: 1122 1122 86
Width: 779
Flags: W
HStem: -455.001 25.001<221 276 408 542 670.587 697> 384.999 25.001<195.212 299 422 530.789> 495 25<248 302 422 478>
VStem: 276 132<-430 -181.957> 299 122<243.26 384.999 410 495> 542 130<-430 -276.998>
LayerCount: 2
Back
SplineSet
704 404 m 0xec
 704 402 704 400 704 399 c 0
 704 397 704 396 703 395 c 0
 640 327 602 267 562 184 c 1
 551 184 l 1
 548 218 546 255 542 289 c 0
 537.850872918 319.229354455 533.429222165 356.209055925 529 384.999 c 5
 421 384.999 l 1
 421 203 l 1xec
 425 152 429 118 450 84 c 0
 465 59 490 30 515 9 c 2
 551 -21 l 2
 573 -40 593 -59 608 -87 c 1
 640 -202 657 -306 672 -430 c 1
 697 -430 l 1
 697 -455.001 l 1
 221 -455.001 l 1
 221 -430 l 1
 276 -430 l 1xf4
 299 384.999 l 1
 197 384.999 l 1
 192.649675924 356.721893504 188.593916452 319.548289845 185 289 c 0
 181 255 178 218 175 184 c 1
 164 184 l 1
 124 267 86 327 23 395 c 0
 21 397 20 399 20 401 c 0
 20 402 21 403 21 404 c 0
 21 406 22 408 23 410 c 1
 299 410 l 1
 302 495 l 1
 248 495 l 1
 248 520 l 1
 478 520 l 1
 478 495 l 1
 422 495 l 1
 422 410 l 1
 703 410 l 1
 703 408 703 406 704 404 c 0xec
474 6 m 1
 448 40 l 2
 435 56 425 74 416 94 c 1
 408 -430 l 1xf4
 542 -430 l 1
 537 -317 520 -190 499 -89 c 0
 491 -51 483 -19 474 6 c 1
EndSplineSet
Fore
SplineSet
197 384.999 m 1xec
 187.252634069 321.641121445 180.907560762 250.952355303 175 184 c 1
 164 184 l 1
 124 267 86 327 23 395 c 0
 21 397 20 399 20 401 c 0
 20 402 21 403 21 404 c 0
 21 406 22 408 23 410 c 1
 299 410 l 1
 302 495 l 1
 248 495 l 1
 248 520 l 1
 478 520 l 1
 478 495 l 1
 422 495 l 1
 422 410 l 1
 703 410 l 1
 703 408 703 406 704 404 c 0
 704 402 704 400 704 399 c 0
 704 397 704 396 703 395 c 0
 640 327 602 267 562 184 c 1
 551 184 l 1
 544.968190881 252.360503351 538.761612906 321.548516107 529 384.999 c 5
 421 384.999 l 1
 421 203 l 1xec
 425 152 429 118 450 84 c 0
 465 59 490 30 515 9 c 2
 551 -21 l 2
 573 -40 593 -59 608 -87 c 1
 640 -202 657 -306 672 -430 c 1
 697 -430 l 1
 697 -455.001 l 1
 221 -455.001 l 1
 221 -430 l 1
 276 -430 l 1xf4
 299 384.999 l 1
 197 384.999 l 1xec
474 6 m 1
 448 40 l 2
 435 56 425 74 416 94 c 1
 408 -430 l 1xf4
 542 -430 l 1
 537 -317 520 -190 499 -89 c 0
 491 -51 483 -19 474 6 c 1
EndSplineSet
Validated: 1
Colour: ffff
EndChar

StartChar: uni0463
Encoding: 1123 1123 87
Width: 590
Flags: W
HStem: 0 30<329 381> 407.004 29.994<38.2159 63 154 275 376 450.171>
VStem: 63.8442 90.1558<207.185 407.004> 275 96<271.682 407.004 436.998 509.709> 456 13<279.012 292.512>
LayerCount: 2
Back
SplineSet
455 351 m 0
 455 376 453 398.004 440 407.004 c 1
 371 407.004 l 1
 365.030168659 378.007676345 359.96949258 348.646963262 355.585364465 319.000016801 c 0
 349.688164666 279.121171533 345.01508433 238.724426772 341 198 c 1
 346.809811952 200.76657712 406.248813495 226.646846678 422.825808335 226.646846678 c 0
 425.140280871 226.646846678 426.619217807 226.14234658 427 225 c 0
 438.683878328 192.382506335 450.130754897 156.920991571 460.071459009 120.00000556 c 0
 470.550079029 81.0811343424 479.3551109 40.5405671712 485 0 c 1
 229 0 l 1
 233.625771204 83.2638816722 239.58890236 159.842300944 248.822618829 236.5 c 0
 255.558073444 292.417295556 264.033756413 348.37677467 275 407.004 c 1
 154 407.004 l 1
 155.788956383 382.274474401 156.938205321 357.391751385 157.67636073 332.500009393 c 0
 158.953142588 289.444950517 159 246.362908341 159 204 c 1
 134 192 93 179 62 173 c 1
 55 176 l 1
 58.6148467158 201.303927011 60.9128663733 231.506556577 62.2607512355 262.999997313 c 0
 64.3783954101 312.478927733 64.1508086893 365.143985268 63 407.004 c 1
 44 407.004 l 1
 40 410.004 38 415 38 419 c 0
 38 426 41 432.998 46 436.998 c 1
 281.001 436.998 l 1
 296.274548714 513.365743571 313.142565935 586.772363888 332.040209703 656.999955726 c 0
 352.735499569 733.907975976 375.864919866 807.003388446 402 876 c 1
 415.161215534 880.04960478 435.240885278 884.355448604 455.883299712 887.620447897 c 0
 476.020004342 890.80545935 496.692218521 893 512 893 c 1
 517 885 l 1
 482.51826433 812.699586498 452.676188239 732.047167133 427.473771727 647.000011564 c 4
 407.360899047 579.127844981 390.202975138 508.456718663 376 436.998 c 1
 583 436.998 l 2
 586 436.998 588 434 588 431 c 0
 588 429 587 426 586 425 c 0
 572.746381525 411.746381525 556.981792582 395.450705056 541.173969551 378.000001547 c 0
 512.192080035 346.006072965 483.064867115 310.129734231 469 282 c 0
 468 280 465 279 462 279 c 0
 458 279 456 280 456 282 c 0
 455 287 455 293 455 301 c 0
 455 318 455 334 455 351 c 0
337 164 m 1
 334.913764496 143.475659156 332.887470316 120.383120981 331.396150515 97.0000021529 c 0
 329.944698491 74.2419893492 329 51.2087245358 329 30 c 1
 381 30 l 1
 378.694242915 47.6431029602 372.490928827 81.3342190072 364.883300781 111 c 0
 357.740917677 138.851568406 349.533444775 163.273656505 337 164 c 1
EndSplineSet
Fore
SplineSet
154 407.004 m 1
 158.671516818 342.427582244 159 271.913651863 159 204 c 1
 134 192 93 179 62 173 c 1
 55 176 l 1
 61.6227062914 222.35894404 63.8441870965 286.564975648 63.8441870965 344.669464788 c 0
 63.8441870965 366.769588974 63.5228117049 387.98702014 63 407.004 c 1
 44 407.004 l 1
 40 410.004 38 415 38 419 c 0
 38 426 41 432.998 46 436.998 c 1
 281.001 436.998 l 1
 312.302573114 593.505865574 350.992413322 741.339971169 402 876 c 1
 426.941912102 883.674434494 479.694515108 893 512 893 c 1
 517 885 l 1
 454.986333555 754.97134455 407.989254063 597.943934502 376 436.998 c 1
 583 436.998 l 2
 586 436.998 588 434 588 431 c 0
 588 429 587 426 586 425 c 0
 548.502019058 387.502019058 490.745856184 325.491712369 469 282 c 0
 468 280 465 279 462 279 c 0
 458 279 456 280 456 282 c 0
 455 287 455 293 455 301 c 0
 455 318 455 334 455 351 c 0
 455 376 453 398.004 440 407.004 c 1
 371 407.004 l 1
 357.343906392 340.674402479 348.104081978 270.055688629 341 198 c 1
 346.809811952 200.76657712 406.248813495 226.646846678 422.825808335 226.646846678 c 0
 425.140280871 226.646846678 426.619217807 226.14234658 427 225 c 0
 450.912191983 158.245130717 473.964132666 79.2575926653 485 0 c 1
 229 0 l 1
 237.21906818 147.943227247 250.193218826 274.383131419 275 407.004 c 1
 154 407.004 l 1
337 164 m 1
 332.944761281 124.104647092 329 73.6888661828 329 30 c 1
 381 30 l 1
 377.900017119 53.7203292105 361.780787088 162.563893341 337 164 c 1
EndSplineSet
Validated: 1
AlternateSubs2: "'salt' Stylistic Alternatives lookup 2-1" uni0463.salt
Colour: ffff
EndChar

StartChar: uni0464
Encoding: 1124 1124 88
Width: 1017
Flags: W
HStem: -454.005 25.005<62 116.993 249 304 583.457 683.054> -196 25<712 758.994 871.974 922> -40.0039 25.0039<712 761 876.994 922> 20.9951 25.0049<257 376> 67.9961 57.0039<626.448 724.219> 246.993 25.007<712 758.994 872.249 922> 495.995 24.005<89 143 263 319> 511.993 24.007<592.856 674.132>
VStem: 116.993 132.007<-429 -180.03> 143 120<247.025 495.995> 376 126<-174.099 -55.2459 -40.0039 20.9951 46 254.125> 758.994 116.006<-265.763 -196 -15 31.6528 272 340.441>
LayerCount: 2
Back
SplineSet
703 125 m 0xfd70
 793.535527618 125 867.64481408 75.8414873598 879 -15 c 1
 922 -15 l 1
 922 -40.0039 l 1
 712 -40.0039 l 1
 712 -15 l 1
 761 -15 l 1
 750.736569885 23.7729582106 719.333790313 67.9961 672 67.9961 c 0
 627 67.9961 589 47.9951 568 20.9951 c 0
 536 -22.0049 515 -63 505 -121 c 1
 510 -230 521 -347 574 -408 c 0
 590 -425 610 -434 634 -434 c 0
 681 -434 705 -399 720 -364 c 0
 741 -318 752.994 -256 758.994 -196 c 1
 712 -196 l 1
 712 -171 l 1
 922 -171 l 1
 922 -196 l 1
 875 -196 l 1
 854 -280 822 -345 779 -390 c 0
 736 -435 687 -458 634 -458 c 0
 597 -458 562 -447 531 -424 c 0
 460 -373 418 -278 396 -169 c 0
 384 -112 377 -49.0049 376 20.9951 c 1
 256 20.9951 l 1
 249 -429 l 1
 304 -429 l 1
 304 -454.005 l 1
 62 -454.005 l 1
 62 -429 l 1
 116.993 -429 l 1xfdb0
 143 495.995 l 1
 89 495.995 l 1
 89 520 l 1
 319 520 l 1
 319 495.995 l 1
 263 495.995 l 1xfe70
 257 46 l 1
 376 46 l 1
 377 188 401 313 449 403 c 0
 485.581514891 471.39152784 541.997253851 536 634 536 c 4
 698 536 745 504 779 467 c 0
 825 418 856 350 875 272 c 1
 922 272 l 1
 922 246.993 l 1
 712 246.993 l 1
 712 272 l 1
 758.994 272 l 1
 749.994 358 734 448 685 492 c 0
 671 505 654 511.993 634 511.993 c 0
 584 511.993 559 472 543 432 c 0
 502 334 502 184 502 47 c 2
 502 -40.0039 l 1
 530.927897828 26.7527872964 580.579294469 88.4723093743 652 115 c 0
 669 122 686 125 703 125 c 0xfd70
EndSplineSet
Fore
SplineSet
703 125 m 0xfd70
 793.535527618 125 867.64481408 75.8414873598 879 -15 c 1
 922 -15 l 1
 922 -40.0039 l 1
 712 -40.0039 l 1
 712 -15 l 1
 761 -15 l 1
 750.736569885 23.7729582106 719.333790313 67.9961 672 67.9961 c 0
 627 67.9961 589 47.9951 568 20.9951 c 0
 536 -22.0049 515 -63 505 -121 c 1
 510 -230 521 -347 574 -408 c 0
 590 -425 610 -434 634 -434 c 0
 681 -434 705 -399 720 -364 c 0
 741 -318 752.994 -256 758.994 -196 c 1
 712 -196 l 1
 712 -171 l 1
 922 -171 l 1
 922 -196 l 1
 875 -196 l 1
 854 -280 822 -345 779 -390 c 0
 736 -435 687 -458 634 -458 c 0
 597 -458 562 -447 531 -424 c 0
 460 -373 418 -278 396 -169 c 0
 384 -112 377 -49.0049 376 20.9951 c 1
 256 20.9951 l 1
 249 -429 l 1
 304 -429 l 1
 304 -454.005 l 1
 62 -454.005 l 1
 62 -429 l 1
 116.993 -429 l 1xfdb0
 143 495.995 l 1
 89 495.995 l 1
 89 520 l 1
 319 520 l 1
 319 495.995 l 1
 263 495.995 l 1xfe70
 257 46 l 1
 376 46 l 1
 377 188 401 313 449 403 c 0
 485.581514891 471.39152784 541.997253851 536 634 536 c 4
 698 536 745 504 779 467 c 0
 825 418 856 350 875 272 c 1
 922 272 l 1
 922 246.993 l 1
 712 246.993 l 1
 712 272 l 1
 758.994 272 l 1
 749.994 358 734 448 685 492 c 0
 671 505 654 511.993 634 511.993 c 0
 584 511.993 559 472 543 432 c 0
 502 334 502 184 502 47 c 2
 502 -40.0039 l 1
 530.927897828 26.7527872964 580.579294469 88.4723093743 652 115 c 0
 669 122 686 125 703 125 c 0xfd70
EndSplineSet
Validated: 1
Colour: ffff
EndChar

